<svg xmlns="http://www.w3.org/2000/svg" viewBox="0 0 1202.43 346.61"><defs><style>.cls-1{fill:#f4ede5;}.cls-2{fill:#231f20;}.cls-3{fill:#8fa9e6;}.cls-4{fill:none;stroke:#231f20;stroke-linecap:round;stroke-miterlimit:10;}.cls-5{fill:#edd4c3;}.cls-6{fill:#1e1e1e;}.cls-7{fill:#eb8480;}</style></defs><title>Bottom-LgAsset 5</title><g id="Layer_2" data-name="Layer 2"><g id="OBJECTS"><path class="cls-1" d="M903,140.34c-1.34-3-4.33-8-7.57-9.24-3.58-1.34-6.49,3.89-8.59,6.15a1.63,1.63,0,0,0,.33,2.53c7.69,4.62-9.12,8.08-6.66.83,1.54-2.28,6-3.8,4.58-7.36-.85-2.07-3.72-3.51-5.25-5.05a1.66,1.66,0,0,0-2.28,0c-7.17,5.84-10.87,15-5.49,23.39-3.41,4.43-6.71,9.16-11,12.77-5.13,4.32-11.49,6.93-17.66,9.41a75.54,75.54,0,0,0-24.29-23.16,15.16,15.16,0,0,0,.87-1.7,66,66,0,0,0,5.5-24.55c.16-12.54-6.18-21.61-15.32-27.1q5.42-9.45,11.73-18.3c4.37.63,9.86-.11,10.92-5.29a8.39,8.39,0,0,0-7.32-10.08c-4.66-.51-9.47,2.48-9.76,7.42a8,8,0,0,0,3.25,6.5q-6.26,8.82-11.65,18.19c-16.17-8-39.18-5.86-51.92,7-12.28,12.43-13.74,31.47-4.93,46.14a66.51,66.51,0,0,0-11.27,3.38c-2.77-5.2-5.53-10.5-6.87-16.27-1.44-6.16-.86-12.56-.59-18.84,9.65-2.94,12.51-12.58,10.8-21.72A1.61,1.61,0,0,0,741,94.28c-2.16.2-5.31-.54-7.3.45-3.44,1.72-1.2,5.85-1.36,8.66-3.74,10.95-13.51-6.21-4.71-5a1.64,1.64,0,0,0,2-1.55c-.13-2.69.9-8.6-1.89-10.19s-9,.5-11.59,1.61c-7.54,3.21-11.08,10.36-8,18.12a18.39,18.39,0,0,0,9.17,9.58c-1.76,6.74-4.24,13.8-2.72,20.7,1.81,8.18,6,16.18,10.56,23.15A68.25,68.25,0,0,0,698,198.43c-6.13,23.87,2.67,50.4,20.86,66.77-4.32,4.52-6.65,10.81-7.63,17.26a1.19,1.19,0,0,0-.13,1,55.36,55.36,0,0,0-.32,10.86,52.1,52.1,0,0,0,9.77,26.93,12.79,12.79,0,0,0-4.67,2.3c-4.89,3.72-8.71,9.15-11.84,14.36a1.63,1.63,0,0,0,1,2.37c9.47,3,18.7,5.12,28.61,5,3.05,0,12.78,1,15.27-2.36a1.92,1.92,0,0,0,.42-1.77,26.35,26.35,0,0,0-5.12-14.49c-2.64-3.49-4.4-4.6-7-5-6-5.61-8.56-14.85-9.12-22.82-.35-5-.1-21.63,6.67-23l.16,0c21.91,10.45,49.79,10.63,72.62,6.05a75.75,75.75,0,0,0,19.16-6.39l.16.07c5.69,1.72,5.47,17.78,5.12,22-.73,8.69-3.88,19.31-11,25-2.89.32-4.92,1.57-7.61,4.64a26.49,26.49,0,0,0-6.13,14.16,1.45,1.45,0,0,0-.08.62,1.26,1.26,0,0,0,.4,1.09c2.21,3.44,12.12,3.17,15.16,3.42,9.86.83,19.26-.64,28.9-2.89a1.63,1.63,0,0,0,1-2.37c-2.87-5.71-6.63-12.19-11.85-16.1a11.9,11.9,0,0,0-3.23-1.73,54.12,54.12,0,0,0,7-11.18,1.62,1.62,0,0,0,.56-1.2c6.72-15.08,7.09-33.55-3.9-46.31.32-.36.65-.71,1-1.08,8.31-9.88,12.66-23,14.42-35.64A76.86,76.86,0,0,0,851,187.94c7.54-2.41,15.13-5.65,21.47-10.39,5.69-4.26,8.34-11.35,11.35-17.65a18.51,18.51,0,0,0,14.28-2C904.43,153.94,906,147,903,140.34Z"/><path class="cls-2" d="M765.42,136c-25.66,4.37-47.75,24.39-54.22,49.7s3.9,53.51,24.4,69.39c11.74,9.09,26.31,13.41,40.89,15a143.48,143.48,0,0,0,44-1.59c12.73-2.58,25.47-7.9,34.06-18s12.94-23.55,14.62-36.47c3.89-29.81-12.11-62.17-38.61-76.82-1.41-.78-2.67,1.38-1.26,2.16,22.47,12.42,38.47,39.6,38.07,65.29-.2,12.66-3.3,25.86-9.62,36.9-6.63,11.58-17.51,18.78-30.11,22.57s-26,4.57-39,4.24c-14.61-.37-29.54-2.7-42.59-9.61-22.27-11.79-35.9-37.17-34.08-62.23,2.1-29,25.86-53.37,54.15-58.19,1.58-.27.91-2.68-.66-2.41Z"/><path class="cls-2" d="M764.29,136.43c13.81,12.23,32.67,11.81,49.81,8.77,7.51-1.33,15.15-1.47,18.45-9.26a66.63,66.63,0,0,0,5.5-24.78c.13-15.61-9.85-26.75-24.65-30.57-15-3.87-32.21-2.35-43.87,8.62-13.38,12.59-15,33.17-4.83,48.22.9,1.33,3.06.08,2.16-1.26-11.07-16.39-7-38.83,10-49.46,13.64-8.54,36.57-7.55,49.24,2.67,7.36,5.94,10,14.93,9.4,24.11a63.21,63.21,0,0,1-2.59,13.72c-1.53,5.28-2.76,11.48-8.58,13.43-4.56,1.52-9.87,2-14.62,2.78A86.94,86.94,0,0,1,793,144.58c-9.86-.39-19.51-3.3-27-9.92-1.2-1.06-3,.7-1.77,1.77Z"/><path class="cls-2" d="M822.51,84.66a219.74,219.74,0,0,1,13-20.23c.73-1-.47-2-1.41-1.84A15,15,0,0,1,832.32,61l.69-5.89a5.45,5.45,0,0,1,5.93-1.22c1.89.51,3.86,1.47,3.83,4L840,63.23a10,10,0,0,1-4.55.06c-1.57-.26-2.25,2.15-.66,2.41,4.18.68,9.6,0,10.57-5a8,8,0,0,0-6.67-9.58c-4.69-.67-10,2.52-9.75,7.74.14,2.71,2.77,6.58,5.82,6.15l-1.41-1.84a219.74,219.74,0,0,0-13,20.23,1.25,1.25,0,0,0,2.16,1.26Z"/><path class="cls-2" d="M755.69,170.13c-3.24-1.2-7.19-2.18-9.74-4.65-4.39-4.26-1.38-9.12,3.76-10.26,8.31-1.83,15.6,3.68,23.2,6,15.8,4.93,32.94,2.83,48.3-2.63,4.6-1.63,9.62-4,14.59-2.53,6.84,2,6.87,9.69,2.28,14-6.31,6-18.76,6.72-26.95,7.49a125.23,125.23,0,0,1-55.46-7.48c-1.51-.56-2.16,1.85-.66,2.41a126.83,126.83,0,0,0,56.12,7.57c10.05-1,35.68-3.09,32.65-19-1.21-6.37-8.24-8.48-13.89-7.68-4.37.62-8.47,2.62-12.64,4a87.73,87.73,0,0,1-15.13,3.47,65.54,65.54,0,0,1-30.2-2.51c-7.22-2.49-13.69-6.91-21.65-5.72-4.91.73-9.67,3.79-9,9.36.82,6.53,8.49,8.65,13.7,10.58C756.54,173.11,757.19,170.69,755.69,170.13Z"/><path class="cls-2" d="M752.76,169.26a58.65,58.65,0,0,1,5.84-12.52c.85-1.37-1.31-2.63-2.16-1.26a61.55,61.55,0,0,0-6.09,13.11c-.5,1.53,1.91,2.19,2.41.66Z"/><path class="cls-2" d="M767.09,173.43l4.76-13.89c.52-1.53-1.89-2.18-2.41-.66l-4.76,13.89c-.52,1.53,1.89,2.18,2.41.66Z"/><path class="cls-2" d="M782.8,176.8A54.77,54.77,0,0,0,785.9,163c.15-1.6-2.35-1.59-2.5,0a52.26,52.26,0,0,1-3,13.15c-.55,1.51,1.86,2.17,2.41.66Z"/><path class="cls-2" d="M800.72,178.36a57.16,57.16,0,0,1-1.34-14.53c.06-1.61-2.44-1.61-2.5,0A59.82,59.82,0,0,0,798.3,179c.35,1.57,2.76.91,2.41-.66Z"/><path class="cls-2" d="M818.21,176.25,815,160.53c-.32-1.58-2.73-.91-2.41.66l3.22,15.73c.32,1.58,2.73.91,2.41-.66Z"/><path class="cls-2" d="M834.48,173.22l-6.84-16.7c-.6-1.47-3-.83-2.41.66l6.84,16.7c.6,1.47,3,.83,2.41-.66Z"/><path class="cls-2" d="M778.32,113.13c3.39-2,5.34-6.77.94-9.17s-9.27,2.14-7.89,6.53A5,5,0,0,0,778.32,113.13Z"/><path class="cls-2" d="M806.16,112.92c3.39-2,5.34-6.77.94-9.17s-9.27,2.14-7.89,6.53A5,5,0,0,0,806.16,112.92Z"/><path class="cls-2" d="M893,127.63c1.27-2.24,5.88-3.57,4.71-6.94-.73-2.1-3.77-3.59-5.26-5.13a1.28,1.28,0,0,0-1.77,0c-7.07,5.71-10.83,14.63-5.4,23s17.16,11.34,25.51,6.11c6-3.77,7.65-10.42,4.88-16.81-1.33-3.07-3.87-7-6.75-8.9-3.76-2.45-6.68,3.21-8.94,5.65a1.26,1.26,0,0,0,.25,2,4.08,4.08,0,0,1,1.55,4.54q-.24,2.5-3,2.29c-4.27,1.28-7.45-1.66-5.64-6.07.61-1.49-1.81-2.14-2.41-.66a7.46,7.46,0,0,0,9.68,9.71c4.7-1.85,5.6-9.44,1.08-12l.25,2c2.4-2.58,4.91-6.6,8-3.06a20.57,20.57,0,0,1,3.89,6.21c2,5.38.3,10.42-4.71,13.31-7.72,4.46-18.86.64-22.53-7.49-3.27-7.24.44-13.51,6-18h-1.77c1,1,3.8,2.47,4.16,3.75s-3.18,3.84-4,5.29A1.25,1.25,0,0,0,893,127.63Z"/><path class="cls-2" d="M885.82,138.2c-3.88,5-7.54,10.37-12.56,14.28-5.26,4.09-11.49,6.61-17.62,9.07-1.47.59-.83,3,.66,2.41,6.13-2.46,12.34-4.94,17.69-8.88,5.51-4.07,9.43-9.76,13.6-15.1,1-1.25-.78-3-1.77-1.77Z"/><path class="cls-2" d="M894.95,144.16c-3.28,6.55-5.87,14.44-12.07,18.75a75.25,75.25,0,0,1-21.33,9.88,1.25,1.25,0,0,0,.66,2.41c8.15-2.45,16.35-5.92,23.21-11,5.94-4.44,8.48-12.32,11.69-18.75.72-1.43-1.44-2.7-2.16-1.26Z"/><path class="cls-2" d="M863.93,160.5a46.38,46.38,0,0,0,8.16,9.81c1.19,1.08,3-.68,1.77-1.77a44,44,0,0,1-7.77-9.3c-.85-1.36-3-.11-2.16,1.26Z"/><path class="cls-2" d="M872.76,156.28q4.12,4.63,8.58,8.92c1.16,1.12,2.93-.65,1.77-1.77q-4.46-4.3-8.58-8.92c-1.07-1.2-2.83.57-1.77,1.77Z"/><path class="cls-2" d="M880.46,147.5l9.29,7.2c1.26,1,3-.78,1.77-1.77l-9.29-7.2c-1.26-1-3,.78-1.77,1.77Z"/><path class="cls-2" d="M748.12,90.84c.24-1.78-.46-2.93-.37-4.52.12-2.09.17-1.56,1.91-2a7.84,7.84,0,0,1,2.87-.07l1.22,0q-1.77,1.23-.4,3.55c.32,10.82-9.71,16.23-19.25,13.47-7.31-2.12-15-11.09-9.74-18.84,1.95-2.87,5.4-4.56,8.67-5.4,1.06-.27,3.73-1.15,4.77-.75,2.57,1,1.84,5.57,1.94,7.65l1.58-1.21c-5.41-1-9.79,5.86-6.58,10.41a7.41,7.41,0,0,0,13.32-2c.49-1.54-1.92-2.19-2.41-.66q-.41,3.15-3.46,2.84-4.17,1.83-6.13-3.5c-.11-2.28,2.18-5.13,4.6-4.7a1.27,1.27,0,0,0,1.58-1.21c-.15-3.15,1.17-9.21-2.77-10.15-3.16-.75-8,.87-10.85,2.18-7,3.23-10,10.1-7.16,17.34,3.43,8.61,13.75,13.27,22.69,10.76,9.85-2.76,12.71-12.3,11-21.41a1.25,1.25,0,0,0-1.21-.92c-2.15.22-5.22-.54-7.2.44-3.27,1.63-.78,6.14-1.11,8.65C745.41,92.43,747.91,92.41,748.12,90.84Z"/><path class="cls-2" d="M741.86,103.48c-.25,6.77-.93,13.67.65,20.33,1.53,6.46,4.69,12.39,7.79,18.2.76,1.42,2.92.16,2.16-1.26-3-5.63-6.06-11.35-7.54-17.6-1.52-6.42-.81-13.14-.56-19.67.06-1.61-2.44-1.61-2.5,0Z"/><path class="cls-2" d="M731.1,101.5c-1.77,7.36-4.89,15.08-3,22.67,2,8,5.94,15.75,10.45,22.64.88,1.34,3,.09,2.16-1.26A78.31,78.31,0,0,1,730.94,125c-2.25-7.6.78-15.38,2.57-22.84.38-1.56-2-2.23-2.41-.66Z"/><path class="cls-2" d="M746,132.14a44.7,44.7,0,0,1-11.91,2.13c-1.6.07-1.61,2.57,0,2.5a47.23,47.23,0,0,0,12.58-2.22c1.53-.49.87-2.9-.66-2.41Z"/><path class="cls-2" d="M742.26,123.16q-6,.86-12,1.26c-1.6.11-1.61,2.61,0,2.5q6.35-.43,12.65-1.34c1.59-.23.91-2.64-.66-2.41Z"/><path class="cls-2" d="M742.36,111.44,730.61,111c-1.61-.07-1.61,2.43,0,2.5l11.75.48c1.61.07,1.61-2.43,0-2.5Z"/><path class="cls-2" d="M820.19,258.83c-19.95,1.94-40.41,2.34-59.81-3.42-9.35-2.77-17.23-6.78-20.64-16.5A119.34,119.34,0,0,1,734,210.26a108.53,108.53,0,0,1-.29-14.29c.12-2.62-.08-6,.75-8.47,1.55-4.67,5-3.44,8.55-2.53,9.51,2.45,19,5.1,28.64,6.92,9.31,1.75,18.85,2.77,28.31,1.9a120.48,120.48,0,0,0,13.14-2.18c2.11-.43,4.21-.87,6.34-1.22s7.34-1.61,9.7-.76c4.82,1.74,4.64,5.89,4.89,10.12q.25,4.17.27,8.35a157.87,157.87,0,0,1-.78,16.68,155.39,155.39,0,0,1-2.68,17.08c-1.47,6.86-2.11,16-10.64,17-1.58.18-1.6,2.69,0,2.5,3.66-.43,6.93-1.2,8.93-4.56,2.85-4.78,3.63-11.62,4.68-17a160.12,160.12,0,0,0,2.92-35.41c-.12-4.19.48-10.17-1.64-14-2-3.62-5.92-3.42-9.63-3.22-5.64.3-11.14,1.68-16.66,2.77a84.59,84.59,0,0,1-21.93,1.46c-13.14-.85-25.94-4.34-38.62-7.65-7.24-1.89-15-5.2-16.44,4.61-1.86,12.65-.49,25.83,2.27,38.23,2,8.94,3.54,18.94,11.35,24.79,8.94,6.7,21.81,8.85,32.6,10.18,14,1.73,28.16,1.12,42.18-.24C821.78,261.17,821.79,258.67,820.19,258.83Z"/><path class="cls-2" d="M778.43,209.15c4.86,3.55,9.81-4.53,6.68-8.52a4.81,4.81,0,0,0-7.42,0c-1.89,2.36-1.88,6.26.49,8.29,1.21,1,3-.72,1.77-1.77a3.68,3.68,0,0,1-.45-4.77,2.28,2.28,0,0,1,3.87.09c1,2.1-1.19,6.3-3.67,4.49C778.39,206,777.14,208.21,778.43,209.15Z"/><path class="cls-2" d="M821.92,246.3c.91-7.06,2.23-14.09,2.54-21.22.11-2.49,1.29-8.1-1.78-9.37-1.69-.7-4,.15-5.75.45-3.8.67-7.55,1.63-11.33,2.43-4.56,1-6.38.78-6.42,5.72-.06,6.84,0,13.7.23,20.54.1,3.33.14,6.69,3.92,7.69,3.43.91,9,.53,12.45,0,3.73-.55,5.52-2.15,6.1-5.93.24-1.57-2.17-2.25-2.41-.66-.77,5-5.83,4.32-9.51,4.26s-7,.67-8-4.45c-.74-3.73-.18-8.31-.22-12.14,0-2.43-1.19-10.06.78-11.88.61-.57,4.8-1,5.65-1.17,1.89-.42,3.77-.86,5.66-1.26a35.88,35.88,0,0,1,5.67-1.07c3.5-.12,2.56,1.46,2.55,4,0,8.07-1.58,16-2.61,24C819.22,247.89,821.72,247.87,821.92,246.3Z"/><path class="cls-2" d="M805.1,220.86a266.88,266.88,0,0,1,1.78,29.21,1.25,1.25,0,0,0,2.5,0,266.88,266.88,0,0,0-1.78-29.21c-.18-1.58-2.69-1.6-2.5,0Z"/><path class="cls-2" d="M814.49,217.42l-1.58,33.42c-.08,1.61,2.42,1.6,2.5,0L817,217.42c.08-1.61-2.42-1.6-2.5,0Z"/><path class="cls-2" d="M759.37,328.55c-.44,1.59-14.57,1-16.61,1-8.23-.12-16.35-2.45-24.16-4.92l.75,1.84a52.51,52.51,0,0,1,9.41-12.07c4.55-4.14,8.44-3.83,14.25-3.28,4.41.42,7-.75,10.44,2.81,3.86,4,5.66,9.53,5.88,14.95.06,1.6,2.56,1.61,2.5,0a25.86,25.86,0,0,0-5.39-15.26c-1.33-1.69-3.15-3.95-5.24-4.74-2.29-.86-5.26,0-7.69-.23-5.28-.51-9.57-1.35-14.14,2-5.07,3.66-9,9.28-12.17,14.58a1.27,1.27,0,0,0,.75,1.84c9.32,3,18.45,5.09,28.21,5,2.81,0,14.53,1.1,15.64-2.85A1.25,1.25,0,0,0,759.37,328.55Z"/><path class="cls-2" d="M736.94,308.37a48.94,48.94,0,0,1-10.49-27.45c-.54-9,1-21,8-27.33,1.19-1.08-.58-2.85-1.77-1.77-7.54,6.85-9.29,19.43-8.73,29.1a51.66,51.66,0,0,0,11.22,29.22c1,1.26,2.76-.52,1.77-1.77Z"/><path class="cls-2" d="M750.23,309.49c-6.17-5.11-8.82-14.43-9.58-22.11a45.16,45.16,0,0,1,.38-12c.63-3.72,1.91-12.14,6.43-12.82,1.59-.24.91-2.65-.66-2.41-4.07.62-5.45,4.7-6.6,8.19a46.57,46.57,0,0,0-2.25,15.72c.25,9.28,3,21,10.52,27.17,1.23,1,3-.74,1.77-1.77Z"/><path class="cls-2" d="M728.62,259.87A15.42,15.42,0,0,0,739.21,268c1.57.33,2.24-2.08.66-2.41a13,13,0,0,1-9.1-6.94c-.73-1.43-2.89-.17-2.16,1.26Z"/><path class="cls-2" d="M724.51,270.88a15.19,15.19,0,0,0,13.19,6.21c1.6-.1,1.61-2.6,0-2.5a12.63,12.63,0,0,1-11-5c-1-1.27-3.13,0-2.16,1.26Z"/><path class="cls-2" d="M726.16,284.59a18.49,18.49,0,0,0,11.67,2.33c1.57-.21,1.59-2.71,0-2.5a16.28,16.28,0,0,1-10.4-2,1.25,1.25,0,0,0-1.26,2.16Z"/><path class="cls-2" d="M730.6,296.91a16.27,16.27,0,0,0,9.53,1.27c1.58-.25.91-2.66-.66-2.41a13.24,13.24,0,0,1-7.61-1c-1.45-.66-2.73,1.5-1.26,2.16Z"/><path class="cls-2" d="M722.4,321.65a163.94,163.94,0,0,0,36.26,4.25,1.25,1.25,0,0,0,0-2.5,160.88,160.88,0,0,1-35.6-4.16c-1.57-.36-2.23,2-.66,2.41Z"/><path class="cls-2" d="M820.37,329.2c.78,3.91,12.69,3.7,15.45,3.93,9.71.8,19-.67,28.51-2.9a1.27,1.27,0,0,0,.75-1.84c-2.83-5.66-6.47-11.79-11.51-15.79-4.7-3.73-9.39-2.36-15-2.56-2-.07-4.27-.95-6.25-.36-2.33.7-4.61,3.19-6.11,5a26.12,26.12,0,0,0-5.93,14.23c-.18,1.6,2.32,1.58,2.5,0A23.15,23.15,0,0,1,829,315.32c3.75-3.92,7.22-2.62,12-2.85,5.47-.26,9.53.19,13.47,4.43a54,54,0,0,1,8.45,12.76l.75-1.84c-8,1.88-16.22,3.56-24.46,3.06-2.21-.13-16.06-.55-16.42-2.34C822.46,327,820.05,327.63,820.37,329.2Z"/><path class="cls-2" d="M848.39,312c14.41-15.59,20.53-44.54,4.34-61.26-1.12-1.16-2.89.61-1.77,1.77,15.21,15.7,9.13,43.15-4.34,57.72-1.09,1.18.67,3,1.77,1.77Z"/><path class="cls-2" d="M834.8,312.35c8.26-5.84,12-17.69,12.81-27.34A46.59,46.59,0,0,0,846,268.39c-.9-3.16-2-7.6-5.61-8.54a1.25,1.25,0,0,0-.66,2.41c3.11.82,4.09,7.24,4.65,10a44.43,44.43,0,0,1,.54,14.23c-1,8.24-4.31,18.7-11.4,23.71-1.3.92-.06,3.09,1.26,2.16Z"/><path class="cls-2" d="M856.54,261.13a12.92,12.92,0,0,1-9.3,6.13c-1.57.21-1.59,2.71,0,2.5a15.59,15.59,0,0,0,11.46-7.37c.84-1.38-1.32-2.63-2.16-1.26Z"/><path class="cls-2" d="M860,272.16a12.63,12.63,0,0,1-11.28,4.34c-1.57-.22-2.25,2.19-.66,2.41a15.19,15.19,0,0,0,13.72-5c1.06-1.2-.7-3-1.77-1.77Z"/><path class="cls-2" d="M858.06,285.11a16,16,0,0,1-10.2,1.2c-1.57-.32-2.24,2.08-.66,2.41a18.87,18.87,0,0,0,12.13-1.45c1.45-.69.19-2.84-1.26-2.16Z"/><path class="cls-2" d="M856,296.75a21,21,0,0,1-11,.67c-1.57-.36-2.23,2-.66,2.41a23.39,23.39,0,0,0,12.34-.67c1.51-.53.86-3-.66-2.41Z"/><path class="cls-2" d="M859.61,322.11a160.92,160.92,0,0,1-35.81,1.43c-1.61-.11-1.6,2.39,0,2.5a163.86,163.86,0,0,0,36.48-1.52c1.59-.24.91-2.65-.66-2.41Z"/><path class="cls-3" d="M1186.61,48.66a1.72,1.72,0,0,0-.26-.33c-2.46-2.47-8.36-7.16-12.15-5.93s-3.35,6.67-3.67,9.83a1.63,1.63,0,0,0,2.43,1.39c-.13.07,1.55.8,1.61.83,3.55,2,1.73,5.93-1.35,7.53-2.63,1.36-7.46,1-9.22-1.62-1.07-1.58-1.84-6.25,2.15-5.92a1.63,1.63,0,0,0,1.61-1.61l.13-7.92a1.65,1.65,0,0,0-1.61-1.61c-8.57-.62-16.4,4.86-17.81,13.55s2.9,14.21,9.63,17a167.3,167.3,0,0,1-5.73,30c-2.5,8.6-6,17.43-14.43,21.67a1.38,1.38,0,0,0-.78.93c-.28,0-.56-.08-.85-.11-7.31-.25-14.45.56-21.74.78-2.14.07-4.29,0-6.44-.08l-.39-8.17c6.47.21,12.94.27,19.35,0,9.29-.38,12-6.31,12.18-14.91,0-4.19-.2-8.37-.45-12.55h0c2.43-.38,7.09-.07,8.45-2.57.87-1.59.25-4.57.22-6.18-.06-2.87-.15-5.75-.31-8.62-.44-7.83-3.09-11.66-10.53-11.86-.12-4.84.12-9.89-.64-14.54-.4-2.45-1.25-4-3.58-5-3.85-1.65-9.66-1.49-13.74-1.84-6.26-.53-12.55-.77-18.84-.88-1.4,0-2.79,0-4.19,0,.05-5.68.34-11.32.72-17,2.94.57,7.62,2,9.12-1.09.76-1.59.67-5.29-.77-6.52-1.67-1.44-5.82-1.53-7.84-1.89-2.59-.46-6.23-1.43-8.78-.42-2,.8-3,3.11-2.91,5.29.13,2.36,1.77,3,3.94,3.41,1.35.25,2.89,0,4.18.33l.47.12c-.28,0-.6,0-.62.33-.06,1.32-.19,2.63-.28,3.94-.31,4.48-.44,9-.47,13.44-9.28-.05-18.56.06-27.84,0-8.3,0-13.09,2.72-14.37,11.3a114.07,114.07,0,0,0-1.11,12.42c-3-.83-7.67-2.42-9.84-.89-2.62,1.85-1.24,8.38-1.27,11,0,3.06-.16,6.13-.11,9.19,0,1.25-.1,2.58.64,3.67,2,2.92,8.35,2.52,11.39,2.6h0c.46,7.36.19,19.58,6.22,24.1,2.67,2,6.19,2.51,9.4,2.88,6,.71,12.14,1.08,18.21,1.48l5.92.38L1091,126c-6.79-.18-13.59-.16-20.37.27-4.43.28-12.61-.28-16.4,2.65-2,1.51-2.65,3.9-3,6.36-10.32-1.21-17.06-10-22.7-17.91a168.92,168.92,0,0,1-13.83-23.24c5.34-4.87,7-11.71,3.27-18.87-4.31-8.21-13.85-10.63-22-6.89a1.61,1.61,0,0,0-.74,1.82l2.91,7.37a1.65,1.65,0,0,0,2.37,1q4.43.73,4,4.5-1.33,5.38-6.15,5-6.12,2.23-5.68-6.73,1.84-.57,1.16-1c1.31.12,1.88-1.43,1.39-2.43-1.42-2.88-3.09-8.07-7.05-7.61-3.77.44-7.54,6.54-8.94,9.63h0a1.73,1.73,0,0,0-.16.38c-2.32,8.23,2,17.7,10.12,20.93a17.83,17.83,0,0,0,10.75.55c8.2,22.24,23.68,50.17,49.49,53.69a1.78,1.78,0,0,0,.43,0c-.12,2.71-.22,5.42-.28,8.13a388.61,388.61,0,0,0,1.73,46.14c.93,9.61,0,22.35,11,25.95.8.26,1.62.47,2.46.66a106.39,106.39,0,0,0-11.05,40.94c-1,13.83-.92,29.29,6.17,41.62l-.63.15c-10,2.7-16.51,10.21-14.42,20.76A1.57,1.57,0,0,0,1046,341a104.19,104.19,0,0,0,37.18.94,1.64,1.64,0,0,0,1.18-1.55,29.41,29.41,0,0,0-1.76-12.17,1.76,1.76,0,0,0-.17-.37,16.05,16.05,0,0,0-6.36-7.69,97.54,97.54,0,0,1,4.19-82.33c7.47.44,15,.64,22.45.68,7.65,0,15.29-.1,22.94-.3h.49a97.34,97.34,0,0,1,2.65,82.19,1.79,1.79,0,0,0-.12.41,15.66,15.66,0,0,0-6.57,7.48s0,.08,0,.11a1.8,1.8,0,0,0-.13.27,29.47,29.47,0,0,0-2,12.13,1.65,1.65,0,0,0,1.18,1.55,104.22,104.22,0,0,0,37.2-.18,1.57,1.57,0,0,0,1.13-1.13c2.3-10.47-5.33-18.58-14.45-21.45,7-11.67,7.46-26.32,7-39.58a106.84,106.84,0,0,0-10.33-42.94c.23-.09.47-.15.69-.24,3.39-1.51,5-4.55,5.55-8.07,1.19-7,.11-14.81,0-21.87q-.48-26.13-1-52.25c-.06-3,.16-6.95,0-10.9l0,0c23-12.38,27.74-44,27.6-67.76a17.75,17.75,0,0,0,9.88-4.29A17.7,17.7,0,0,0,1186.61,48.66Z"/><path class="cls-2" d="M1151.81,91.11c-.05-12.46-1.4-24.84-2.34-37.25-.44-5.83-.5-11.66-.81-17.49-.14-2.61-.48-4.93-3.05-6.15-3.61-1.71-9.31-1.53-13.2-1.88-6.08-.54-12.19-.8-18.29-.93-11.6-.24-23.2.05-34.8-.05-3.82,0-8.21-.48-11.48,1.94-3,2.19-3.89,5.86-4.35,9.34C1062,50,1062.17,61.79,1063,73.17q.57,7.88,1.76,15.69c.58,3.86.86,8.09,4,10.78,2.54,2.16,6,2.77,9.21,3.18,6.16.78,12.42,1.11,18.62,1.52,13.47.88,27,1.36,40.47,1.34,4.36,0,9.18.15,12.14-3.63,2.38-3,2.54-7.26,2.59-10.94a1.25,1.25,0,0,0-2.5,0c-.06,4.74-.46,10.23-5.94,11.75-4.44,1.23-10.4.32-15,.26q-14-.2-27.94-1c-8.35-.5-18.08-.07-26.13-2.45-5.65-1.67-6.4-6.3-7.17-11.44q-1.19-8-1.73-16a202.09,202.09,0,0,1,0-28c.38-5.3.31-11.51,6.08-14,3.75-1.59,10-.37,14-.38,17.39,0,34.87-.53,52.17,1.52,3,.36,7.24.11,8.34,3.8.66,2.21.11,5.69.2,8,.21,5.2.61,10.39,1,15.58.9,10.78,1.9,21.54,1.95,32.37A1.25,1.25,0,0,0,1151.81,91.11Z"/><path class="cls-2" d="M1063.41,51.41c-2.55-.48-8.68-3-11-1.28s-1.06,8.17-1.09,10.65c0,3.06-.15,6.13-.11,9.19,0,1.15-.12,2.44.57,3.45,1.91,2.8,8.21,2.39,11.1,2.46a1.25,1.25,0,0,0,0-2.5c-2.7-.07-7.87.44-9.18-2.49-.89-2,.08-6.91.11-9.19s-.85-6.43.1-8.27q-.44-1.94,2-.89l1.7.32c1.71.24,3.41.64,5.11,1s2.25-2.11.66-2.41Z"/><path class="cls-2" d="M1148,52.21c3.33-.12,6.76.13,8.63,3.54,1.1,2,.68,6.19.77,8.32.1,2.34.69,5.38.21,7.66-.77,3.66-3.4,3.56-6.6,4.07-1.58.25-.91,2.66.66,2.41,2.15-.34,6.91-.12,8.2-2.31,1-1.65.23-5.3.19-7-.07-2.87-.17-5.75-.35-8.62-.47-7.77-3.85-10.82-11.71-10.53-1.6.06-1.61,2.56,0,2.5Z"/><path class="cls-2" d="M1108.22,28.49c0-7,.4-13.85.9-20.78a1.24,1.24,0,0,0-.62-1.08c-1.22-.73-3.17-.34-4.52-.48-1.56-.16-4.76-1.61-1.88-3.38.86-.53,3.13,0,4.07.06,2.25.25,6.4.41,8.41,1.58,2.44,1.42,1.55,3.16-1.66,3.28-1.41.05-3.18-.56-4.63-.7-1.6-.15-1.59,2.35,0,2.5,2.35.22,7.12,2.07,9.17.17,1.45-1.35,1.54-5.41.18-6.84S1112,1.28,1110.27,1c-2.61-.48-6.23-1.49-8.84-.61a4.15,4.15,0,0,0,.28,8c1.31.31,2.93-.05,4.16.37,2.33.81.25-.94.61.83.24,1.15-.2,2.78-.28,3.94-.34,5-.48,10-.48,15a1.25,1.25,0,0,0,2.5,0Z"/><path class="cls-2" d="M1123.88,78.91a214.44,214.44,0,0,0-35.29-.88,1.27,1.27,0,0,0-1.21.92c-1.45,9.18,6.36,8.24,13.12,8.52,4.73.19,9.47.3,14.2.47,2,.07,4,.14,6,.27,1.19.08,3.88.83,3.58-.15a1.26,1.26,0,0,0,2.46-.33c.36-3.12,1-7.6-2.57-8.78-1.53-.51-2.19,1.91-.66,2.41s.87,5.1.73,6.36l2.46-.33c-.63-2-5.21-1.65-6.74-1.73-5.83-.34-11.68-.41-17.52-.62-2-.07-15.2.59-12.47-4,1.27-2.16,13.25-.65,15.76-.62q9.09.12,18.12,1C1125.48,81.57,1125.47,79.07,1123.88,78.91Z"/><path class="cls-2" d="M1095.58,60.78c0-3.29.71-6.31.24-9.64a1.8,1.8,0,0,0-1.79-1.9,26.26,26.26,0,0,0-8.15-.22,1.73,1.73,0,0,0-1,.39,1.79,1.79,0,0,0-.37,1.14,33.4,33.4,0,0,0,.54,11.06,1.58,1.58,0,0,0,1.88,1.49,35.63,35.63,0,0,0,7.19-.47,2,2,0,0,0,1.16-.48A2,2,0,0,0,1095.58,60.78Z"/><path class="cls-2" d="M1127.43,61.12c0-3.29.71-6.31.24-9.64a1.8,1.8,0,0,0-1.79-1.9,26.26,26.26,0,0,0-8.15-.22,1.73,1.73,0,0,0-1,.39,1.79,1.79,0,0,0-.37,1.14,33.4,33.4,0,0,0,.54,11.06,1.58,1.58,0,0,0,1.88,1.49,35.63,35.63,0,0,0,7.19-.47,2,2,0,0,0,1.16-.48A2,2,0,0,0,1127.43,61.12Z"/><path class="cls-2" d="M1149.21,113.84c-7.14-.26-14.15.46-21.26.77-7.59.32-15.26-.84-22.85-1.07-6.91-.21-13.84-.21-20.74.19-4.49.26-13.13-.27-17,2.59-3.61,2.7-3.09,8.9-3.39,12.8q-.83,10.65-1.07,21.34a388.64,388.64,0,0,0,1.55,44.62c.88,9.56-.36,23.68,10.71,27.35,5.38,1.78,11.48,1.73,17.06,2.07,7.13.44,14.27.65,21.41.71s14.29,0,21.44-.2c6-.14,14.28,1.08,20-1.42,3.55-1.56,5-4.9,5.44-8.57.83-6.62,0-13.68-.12-20.32l-.91-49.56c-.14-7.63.1-15.49-1.46-23-1.11-5.31-3.16-7.9-8.8-8.29-1.61-.11-1.6,2.39,0,2.5,8.12.56,7.39,13.17,7.57,19.1s.23,11.74.33,17.61l.65,35.69.33,17.84c.12,6.62,1.09,14.63-7.82,15.46-11.41,1.07-23.22.73-34.66.67s-23.11-.16-34.47-1.62c-2.91-.37-6.08-.93-8.51-2.7-3.33-2.44-3.67-6-4.16-9.81-.75-5.78-1.35-11.58-1.83-17.38q-1.43-17.42-1.3-34.93.07-8.74.53-17.47.2-3.88.49-7.75c.23-3.1-.17-7.33,1-10.18,2.45-5.83,17.31-4.74,22.61-4.89,6.28-.18,12.58-.08,18.86.18,6.67.28,13.35,1.25,20,.87s13.49-1,20.32-.71C1150.81,116.39,1150.81,113.89,1149.21,113.84Z"/><path class="cls-2" d="M1102.81,104.06l1.73,10.83c.25,1.58,2.66.91,2.41-.66l-1.73-10.83c-.25-1.58-2.66-.91-2.41.66Z"/><path class="cls-2" d="M1117.72,104.66l.5,10.42c.08,1.6,2.58,1.61,2.5,0l-.5-10.42c-.08-1.6-2.58-1.61-2.5,0Z"/><path class="cls-2" d="M1105.85,110.37l12.71.65c1.61.08,1.6-2.42,0-2.5l-12.71-.65c-1.61-.08-1.6,2.42,0,2.5Z"/><path class="cls-2" d="M994.68,68.48c1.14-2.53,3-5.63,5.38-7.19,3.26-2.17,4.4,2.62,5.67,5.18l1.41-1.84c-3.09-.62-5.92,4.39-5.9,6.92,0,5.54,7.06,7.82,11.6,6.75s8.12-5,7.37-9.91c-.67-4.41-4-7.29-8.21-5.18l1.84.75c-.36-.92-2.49-4.49-2.18-5.53.66-2.22,3.53-2,5.35-1.92A13.4,13.4,0,0,1,1028,63a14.46,14.46,0,0,1,1.61,11.12c-1.2,4-5.24,6.36-8.68,8.35-4.8,2.78-10.84,5.22-16.45,3.64-7.42-2.09-11.89-10.73-9.69-18,.47-1.54-1.94-2.2-2.41-.66a17.31,17.31,0,0,0,9.29,20.24c7.39,3.37,15.85-.08,22.21-4.13,3.5-2.23,6.9-4.65,8.13-8.81a16.8,16.8,0,0,0-1.2-11.82c-4-8.23-13.67-11-21.73-7.16a1.25,1.25,0,0,0-.57,1.41l2.91,7.37a1.28,1.28,0,0,0,1.84.75c3.29-1.63,4.62,2.33,4.57,4.36-.06,2.9-2,4.79-4.57,5.75a6.6,6.6,0,0,1-3.41.6q-4.31.35-4.59-3.7-2.19-2.34,0-4.08a10.21,10.21,0,0,0,1.22-1.26,1.27,1.27,0,0,0,1.41-1.84c-1.27-2.56-3-8.21-6.84-7.44s-7.13,6.36-8.52,9.45C991.86,68.68,994,69.95,994.68,68.48Z"/><path class="cls-2" d="M1012.8,87.57c8,22.44,23.71,51.33,50,54.72,1.59.21,1.58-2.3,0-2.5-25-3.22-40-31.71-47.62-52.89-.54-1.5-3-.86-2.41.66Z"/><path class="cls-2" d="M1024.52,81.45a164,164,0,0,0,18.3,29.66c5.52,7,12.25,13.31,21.51,14.2,1.6.15,1.59-2.35,0-2.5-10.38-1-17.31-9.93-23-17.81a170.32,170.32,0,0,1-14.69-24.82c-.7-1.45-2.86-.18-2.16,1.26Z"/><path class="cls-2" d="M1018.53,96a18.52,18.52,0,0,0,11.33-4.6c1.22-1.06-.56-2.82-1.77-1.77a15.7,15.7,0,0,1-9.57,3.87c-1.6.09-1.61,2.59,0,2.5Z"/><path class="cls-2" d="M1024.7,106a19.68,19.68,0,0,0,10.29-5.5,1.25,1.25,0,0,0-1.77-1.77,17.35,17.35,0,0,1-9.19,4.86c-1.58.3-.91,2.71.66,2.41Z"/><path class="cls-2" d="M1030.47,118.59a20.22,20.22,0,0,0,10.74-10.16c.67-1.45-1.48-2.72-2.16-1.26a17.73,17.73,0,0,1-9.24,9c-1.46.61-.82,3,.66,2.41Z"/><path class="cls-2" d="M1039.42,128.92a20.07,20.07,0,0,0,9.53-12.77c.37-1.56-2-2.23-2.41-.66a17.57,17.57,0,0,1-8.38,11.28,1.25,1.25,0,0,0,1.26,2.16Z"/><path class="cls-2" d="M1052.23,136.74c2.9-4.66,6.23-9.46,4.56-15.18a1.25,1.25,0,0,0-2.41.66c1.45,5-1.81,9.24-4.31,13.25-.85,1.37,1.31,2.63,2.16,1.26Z"/><path class="cls-2" d="M1199,35.68c-2.44-2.45-7.86-6.75-11.62-5.9s-3.29,6.66-3.59,9.54c-.12,1.19,1.39,1.5,2.13.88-.66.55,1.51.82,2.39,1.48,3.8,2.83-.18,7.75-3.67,8.71-2.9.8-6.57-.07-8.21-2.72-1.46-2.36-.81-6.88,2.61-6.5a1.26,1.26,0,0,0,1.25-1.25l.13-7.92a1.28,1.28,0,0,0-1.25-1.25,16,16,0,0,0-17.53,13.69,16.83,16.83,0,0,0,3.07,12.31c3,3.87,8.06,4.87,12.62,5.62,6.7,1.11,14.63,1,19.87-4,6-5.7,7-15.87,2-22.44-1-1.26-3.14,0-2.16,1.26a14.9,14.9,0,0,1-1.21,19.06c-3.8,3.83-9.51,4.46-14.63,4.08-7.69-.57-15.78-2.72-17-11.54a13.58,13.58,0,0,1,15-15.55L1177.93,32l-.13,7.92,1.25-1.25c-4.67-.51-6.52,3.65-5.64,7.77,1.15,5.39,6.82,7.76,11.9,6.36,4.36-1.2,9.25-6.24,6.58-11-1.08-1.92-5.51-5.24-7.73-3.4l2.13.88c.28-2.71-.28-7.3,3.53-6.57,2.59.5,5.6,2.89,7.41,4.7A1.25,1.25,0,0,0,1199,35.68Z"/><path class="cls-2" d="M1184.57,61.88c.34,22.62-3.75,54.59-26.18,66.45-1.42.75-.16,2.91,1.26,2.16,23.28-12.32,27.77-45,27.42-68.61a1.25,1.25,0,0,0-2.5,0Z"/><path class="cls-2" d="M1171.46,59.95a167.36,167.36,0,0,1-5.92,31.39c-2.5,8.54-6.05,17.51-14.52,21.63-1.45.7-.18,2.86,1.26,2.16,8.05-3.92,12.12-12,14.77-20.19a162.26,162.26,0,0,0,6.91-35c.15-1.6-2.35-1.59-2.5,0Z"/><path class="cls-2" d="M1183.9,69.29a16.08,16.08,0,0,1-10.61-.29c-1.51-.56-2.16,1.86-.66,2.41a18.36,18.36,0,0,0,11.94.29c1.53-.48.88-2.89-.66-2.41Z"/><path class="cls-2" d="M1182,80.75a17.16,17.16,0,0,1-10-1.3c-1.45-.66-2.73,1.5-1.26,2.16a20.16,20.16,0,0,0,11.9,1.55c1.58-.26.91-2.67-.66-2.41Z"/><path class="cls-2" d="M1181.32,94.53a17.76,17.76,0,0,1-11.84-5.1c-1.16-1.12-2.92.64-1.77,1.77A20.46,20.46,0,0,0,1181.32,97c1.61.07,1.61-2.43,0-2.5Z"/><path class="cls-2" d="M1177.22,107.4a17.67,17.67,0,0,1-11.86-7.54c-.9-1.32-3.06-.07-2.16,1.26a20.08,20.08,0,0,0,13.35,8.69c1.57.27,2.25-2.14.66-2.41Z"/><path class="cls-2" d="M1168.86,119.61c-3.61-2.77-8.21-5.65-8.53-10.67-.1-1.6-2.6-1.61-2.5,0,.39,6.08,5.35,9.43,9.77,12.83,1.27,1,2.52-1.19,1.26-2.16Z"/><path class="cls-2" d="M1141.21,132c-6.57-1-14.17.36-20.79.58-11.78.38-23.47-1.92-35.2-1.23a1.29,1.29,0,0,0-1.25,1.25c-.38,4,.13,8.24,4.55,9.35,3.46.87,8,.27,11.6.34l13.62.28,13.62.28c3.89.08,9.09,1.18,12.79.17,4.27-1.17,2.55-6.94,1.93-10.15-.3-1.58-2.71-.91-2.41.66.41,2.16,1.59,5.74-.64,7-1.59.94-6.73-.14-8.76-.18l-16.54-.34-15.56-.32c-3-.06-6.76.56-9.46-.83s-2.51-3.56-2.25-6.32l-1.25,1.25c11.43-.67,22.8,1.63,34.26,1.26l13.15-.44c2.34-.08,6-.54,7.92-.26C1142.12,134.61,1142.8,132.2,1141.21,132Z"/><path class="cls-2" d="M1141,148c-6.57-1-14.17.36-20.79.58-11.78.38-23.47-1.92-35.2-1.23a1.29,1.29,0,0,0-1.25,1.25c-.38,4,.13,8.24,4.55,9.35,3.46.87,8,.27,11.6.34l13.62.28,13.62.28c3.89.08,9.09,1.18,12.79.17,4.27-1.17,2.55-6.94,1.93-10.15-.3-1.58-2.71-.91-2.41.66.41,2.16,1.59,5.74-.64,7-1.59.94-6.73-.14-8.76-.18l-16.54-.34-15.56-.32c-3-.06-6.76.56-9.46-.83s-2.51-3.56-2.25-6.32l-1.25,1.25c11.43-.67,22.8,1.63,34.26,1.26l13.15-.44c2.34-.08,6-.54,7.92-.26C1142,150.67,1142.63,148.26,1141,148Z"/><path class="cls-2" d="M1140.87,164.09c-6.57-1-14.17.36-20.79.58-11.78.38-23.47-1.92-35.2-1.23a1.29,1.29,0,0,0-1.25,1.25c-.38,4,.13,8.24,4.55,9.35,3.46.87,8,.27,11.6.34l13.62.28,13.62.28c3.89.08,9.09,1.19,12.79.17,4.27-1.17,2.55-6.94,1.93-10.15-.3-1.58-2.71-.91-2.41.66.41,2.16,1.59,5.74-.64,7-1.59.94-6.73-.14-8.76-.18l-16.54-.34-15.56-.32c-3-.06-6.76.56-9.46-.83s-2.51-3.56-2.25-6.32l-1.25,1.25c11.43-.67,22.8,1.63,34.26,1.26l13.15-.44c2.34-.08,6-.54,7.92-.26C1141.78,166.74,1142.46,164.33,1140.87,164.09Z"/><path class="cls-2" d="M1103.41,198.64c.58-8.39-11.3-11.76-16.22-5.5-3.29,4.17-1.07,10.4,3.28,12.88,5.34,3.05,11.94-1.46,12.9-7,.27-1.57-2.14-2.25-2.41-.66-.89,5.18-7.16,8.41-11.08,4-2.47-2.77-2.45-7.17,1-9,4.26-2.33,10.44,0,10.08,5.35C1100.8,200.24,1103.3,200.24,1103.41,198.64Z"/><path class="cls-2" d="M1141.14,199c.58-8.39-11.3-11.76-16.22-5.5-3.29,4.17-1.07,10.4,3.28,12.88,5.34,3.05,11.94-1.46,12.9-7,.27-1.57-2.14-2.25-2.41-.66-.89,5.18-7.16,8.41-11.08,4-2.47-2.77-2.45-7.17,1-9,4.26-2.33,10.44,0,10.08,5.35C1138.53,200.64,1141,200.63,1141.14,199Z"/><path class="cls-2" d="M1092.74,316.06c.69,2.09,2.8,7.29,1.82,9.3-1.12,2.3-7.07,1.9-9.81,2-6.43.32-15.41,1-21.51-1.36-1.88-.71-2.73-.67-3.13-3.21a10.68,10.68,0,0,1,1.29-5.72c2-4,5.86-6.37,10-7.73,8.35-2.73,17.6-2.67,21.34,6.67.59,1.47,3,.83,2.41-.66-4.16-10.38-13.74-11.57-23.64-8.65-9.33,2.75-15.48,10.15-13.39,20.11a1.22,1.22,0,0,0,.87.87,102.05,102.05,0,0,0,37,.94,1.27,1.27,0,0,0,.92-1.21c.48-4.13-.45-8.17-1.75-12.07C1094.64,313.88,1092.23,314.53,1092.74,316.06Z"/><path class="cls-2" d="M1076.19,306.13c-7.72-11.9-7.65-27.48-6.72-41.17,1-14.6,4.61-28.88,11.6-41.78.77-1.41-1.39-2.68-2.16-1.26-7.2,13.29-10.91,28-11.94,43-1,14.1-.9,30.17,7.06,42.43.87,1.34,3,.09,2.16-1.26Z"/><path class="cls-2" d="M1090.87,223.1a100,100,0,0,0-4.65,84.93c.59,1.47,3,.83,2.41-.66a97.65,97.65,0,0,1,4.4-83c.76-1.42-1.4-2.68-2.16-1.26Z"/><path class="cls-2" d="M1070.93,298.46a10.73,10.73,0,0,0,11.15-.18c1.36-.85.11-3-1.26-2.16a8.19,8.19,0,0,1-8.62.18,1.25,1.25,0,0,0-1.26,2.16Z"/><path class="cls-2" d="M1069.52,288.26a10,10,0,0,0,11.17,1.2c1.43-.74.16-2.9-1.26-2.16a7.41,7.41,0,0,1-8.14-.81c-1.23-1-3,.75-1.77,1.77Z"/><path class="cls-2" d="M1068.76,274.63a10.13,10.13,0,0,0,11.14,2.77c1.49-.57.84-3-.66-2.41a7.71,7.71,0,0,1-8.71-2.13c-1.07-1.21-2.83.57-1.77,1.77Z"/><path class="cls-2" d="M1068.51,260c3.33,2.4,7.26,4.58,11.28,2.4,1.42-.77.15-2.93-1.26-2.16-3.11,1.68-6.28-.62-8.75-2.4-1.31-.94-2.56,1.22-1.26,2.16Z"/><path class="cls-2" d="M1070.67,246a9.78,9.78,0,0,0,11.66,2.07c1.44-.72.17-2.88-1.26-2.16a7.23,7.23,0,0,1-8.63-1.68c-1.09-1.19-2.85.58-1.77,1.77Z"/><path class="cls-2" d="M1076.13,231.7a16.51,16.51,0,0,0,10.22,4.35c1.61.11,1.6-2.39,0-2.5a13.73,13.73,0,0,1-8.45-3.62c-1.19-1.08-3,.68-1.77,1.77Z"/><path class="cls-2" d="M1135.18,315.84c-1.38,3.89-2.39,7.89-2,12a1.28,1.28,0,0,0,.92,1.21,102.32,102.32,0,0,0,37-.18,1.22,1.22,0,0,0,.87-.87c2.21-9.53-3.32-17-12.23-20.12-9.7-3.37-20-2.76-24.45,7.64-.62,1.46,1.53,2.74,2.16,1.26,3.73-8.76,11.82-9.43,20.08-7,3.77,1.12,7.46,2.89,9.87,6.09,1.9,2.52,4.58,8.43,1.13,10.93-2.13,1.54-8.36,1.13-11.13,1.28a97,97,0,0,1-11.54-.06c-2-.13-9.14.22-10.33-1.57s1.34-8,2-10C1138.13,315,1135.72,314.33,1135.18,315.84Z"/><path class="cls-2" d="M1156.48,308.24c8.21-12.09,8.6-28.16,7.94-42.28-.71-15.06-4.12-29.84-11-43.28-.74-1.43-2.89-.17-2.16,1.26,6.72,13,10,27.4,10.7,42,.65,13.71.38,29.28-7.6,41-.91,1.33,1.26,2.59,2.16,1.26Z"/><path class="cls-2" d="M1139.24,224.87a97.51,97.51,0,0,1,2.76,82.78c-.63,1.46,1.53,2.74,2.16,1.26a100.21,100.21,0,0,0-2.76-85.31c-.73-1.43-2.89-.17-2.16,1.26Z"/><path class="cls-2" d="M1158.52,297.22a8.19,8.19,0,0,1-8.62-.39c-1.35-.89-2.6,1.28-1.26,2.16a10.73,10.73,0,0,0,11.14.39c1.41-.77.15-2.93-1.26-2.16Z"/><path class="cls-2" d="M1159.63,287.44a7.43,7.43,0,0,1-8.16.61c-1.41-.77-2.68,1.39-1.26,2.16a10,10,0,0,0,11.19-1c1.27-1-.51-2.75-1.77-1.77Z"/><path class="cls-2" d="M1160.68,273.83a7.71,7.71,0,0,1-8.75,1.92c-1.49-.6-2.14,1.81-.66,2.41a10.13,10.13,0,0,0,11.19-2.56c1.09-1.18-.67-3-1.77-1.77Z"/><path class="cls-2" d="M1161.75,258.79c-2.53,1.74-5.71,3.95-8.8,2.19a1.25,1.25,0,0,0-1.26,2.16c4,2.25,8,.13,11.32-2.19,1.32-.91.07-3.08-1.26-2.16Z"/><path class="cls-2" d="M1159.38,245.12a7.22,7.22,0,0,1-8.67,1.46c-1.42-.75-2.69,1.41-1.26,2.16a9.79,9.79,0,0,0,11.69-1.86c1.11-1.16-.65-2.93-1.77-1.77Z"/><path class="cls-2" d="M1154.22,230.75a13.73,13.73,0,0,1-8.53,3.42c-1.6.07-1.61,2.57,0,2.5a16.52,16.52,0,0,0,10.3-4.16c1.21-1.06-.56-2.82-1.77-1.77Z"/><path class="cls-2" d="M86.68,137.76c2.78,5.29,9.49,6,14.18,2.82,1.82-1.23.59-3.13-1.24-1.88-3.56,2.42-8,.67-9.93-2.92-.69-1.32-3.73.6-3,2Z"/><path class="cls-2" d="M109.45,148.59a1.88,1.88,0,0,1-.31,1.32c-.11.17-.74.67-.58.63s-.37-.11-.48-.15a2.89,2.89,0,0,1-1.79-1.69c-.66-2.09,2.66-1.68,3.16-.12.17.54,2.48-.12,2.32-.62-.53-1.65-2.73-1.89-4.19-1.65-1.3.21-4,1-3.66,2.79s2.42,2.5,3.92,2.35c1.76-.18,4.19-1.39,3.93-3.49C111.71,147.51,109.37,148,109.45,148.59Z"/><path class="cls-4" d="M87.23,169.53"/><path class="cls-5" d="M15.36,296.62c2.25,3.85,3.4,5.1,5,6,4.88,2.73,8.42-.86,20.77-2.38,6.58-.81,14.78-.93,19.32.3.42.11,2.87.79,6.18,1.35a26.68,26.68,0,0,0,4.18.53c1.93,0,2.61-.36,3.78.16s1.51,1.35,2.31,1.2,1.67-1.32,1.67-1.32a2.53,2.53,0,0,0,2,.28c1-.36,1.06-1.41,2.12-1.68.76-.19,1.23.23,1.62-.1s.32-.94.22-1.45a5.16,5.16,0,0,1,2.34-.13h0a5.08,5.08,0,0,0,.83.49,2.47,2.47,0,0,0,1.73,0,3.42,3.42,0,0,0,1.34-1.21,4.57,4.57,0,0,0,1.8.17c.34-.11.78-.42,1.15-1.36a2.11,2.11,0,0,0,1.41-.68c1.47-1.76-2-5.38-2.5-12.19a11.06,11.06,0,0,1,0-2.26c.29-2.64,1.86-5,4.85-11.41,1.29-2.75,8.66-18.73,10.34-37a37.42,37.42,0,0,0,.14-5.71c0-2.65.13-4.68.19-5.55.16-2.28.3-13,.34-42.26l-1.35-.18a28.59,28.59,0,0,0,5.66-4.81,31.06,31.06,0,0,0,6.8-12.6c2.56-9.19-1.43-11.14.1-20.15,2.07-12.22,10.93-17.78,7.7-23.83a7.14,7.14,0,0,0-2.4-2.6s-4.23-2.7-24.45,6.77c0,0-5.09-1.59-7.34-2.17-9.62-2.47-19.88,0-19.88,0-19.83-10.51-21.71-8.64-21.71-8.64-2.23,2.22,3.86,9.48,3.42,22.9,0,.78-.07,1.43-.09,1.7-.63,9.06-3.6,14-4.53,17.38-1.61,5.85,1.16,13.26,6.12,19.43l-2.05-.27c-2.14,2.71-2.64,5.24-3.32,7.76C42.7,212.3,11.07,218.17,5.07,247.79A59.39,59.39,0,0,0,4.57,266C6,280.68,11.54,290.1,15.36,296.62Z"/><path class="cls-5" d="M65.58,308.44c-13.54,1.42-20,3.59-33.89,2.76-8.81-.53-18.59-2.15-21.84-8.48-.34-.67-.7-1.44-1.47-5.16-2.72-13.32-1.94-20.82-2.59-20.88-1.29-.13-12.6,28.65.38,43.51,5.8,6.63,14.73,8.53,18.52,9.34,10.15,2.16,19-.1,24.36-1.49,6.87-1.77,9.91-3.74,20.87-6.35a82.06,82.06,0,0,1,8.57-1.78c22.47-2.38,39.5,9.94,42.09,5.67,1.12-1.85-1.65-6.34-4.73-9.46C104.48,304.62,84.06,306.5,65.58,308.44Z"/><path class="cls-2" d="M119,139.9a24.79,24.79,0,0,1,10.43-5.28c1.65-.38-1.74-1.16-2.46-1a26.94,26.94,0,0,0-11.4,5.66c-.35.3,2.67,1.26,3.43.61Z"/><path class="cls-2" d="M65.11,129.75a24.5,24.5,0,0,1,8.55,7.6c.68,1,4.05-.19,3.23-1.37a25.79,25.79,0,0,0-9-7.93c-1-.55-4.21.93-2.76,1.7Z"/><path class="cls-2" d="M97.4,165.7c.13,1-.66,2.09-1.73,1.6a2.54,2.54,0,0,1-1.49-1.7c-.24-1.87,2.81-1.17,3.22.1.24.73,2.54.08,2.32-.62-.54-1.67-2.72-2-4.23-1.8s-3.94,1.12-3.62,2.94,2.43,2.6,4,2.48c1.84-.14,4.16-1.53,3.89-3.62C99.64,164.39,97.3,164.89,97.4,165.7Z"/><path class="cls-4" d="M75.19,186.64"/><path class="cls-6" d="M62.75,184.29c-4.13,6-4.87,13.93-8.62,20.33-3.55,6.07-8.29,11.26-13.32,16.12C32,229.28,22.06,237.2,16.68,248.52c-6.25,13.14-5.37,29.32-1,42.91a82.27,82.27,0,0,0,7.62,16.43c2.11,3.61,4.42,7.75,8.76,8.94s9.48-1.22,13.79-2.11c8.09-1.68,17-2.41,25.1-.55a58.37,58.37,0,0,0,9,1.74c2.36.16,5.25,1.66,7.44,1.41,2.78-.31,5.67-2.44,8-3.48.17-.08.3-1,.14-.92.77-.23,1.57.5,2.39.52a10,10,0,0,0,4.81-1c2.5-1.25,4.05-2.42,3.55-5.37-.58-3.4-2.48-6.27-2.64-9.87s1.47-6.25,3-9.31a135.87,135.87,0,0,0,6-14.08c9-25.49,6.81-53.77,6.85-80.41,0-1.26-2.77-3.46-2.77-1.75,0,21.89,2.09,46.43-3.14,67.9A121.5,121.5,0,0,1,107,279.09c-1.89,4.36-5.06,8.71-6,13.4a17.87,17.87,0,0,0,.47,7.34c.59,2.51,3,6,.85,8.23-2.45,2.5-6.1,1.25-9.07,1.94-.48.11-.51.59-.48,1,0,.55-5.27,1.91-4.86,2-.23-.07-.69-.18-.9.05-.94,1.09-4.07-.16-5.62-.26a62.1,62.1,0,0,1-10.54-1.44,57.36,57.36,0,0,0-18.25-.93c-6.26.55-12.26,3.1-18.43,3.56-6.83.52-10.55-9.3-13-14.6C14.48,285,12.26,266.31,19,251.53c5.23-11.49,15.25-19.41,24.1-28a83.64,83.64,0,0,0,12.47-14.63,52.44,52.44,0,0,0,5.2-10.5c1.47-4.07,2.11-8.14,4.6-11.77.73-1.07-1.72-3.66-2.62-2.34Z"/><path class="cls-2" d="M79.53,194.68c-9-4.56-18.07-14.22-18.26-24.86-.07-4.19,2.12-7.88,3.29-11.79a44.16,44.16,0,0,0,1.72-15.31,57.58,57.58,0,0,0-2.86-13.3c-.31-1-.41-2.61-.94-3.49-.9-1.48-.06-.83-1.06-.85,2.09,0,4.43,1.25,6.31,2,1.7.69,3.36,1.45,5,2.23,2.6,1.23,6,4,8.74,4.41,1.92.26,4-.52,5.92-.74,6.65-.75,12.76.28,19.11,2.19,2.91.87,3.41.81,6.34-.48,4.7-2.08,9.54-4.21,14.58-5.31,4.77-1,9.75-.14,8.17,6.58-.89,3.78-3.76,7.15-5.38,10.63a29.42,29.42,0,0,0-3,13.89c.29,5.38,1.66,9.9,0,15.32A29.28,29.28,0,0,1,117,190.94c-9.74,7.34-26.48,8.43-37.49,3.74-.91-.39-4.09,1-2.8,1.55,18.48,7.87,46,1.08,53.35-19a25.94,25.94,0,0,0,1.15-13.57c-1.22-7.69.57-14.2,4.23-20.95,2.33-4.3,7.34-13-.28-15.42-5.35-1.72-13.21,2-18,3.85-1.72.68-3.82,2.06-5.62,2.39l-.34.69-1.89-.58c-1.83-.25-3.66-1.14-5.47-1.58-6.59-1.58-12.4-.23-18.91-.29-2.6,0-1.86.18-4.5-1.58a54.8,54.8,0,0,0-8.8-4.17c-2.49-1.06-5.3-2.41-8-2.63s-4.66.52-4.6,3.48c0,2.3,1.43,4.87,2.05,7.06a46.32,46.32,0,0,1,1.75,9.72c.52,8.17-2.09,14.49-4.28,22-3.66,12.64,7.82,25.27,18.2,30.55C77.62,196.68,80.82,195.34,79.53,194.68Z"/><path class="cls-6" d="M95.45,247.87c-.81,15.09-1.51,30.24-3.12,45.27-.47,4.34-4.31,17,1.54,18.37.56.13,2.59-.76,1.9-.93-5.33-1.28-1.3-16.13-.89-20.34,1.4-14.29,2.12-28.65,2.89-43,0-.38-2.28-.09-2.32.62Z"/><path class="cls-6" d="M85.32,314.26c-9.22-23.91-19.61-48.91-17.35-75,.08-.93-2.25-.5-2.32.29-2.27,26.26,8.08,51.3,17.36,75.36.31.81,2.61.13,2.32-.62Z"/><path class="cls-6" d="M54.45,256.61A16,16,0,0,1,66,263.67c.55.82,3.73-.55,3.48-.93a16.79,16.79,0,0,0-12.14-7.44,4.23,4.23,0,0,0-2.43.46c-.2.12-1.26.76-.44.86Z"/><path class="cls-6" d="M74.54,294.71a11,11,0,0,1-8.36,9c-.49.1-1.7.61-1.52,1.29s1.51.46,2,.36A14.41,14.41,0,0,0,78,294.25c.24-1.26-3.25-.68-3.47.46Z"/><path class="cls-6" d="M72.82,301.79c1.87-.43,3.49.21,5.27.75,1.11.34,4.07-1.3,2.13-1.89a14,14,0,0,0-7.87-.6c-.51.12-1.7.63-1.51,1.34s1.49.51,2,.4Z"/><path class="cls-6" d="M94.62,168.59l-.06,5.26c0,1.27,2.34,1,2.36-.15l.06-5.26c0-1.27-2.34-1-2.36.15Z"/><path class="cls-6" d="M101.35,177.35c-1.12-2-2.41-3.39-4.7-3.73-2.52-.38-5,2.06-6.16,4.06-.64,1.11,1.71,1.12,2.21.25.78-1.36,2.25-3,3.94-2.42,1.27.47,1.95,1.72,2.59,2.85.5.89,2.71,0,2.12-1Z"/><path class="cls-2" d="M123.83,328.89c.9,1,6.52,6.89,4.13,8.29-.76.44-3.67-.82-4.4-1-4.26-1.26-8.45-2.69-12.77-3.73A64.4,64.4,0,0,0,80,332.28c-9.18,2.2-17.88,6-27.14,7.83-11.59,2.31-27.21.8-35.56-8.7-6.65-7.56-6.78-18.67-5.16-28.07A55.94,55.94,0,0,1,15,292.69c.13-.32,1.45-2.69,1.35-3,0,0-2-.75-2.57-.2-.22.23.22,1.65.17,2.11-.49,4,.66,9.07,1.26,13,.65,4.18,1,9.24,3.78,12.69,5.72,7.1,18,7.28,26.24,7.41,13.09.21,26.07-2.77,39.09-3.83,13.54-1.11,29.18-1.69,39.74,8.32,1.13,1.07,4.14-.63,2.68-2-17.45-16.54-48.14-8-69.13-5.64-9.78,1.12-32.67,3.23-37.06-8.7-2.18-5.91-2.58-13.11-3-19.37-.09-1.49.38-4.61-.9-5.74-.56-.49-1.51-.26-2.11,0-2.07.79-2.91,4.6-3.52,6.39a60.65,60.65,0,0,0-3.23,17.23c-.49,14.14,5.91,25.51,19.77,30,12.94,4.18,25.93,2.1,38.5-2.26,7.93-2.75,16.4-5.6,24.83-6,8.88-.45,17.5,1.47,25.93,4.07,3.5,1.08,9,3.87,12.77,2.44,5.88-2.24-.32-9.61-2.63-12.12C125.94,326.18,122.64,327.6,123.83,328.89Z"/><path class="cls-2" d="M89,169.73a93.27,93.27,0,0,0-41.77-3.61c-1.17.17-1.87,1.65-.28,1.42a90.63,90.63,0,0,1,40.66,3.55c.82.26,2.72-.94,1.39-1.36Z"/><path class="cls-2" d="M101.48,172.5a90,90,0,0,1,40.46-1.84c.83.15,2.74-1.12,1.39-1.37a93.89,93.89,0,0,0-42.2,1.9c-1.4.38-1.06,1.7.35,1.31Z"/><path class="cls-2" d="M102.18,174.61a90.72,90.72,0,0,1,40.3,6.38c1,.39,2.7-1,1.34-1.54a93.35,93.35,0,0,0-41.43-6.51c-1.29.09-1.8,1.77-.21,1.66Z"/><path class="cls-2" d="M88.61,172.4A94.16,94.16,0,0,0,46.83,179c-1.5.61-.13,1.3.9.88a89.92,89.92,0,0,1,40-6.26c.85.06,2.47-1.15.92-1.25Z"/><path class="cls-2" d="M60.67,189.09c15.84,17.14,38.88,18.26,58.48,6.66,2-1.19-1-1.84-2.19-1.14-18.18,10.77-38.65,8.69-53.07-6.91-.87-.94-4.18.35-3.22,1.39Z"/><path class="cls-2" d="M95.7,208.08c-.11,2-1.45,4.17-3.78,3.91a4.22,4.22,0,0,1-3.55-4.11A3.71,3.71,0,0,1,91.76,204c2.24-.06,3.82,2,3.93,4.11.06,1.16,2.39.76,2.34-.2-.4-7.42-11.93-7-12,.2-.09,7.51,11.64,7,12-.2C98.1,206.73,95.75,207.1,95.7,208.08Z"/><path class="cls-2" d="M107.29,154.78a25.43,25.43,0,0,0,15.2-2.25c1.2-.58.11-1.28-.78-.85a22.1,22.1,0,0,1-13.25,2c-.65-.1-2.27.92-1.17,1.09Z"/><path class="cls-2" d="M89.58,152.73A22.57,22.57,0,0,1,76,150.45c-.59-.3-2.35.55-1.53,1a24.83,24.83,0,0,0,14.82,2.44c1-.13,1.58-1.31.25-1.13Z"/><path class="cls-7" d="M571.36,175a4.5,4.5,0,0,0-1.25-1.25c-2.44-1.62-5.45-2.61-7.14-5a31.61,31.61,0,0,1-1.85-3.72,21.58,21.58,0,0,0-9-8.7,19.1,19.1,0,0,0-9.21-1.8l-.26-.17a14.68,14.68,0,0,0-3.24-1.41c.33-3.28.8-8.46,1.12-11.64-.49-.61-1.54,2.31-1.86,3l-3.54,7.88h-.26c-1.12-2.9-.92-6.48-1.61-9.67-.34-1.58-1.28-3.36-2.62-3.13-.92.15-1.6,1.35-2,2.16-1.82,3.9-4,11.33-5.27,15.81h0l.12-.43-.27.64c-2.38,3.37-3.23,7.72-5,11.56-11.23,24.9-59.14,27-67.24,27.18-5.28.13-11.59-.53-24.21-1.86-5.46-.58-14.47-1.63-24.22-2.92-.65-1.43-5.5-2.06-14.75-3.21-8.53-1.05-15.7-1.94-22-2.47-1.8-.24-4-.48-6.44-.61a90.72,90.72,0,0,0-12.52.3,29.51,29.51,0,0,0-5,1,48.24,48.24,0,0,0-8.31,2.58c-9.32,3.83-15.83,9.51-23.09,17.42-.81.75-1.26,1.2-1.26,1.2-34.18,33.95-31.44,47.58-52.23,56.16a93.82,93.82,0,0,1-32.16,6.92c-2.48,0-4.78-.13-6.9-.3-1.82-.47-3.71-.9-5.66-1.24s-5.1-.79-6.91.18a1.21,1.21,0,0,0-1,.63,1,1,0,0,0,0,.23,3.67,3.67,0,0,0-.23,2.81c1,3.68,6.49,5.38,10.76,6.43a45.84,45.84,0,0,0,8.83,3.55c4.29,1.2,13.44,3,29.37-2.27a62.32,62.32,0,0,0,8.74-3.33c.82-.35,1.65-.72,2.5-1.11,31.07-14.16,30-28.73,46.19-29.8a22.05,22.05,0,0,1,7.71.78c-1.12,2.81-4.09,4.35-6.83,5.65l-13.82,6.56c-1.74.82-3.55,1.72-4.64,3.3-1.28,1.88-1.28,4.32-1.22,6.59q.35,15,.71,30.06a41.79,41.79,0,0,1-.54,9.8c-.75,3.48-2.4,6.83-2.26,10.39s3.18,7.4,6.63,6.54c2.43-.6,3.8-3.16,4.61-5.54,3.25-9.55,2.33-19.93,2.59-30,.06-2.41.23-4.94,1.55-7,2-3,5.83-4,9.35-4.61q10-1.87,20.17-2.88l-10.33,2.78c-3.6.29-6.15,4.16-6,7.77s2.47,6.8,5.17,9.21,5.87,4.22,8.66,6.52c4.91,4,8.58,9.51,13.82,13.12s13.21,4.72,17.45,0a4.54,4.54,0,0,0,1.17-2.12c.35-1.85-1.15-3.65-2.93-4.27a11.12,11.12,0,0,0-5.58,0,5.86,5.86,0,0,1-3.31-.05,5.67,5.67,0,0,1-1.78-1.44L342.77,299c-2.75-2.93-5.71-6.65-4.64-10.51.76-2.73,3.32-4.51,5.7-6.05l18.8-12.18h0c1.69.2,12.34.57,33.65,1.32,15.05.53,16.57.5,18.58.38a99.22,99.22,0,0,0,11.74-1.42,115.38,115.38,0,0,0,16.49-3.47,6.6,6.6,0,0,1,3.55,1q-7.24,21.45-12.65,43.46c-.68,2.79-1.34,5.77-.38,8.48a12.67,12.67,0,0,0,3.07,4.44c1.89,1.94,4.31,3.8,7,3.54a3.64,3.64,0,0,0,1.51-.52c1.57,1.21,4,.33,5.69-.8a7.76,7.76,0,0,0,2.56-2.4,3.15,3.15,0,0,0,0-3.35,4.79,4.79,0,0,0-2.73-1.5l-3.61-1,.41-2.82L492,263.67a54,54,0,0,0,8.59,9.09c5.55,4.76,12.06,8.46,16.8,14,5.55,6.51,8.36,15.2,14.74,20.9,4.95,4.41,12.57,6.38,18.4,3.56l.39.3a3.65,3.65,0,0,0-.08-.45,12.09,12.09,0,0,0,1.38-.82c.68-.48,1.37-1.18,1.26-2a2.07,2.07,0,0,0-.72-1.16c-3.38-3.16-9.44-1.53-12.84-4.67a11.65,11.65,0,0,1-2.15-3.11L520.05,266.6a12.32,12.32,0,0,1-1.82-9.54l2.39-21.2c3.22-3.42,7-7.6,12.26-13.43,10.56-11.71,13.63-18.8,14.72-21.61h.07a25.82,25.82,0,0,0,7.47.13,20.62,20.62,0,0,0,6.3-2.41C570.09,193.38,575.13,179.88,571.36,175ZM450.44,295.61h0Z"/><path class="cls-2" d="M455,330.07a40.94,40.94,0,0,1,5.29-22.28c4.05-6.92,10.28-12.15,15.09-18.51,4.18-5.54,6.2-12,12.4-15.77,5.53-3.35,12-4.63,17.93-7.19,11.91-5.16,19.19-14.48,26.2-25s13.65-20,23.3-28.26c1.71-1.45-2-1.86-3.08-.91-9,7.68-15.37,16.35-21.92,26.12-4.85,7.24-9.39,14.86-16.35,20.31-6,4.71-12.81,6.9-19.86,9.49-4.89,1.8-9.84,3.91-13.53,7.71-4.67,4.82-7.06,11.52-11.52,16.64-10.07,11.57-18.25,21.77-17.74,38,.06,1.81,3.81,1.13,3.77-.36Z"/><path class="cls-2" d="M466.3,245a544.73,544.73,0,0,0-24.46,73.88c-1.12,4.42-2.8,9.23-.69,13.59,1.55,3.19,5.05,6.63,8.57,7.51,4.66,1.17,10.33-3,7.44-7.83-.91-1.52-4.45-.06-3.41,1.68l-5.27,1.71a14.31,14.31,0,0,1-3-3.22,13.18,13.18,0,0,1-1.23-8c.43-3.48,1.72-7.09,2.6-10.47q3.23-12.31,7.05-24.45c4.68-14.87,10-29.51,16-43.92.83-2-2.92-2.12-3.59-.5Z"/><path class="cls-2" d="M452.39,329.65l4.42,1.27c1.08.31,3.13.54,3.81,1.6,1.57,2.43-3.31,6.18-5.35,4.58-1.16-.92-4.52.76-2.92,2,3.47,2.73,9.82-.5,11.71-3.89,3.22-5.77-6-6.91-9.48-7.91A2.73,2.73,0,0,0,452,328c-.51.63-.43,1.38.44,1.62Z"/><path class="cls-2" d="M528,243.82c-.92,8.17-2,16.35-2.76,24.55-.59,6.73,2.84,11.41,6,17.17l11.2,20.72c3.12,5.77,4.64,8.75,11.27,10.05,1,.19,2.59.18,3.46.72q-3,6.52-7.44,4.73a9.26,9.26,0,0,1-2.43-1,22.38,22.38,0,0,1-8.35-7.23c-3.6-4.77-6-10.32-9.68-15-4.5-5.81-10.71-9.61-16.35-14.16a56.19,56.19,0,0,1-13.75-16c-.55-1-4.08.4-3.74,1,8.73,15.25,25.55,21.95,34.52,36.92,6.29,10.49,15.7,22.2,29.46,16.53,3.47-1.43,6.84-4,2.39-6.63-3.43-2.05-8.07-.81-11.22-3.59-3.68-3.25-6.23-10.71-8.53-15l-7.66-14.18c-1.86-3.44-4.61-7.08-5.4-11s.42-8.51.87-12.47l1.93-17.18c.06-.55-3.61-.18-3.74,1Z"/><path class="cls-2" d="M458.35,270.7c-13.34,1.54-26.71,2.74-40.12,3.51q-10.05.58-20.12.86c-5.89.16-18.52,2.51-23.48-1.66-1.11-.93-4.61.56-3.45,1.53,4,3.34,8.46,2.76,13.43,2.7,7.71-.09,15.42-.27,23.13-.6,16.77-.71,33.5-2.08,50.18-4,1.92-.22,3-2.62.44-2.32Z"/><path class="cls-2" d="M374,278.4l-17.61,11.41c-3.35,2.17-7.8,4.21-10.13,7.61-2.77,4-.56,8.15,2.2,11.51,1.94,2.37,4.19,4.52,6.28,6.76,1.45,1.54,3.13,4.16,5.17,5a9.8,9.8,0,0,0,2.7.33c2.7.31,1.29-.45,5.29.91,5.52,1.88,3.76,3.7-1,5.26s-7.23,1-11.27-2a54.1,54.1,0,0,1-6.92-6.54c-4.06-4.27-8.48-7.44-13.05-11.09-2.61-2.08-5.13-4.59-6.18-7.83s-.44-8.33,3.71-9.27c2.21-.5,1.88-1.74-.33-1.24-3.83.86-7,3.13-7.58,7.34-1,7.23,6.35,11.86,11.26,15.46,9.64,7.07,17.52,21.87,31.62,17.68,2.91-.86,7.35-3.21,6.94-6.78-.75-6.5-9.33-2.44-12.77-4.25-3.14-1.65-6.66-6.84-9-9.53-4.43-5.09-6.88-9.89-.69-14.87,7.37-5.92,16.29-10.59,24.23-15.73,1.56-1-2.16-.63-2.88-.17Z"/><path class="cls-2" d="M370.3,275.3c-4.61,12.28-22,10.25-32.93,11.64-6.75.86-16.09,1-22.07,4.87s-4.84,11.08-4.87,17.27,0,12.31-1.3,18.32c-.34,1.55-.79,4.53-1.78,5.89-3.81,5.25-6.24.71-6.84-2.45C299.6,326,303,320,303.2,315c.23-4.62-.1-9.3-.21-13.92l-.38-16.28c-.06-2.47-.52-5.83,0-8.23.86-4.13,5-5.76,8.47-7.39,5.48-2.6,16.28-5.33,18.16-12.17,1-3.6,0-8.28-.25-11.93l-1.1-17.24c-.06-1-3.82-.25-3.74,1l1.26,19.7c.19,3,1,7-.08,9.85-1.46,3.7-7.42,5.65-10.73,7.22-7.9,3.75-15.72,5.31-15.82,15.17-.07,6.67.32,13.37.47,20,.15,6.42,1,13.29-.29,19.6-1.08,5.33-5.43,16.61,3.81,17.66,6.54.74,9-6.21,10.11-11.28a71.93,71.93,0,0,0,1.3-14.07c.06-3.12,0-6.25,0-9.37.19-7-.12-9.68,8.77-12.53,11.05-3.54,23.39-2.24,34.71-4.4,7-1.34,13.72-4.68,16.36-11.72.37-1-3.3-.55-3.71.56Z"/><path class="cls-2" d="M530.45,168c-4.3,10.18-7.08,21.57-17.82,26.61-10,4.67-21.17,6.33-32,7.75-9.64,1.27-19.36,3-29.06,3.72-11.75.82-23.47-1.13-34.91-3.62-18.79-4.07-37.11-9.22-56.55-7.29-16.46,1.63-30.88,7.93-42.13,20.22-5.69,6.22-9.94,13.43-14.69,20.35-5.32,7.74-11,15.18-16.73,22.63-10.77,14.06-23.38,29.28-43,27.85-8.67-.63-15.4-6.5-23.65-7.79-2.81-.44-7.21,0-8.6,3-4.47,9.63,23.59,13.24,28.08,13.62,18,1.52,35.17-5.16,48.77-16.71a113.41,113.41,0,0,0,20.09-23c6.33-9.35,11.57-19.36,19.32-27.68,1.52-1.63-2.11-1.7-3-.72-12.15,13-19.17,29.82-31.33,42.94-13.94,15-32.48,25-53.47,22.87-6.47-.67-16.36-2.2-21.9-6-1.94-1.31-5.49-4.27-.77-6.2,1.67-.68,5,1.59,6.43,2.24,3.12,1.37,6.2,2.81,9.45,3.87,12.2,4,25.65,1.46,36.1-5.8,11.19-7.77,19.16-19.78,27.26-30.47,10.39-13.72,18.49-30.3,32.06-41.23,34.62-27.87,79.14-.17,117.44-.64,9.61-.12,19.13-2,28.64-3.22C483.73,204.1,493,203,502,200.53c6.92-1.88,15.08-4.29,20.36-9.46,6-5.9,8.6-15.95,11.8-23.52.53-1.27-3.2-.86-3.75.43Z"/><path class="cls-2" d="M534.17,166.33a78,78,0,0,1,4-11.78,9.28,9.28,0,0,1,1.14-2.48l-.22-.64a4.71,4.71,0,0,1,1,1.95,25.36,25.36,0,0,1,.73,5.1c.27,2.51.53,6,2.73,7.71,1.88,1.43,4.18.15,6.28.29.89.06,4.29-1.53,2.39-1.65-1.31-.08-3.12.58-4.32.37-2.46-.44-3-4.61-3.21-6.56-.35-2.62.08-8-3.1-9.13-1.94-.7-4.37.68-5.43,2.22-2.92,4.27-4.39,10.27-5.67,15.21-.24.93,3.43.41,3.7-.61Z"/><path class="cls-2" d="M545.17,164.31q1.78-4,3.55-7.91c.36-.8,1-3.23,1.6-3.67l-2.31.44.21.07-.76-.92c-.41,4.11-1,8.25-1.18,12.37-.16,3.09,1.7,5.16,4.85,4.11,2.2-.73,1.68-2.91-.58-2.16-.75.25-.06-7.1,0-7.78.22-2.31.44-4.62.67-6.93.05-.53-.32-.76-.76-.92-1.88-.68-3.26.81-4,2.31-1.75,3.5-3.19,7.2-4.8,10.77-.8,1.78,2.94,1.51,3.52.23Z"/><path class="cls-2" d="M540.49,207.39c7.09,4.58,16.92,7.65,25.34,5.38,9.88-2.67,12.66-10.57,14.93-19.6.92-3.67,2.88-6.9-.38-9.74-2.78-2.43-5.58-3.08-7.71-6.41-1.47-2.31-2.48-4.64-4.45-6.65-5.69-5.82-13.66-7.63-21.49-5.69-2.34.58-1.6,3.32.73,2.74a18.18,18.18,0,0,1,19.16,6.76c1.81,2.41,2.55,5.54,4.77,7.65,2.91,2.77,6.21,3.23,6.42,8.15.12,2.8-1.71,7.35-2.61,9.88-1.45,4.11-3.68,7.55-7.84,9.36-7.62,3.31-17.41.19-24-4.08-1.48-1-4.69,1.06-2.86,2.25Z"/><path class="cls-2" d="M376.81,278.68l1.57-2.35c.51-.76-.44-1.29-1.08-1.35a2.74,2.74,0,0,0-2.45,1.09l-1.57,2.35c-.51.76.44,1.29,1.08,1.35a2.74,2.74,0,0,0,2.45-1.09Z"/><path class="cls-2" d="M579.63,184.72a5.58,5.58,0,0,0-6.13,2.65c-.19.4.42.68.7.71a6.85,6.85,0,0,1,2.83.86c.95.52,2.57-.15,3.23-.86a1.79,1.79,0,0,0-.11-2.62c-1.22-.93-3.09-.5-4.3.19-.49.27-1.13,1-.36,1.35a3.27,3.27,0,0,0,2.64-.38q-2.26,0-1.44.29a.14.14,0,0,1,.11.07c.08.19.14.14.2.36a.73.73,0,0,1-.2.73l3.23-.86a8.77,8.77,0,0,0-3.51-1.05l.7.71a2.27,2.27,0,0,1,.24-.34c.21-.28.16-.06,0-.05a1.78,1.78,0,0,0-.42.1H577l.35.08a3.33,3.33,0,0,0,2.64-.71c.62-.53.4-1-.33-1.21Z"/><path class="cls-2" d="M560,180.6c.52-.69,2.4-.63,3.36-.7a35.17,35.17,0,0,0,4.17-.39c.69-.13,1.78-.85,1.55-1.68s-1.51-.8-2.18-.68c-3.1.57-7.78-.42-10,2.49-1.41,1.85,2.14,2.21,3.09,1Z"/><path class="cls-2" d="M307.05,336.08a12.57,12.57,0,0,0,.37-6.28c-.28-1.48-4-.55-3.74,1a11.26,11.26,0,0,1-.39,5.67c-.28.86,1.15,1,1.66,1a2.35,2.35,0,0,0,2.1-1.38Z"/><path class="cls-2" d="M371.51,277.52c.11,0,.7.11.39,0l.25.07c-.18,0-.13-.08,0,0s.2.16.1.07.08.1.1.12c.15.2.31.39.45.6.88,1.25,4.47-.11,3.44-1.58a4.1,4.1,0,0,0-1.28-1.3,5.3,5.3,0,0,0-2.12-.53,2.61,2.61,0,0,0-2.45,1.1c-.42.81.37,1.33,1.09,1.4Z"/><path class="cls-2" d="M369.76,278.18a4.69,4.69,0,0,1,1.95,1.31c.9,1,4.48-.36,3.46-1.49a6.2,6.2,0,0,0-2.45-1.69,3,3,0,0,0-2.65.33c-.45.29-1.18,1.21-.31,1.53Z"/><path class="cls-2" d="M305.65,271.45c1.12,0,4.05-1.67,1.58-1.67-1.12,0-4.05,1.67-1.58,1.67Z"/><path class="cls-2" d="M373.22,277.65a32.94,32.94,0,0,0-.51-26.37c-.56-1.25-4.23-.08-3.74,1a32.09,32.09,0,0,1,.51,25.86c-.46,1.13,3.25.71,3.73-.49Z"/><path class="cls-2" d="M462.44,263.17c4.19-5.54,8.89-10.88,12.09-17.09.91-1.76-2.86-1.59-3.54-.28-3.08,6-7.58,11.13-11.63,16.48-1.39,1.84,2.15,2.11,3.07.9Z"/><path class="cls-2" d="M561.61,321.84a4.67,4.67,0,0,0-2.17-3.5,6.21,6.21,0,0,0-4.54-.66c-.45.08-2.11.4-2.2,1s1.2.33,1.48.29a3.91,3.91,0,0,1,2.39,1.14,4.18,4.18,0,0,1,1.31,2.76c0,.59,3.82-.06,3.74-1Z"/><path class="cls-2" d="M484,274.89a35,35,0,0,0-.84-15c-.21-.76-3.95.25-3.74,1a35,35,0,0,1,.84,15c-.05.32,3.56.09,3.74-1Z"/><path class="cls-2" d="M570,185.68a144.31,144.31,0,0,0-40.65,7.73c-2.18.76-.43,4.05,1.43,3.41a141.4,141.4,0,0,1,39.78-7.66c2.43-.12,1.47-3.57-.56-3.47Z"/><path class="cls-2" d="M569.47,189.67a78,78,0,0,0-34.78,14.1c-.09.06,2.86,1.11,3.71.5a75.9,75.9,0,0,1,33.76-13.8c1.65-.25-2-.9-2.69-.8Z"/><path class="cls-2" d="M567.12,183.69c2-1.17,3.17-4,.56-5.44a3.32,3.32,0,0,0-4.68,3.87A3,3,0,0,0,567.12,183.69Z"/><path class="cls-2" d="M88.09,159.63c2-1.17,3.17-4,.56-5.44A3.32,3.32,0,0,0,84,158.06,3,3,0,0,0,88.09,159.63Z"/><path class="cls-2" d="M117.25,159.63c2-1.17,3.17-4,.56-5.44a3.32,3.32,0,0,0-4.68,3.87A3,3,0,0,0,117.25,159.63Z"/></g></g></svg>