<svg xmlns="http://www.w3.org/2000/svg" viewBox="0 0 475.11 266.87"><defs><style>.cls-1{fill:#ccccf2;}.cls-2{fill:#231f20;}.cls-3{fill:#e5a18f;}</style></defs><title>Cat-RobotAsset 6</title><g id="Layer_2" data-name="Layer 2"><g id="OBJECTS"><path class="cls-1" d="M462.59,38a1.34,1.34,0,0,0-.2-.26c-1.9-1.91-6.48-5.55-9.42-4.6s-2.6,5.17-2.84,7.62A1.26,1.26,0,0,0,452,41.83c-.1.06,1.2.62,1.25.64,2.75,1.56,1.34,4.6-1,5.84-2,1.05-5.78.76-7.14-1.25-.83-1.22-1.43-4.85,1.66-4.59A1.26,1.26,0,0,0,448,41.22l.1-6.14a1.28,1.28,0,0,0-1.25-1.25c-6.64-.48-12.71,3.76-13.81,10.51s2.24,11,7.46,13.19A129.69,129.69,0,0,1,436,80.81c-1.94,6.67-4.62,13.51-11.18,16.8a1.07,1.07,0,0,0-.6.72c-.22,0-.43-.06-.66-.08-5.66-.19-11.2.43-16.85.61-1.66.05-3.33,0-5-.06l-.3-6.33c5,.17,10,.21,15,0,7.2-.29,9.33-4.89,9.44-11.56,0-3.25-.16-6.49-.35-9.73h0c1.88-.3,5.5-.06,6.55-2,.67-1.24.19-3.54.17-4.79,0-2.23-.12-4.46-.24-6.68-.34-6.07-2.4-9-8.16-9.19-.09-3.75.09-7.67-.5-11.27-.31-1.9-1-3.14-2.78-3.91-3-1.28-7.49-1.15-10.65-1.42-4.86-.41-9.73-.6-14.6-.69l-3.25,0c0-4.4.26-8.77.56-13.16,2.28.45,5.91,1.58,7.07-.84.59-1.23.52-4.1-.59-5.06-1.3-1.11-4.51-1.19-6.08-1.47-2-.36-4.83-1.11-6.81-.33a4.07,4.07,0,0,0-2.26,4.1c.1,1.83,1.37,2.33,3.06,2.64,1,.2,2.24,0,3.24.26l.36.09c-.22,0-.47,0-.48.26,0,1-.15,2-.22,3.06-.24,3.47-.34,6.94-.36,10.42-7.19,0-14.39,0-21.58,0-6.43,0-10.15,2.11-11.14,8.76a88.43,88.43,0,0,0-.86,9.63c-2.35-.64-5.95-1.88-7.63-.69-2,1.43-1,6.49-1,8.5,0,2.37-.12,4.75-.09,7.13a4.93,4.93,0,0,0,.5,2.85c1.55,2.27,6.47,2,8.83,2h0c.36,5.71.15,15.18,4.82,18.68,2.07,1.55,4.8,1.94,7.29,2.24,4.68.55,9.41.84,14.11,1.14l4.59.3,1,6.24c-5.26-.14-10.53-.12-15.79.21-3.43.22-9.78-.21-12.71,2.06-1.51,1.17-2.05,3-2.3,4.93-8-.94-13.22-7.77-17.6-13.88a131,131,0,0,1-10.72-18,11.48,11.48,0,0,0,2.54-14.63c-3.34-6.36-10.74-8.24-17.05-5.34a1.25,1.25,0,0,0-.57,1.41l2.25,5.71a1.28,1.28,0,0,0,1.84.75q3.44.56,3.12,3.49-1,4.17-4.76,3.85-4.74,1.73-4.4-5.22,1.43-.45.9-.76c1,.09,1.46-1.11,1.08-1.88-1.1-2.23-2.4-6.26-5.47-5.9-2.92.34-5.85,5.07-6.93,7.46h0a1.34,1.34,0,0,0-.13.3,13.24,13.24,0,0,0,16.17,16.65c6.36,17.24,18.36,38.89,38.36,41.62a1.38,1.38,0,0,0,.33,0c-.09,2.1-.17,4.2-.21,6.3a301.25,301.25,0,0,0,1.34,35.77c.72,7.45,0,17.32,8.49,20.11.62.2,1.26.36,1.9.51a82.47,82.47,0,0,0-8.57,31.73c-.79,10.72-.71,22.71,4.78,32.27l-.49.12c-7.71,2.09-12.8,7.91-11.18,16.1a1.22,1.22,0,0,0,.87.87,80.77,80.77,0,0,0,28.82.73,1.27,1.27,0,0,0,.92-1.21,22.8,22.8,0,0,0-1.37-9.43,1.36,1.36,0,0,0-.13-.29,12.44,12.44,0,0,0-4.93-6,75.61,75.61,0,0,1,3.25-63.82c5.79.34,11.6.5,17.4.53s11.86-.08,17.78-.23h.38a75.46,75.46,0,0,1,2.05,63.71,1.39,1.39,0,0,0-.09.32,12.14,12.14,0,0,0-5.09,5.8s0,.06,0,.09a1.39,1.39,0,0,0-.1.21,22.84,22.84,0,0,0-1.56,9.4,1.28,1.28,0,0,0,.92,1.21,80.79,80.79,0,0,0,28.83-.14,1.22,1.22,0,0,0,.87-.87c1.78-8.11-4.13-14.4-11.2-16.62,5.4-9,5.78-20.4,5.39-30.68a82.82,82.82,0,0,0-8-33.29c.18-.07.36-.11.54-.19,2.63-1.17,3.84-3.53,4.3-6.25.92-5.42.09-11.48,0-17q-.37-20.25-.74-40.51c0-2.35.12-5.39,0-8.45h0c17.85-9.6,21.51-34.11,21.4-52.53a13.76,13.76,0,0,0,7.66-3.33A13.72,13.72,0,0,0,462.59,38Z"/><path class="cls-2" d="M435.89,70.9c-.06-10-1.17-20-1.89-30-.32-4.45.11-9.3-.6-13.68-.31-1.9-1-3.14-2.78-3.91-3-1.28-7.49-1.15-10.65-1.42-4.86-.41-9.73-.6-14.6-.69-9.11-.16-18.22,0-27.33,0-6.43,0-10.15,2.11-11.14,8.76-1.39,9.3-1.06,19.19-.29,28.54.46,5.56,0,15.89,4.88,19.58,2.07,1.55,4.8,1.94,7.29,2.24,4.68.55,9.41.84,14.11,1.14,11.1.73,22.44,1.47,33.56,1,7.2-.29,9.33-4.89,9.44-11.56a1.25,1.25,0,0,0-2.5,0c0,2.22,0,4.85-1.28,6.77-1.81,2.67-5.65,2.3-8.35,2.31-4.5,0-9-.08-13.51-.21q-13.51-.4-27-1.55c-5-.43-10.47-.11-12.35-5.84-1.4-4.29-1.44-9.39-1.81-13.89a139.62,139.62,0,0,1,.11-26.93c.35-3.13,1.49-6.28,4.73-7.68,1.9-.82,5.59-.17,7.65-.17,3.93,0,7.87,0,11.8,0,8.26,0,16.53,0,24.77.59,2.39.18,4.78.4,7.16.7,3.73.46,4.94,1.59,5.64,5.42.77,4.23.4,9.12.75,13.43.72,9,1.62,18,1.67,27.09A1.25,1.25,0,0,0,435.89,70.9Z"/><path class="cls-2" d="M367.16,39.86c-2.13-.4-6.77-2.36-8.76-1s-1,6.49-1,8.5c0,2.37-.12,4.75-.09,7.13a4.93,4.93,0,0,0,.5,2.85c1.55,2.27,6.47,2,8.83,2a1.25,1.25,0,0,0,0-2.5c-1.89,0-5.88.34-6.84-1.65-.71-1.47.06-5.41.09-7.13s-.67-5.08.08-6.41q-.33-1.43,1.23-.42l1.32.25c1.32.26,2.64.5,4,.74,1.57.3,2.25-2.11.66-2.41Z"/><path class="cls-2" d="M432.65,41c2.65-.1,5.33-.32,6.55,3,.68,1.86.41,4.66.49,6.64.06,1.53.7,4.53.14,5.94-.84,2.12-3.07,1.85-4.92,2.14-1.58.25-.91,2.66.66,2.41,1.88-.3,5.5-.06,6.55-2,.67-1.24.19-3.54.17-4.79,0-2.23-.12-4.46-.24-6.68-.36-6.49-2.68-9.43-9.4-9.19-1.6.06-1.61,2.56,0,2.5Z"/><path class="cls-2" d="M402.1,22.36c0-5.39.31-10.73.7-16.11a1.24,1.24,0,0,0-.62-1.08c-1-.6-2.54-.3-3.65-.41s-3.07-.61-1.38-2.07c.44-.38,2.14,0,2.68,0a22.86,22.86,0,0,1,6.3,1.14c.72.32,1.91.43,1.37,1.74-.36.87-4.66-.07-5.63-.18-1.6-.17-1.59,2.33,0,2.5,2.11.22,6.57,2,7.88-.71.59-1.23.52-4.1-.59-5.06C407.86,1,404.65,1,403.08.67c-2-.36-4.83-1.11-6.81-.33A4.07,4.07,0,0,0,394,4.44c.1,1.83,1.37,2.33,3.06,2.64,1,.2,2.24,0,3.24.26,1.59.42-.09-.24-.12.35,0,1-.15,2-.22,3.06-.26,3.87-.37,7.73-.37,11.61a1.25,1.25,0,0,0,2.5,0Z"/><path class="cls-2" d="M414,61.17a171,171,0,0,0-27.36-.68,1.27,1.27,0,0,0-1.21.92c-1,7,4.2,6.68,9.59,6.93,3.87.17,7.74.25,11.61.39,1.72.06,3.45.11,5.16.23.95.07,2.67.56,2.41,0,.56,1.26,2.22.45,2.33-.63.26-2.59.73-6.11-2.19-7.07-1.53-.51-2.19,1.91-.66,2.41a8.87,8.87,0,0,1,.36,4.66l2.33-.63c-.65-1.46-4.12-1.18-5.31-1.25-4.36-.26-8.73-.31-13.1-.47-1.32,0-12.31.52-9.48-3.07.94-1.2,11.19,0,12.6,0,4.32.09,8.63.36,12.93.78C415.57,63.82,415.55,61.32,414,61.17Z"/><path class="cls-2" d="M392,47.39c0-2.55.55-4.9.19-7.47a1.39,1.39,0,0,0-1.39-1.47,20.36,20.36,0,0,0-6.32-.17,1.34,1.34,0,0,0-.81.3,1.39,1.39,0,0,0-.29.88,25.89,25.89,0,0,0,.42,8.58,1.22,1.22,0,0,0,1.46,1.16,27.62,27.62,0,0,0,5.57-.36,1.52,1.52,0,0,0,.9-.37A1.57,1.57,0,0,0,392,47.39Z"/><path class="cls-2" d="M416.71,47.65c0-2.55.55-4.9.19-7.47a1.39,1.39,0,0,0-1.39-1.47,20.36,20.36,0,0,0-6.32-.17,1.34,1.34,0,0,0-.81.3,1.39,1.39,0,0,0-.29.88,25.89,25.89,0,0,0,.42,8.58A1.22,1.22,0,0,0,410,49.46a27.62,27.62,0,0,0,5.57-.36,1.52,1.52,0,0,0,.9-.37A1.57,1.57,0,0,0,416.71,47.65Z"/><path class="cls-2" d="M433.59,88.24c-5.66-.19-11.2.43-16.85.61-5.91.19-11.85-.68-17.76-.85-5.43-.15-10.88-.14-16.3.2-3.43.22-9.78-.21-12.71,2.06-2.49,1.93-2.35,5.71-2.58,8.51q-.76,9.16-1,18.36a301.24,301.24,0,0,0,1.34,35.77c.72,7.45,0,17.32,8.49,20.11,3.93,1.29,8.47,1.28,12.55,1.54,6.24.4,12.49.57,18.74.6,5.93,0,11.86-.08,17.78-.23,3.94-.1,9.18.6,12.91-1.06,2.63-1.17,3.84-3.53,4.3-6.25.92-5.42.09-11.48,0-17q-.37-20.25-.74-40.51c-.13-7.24,1.72-21.1-8.18-21.9-1.6-.13-1.6,2.37,0,2.5,1.39.11,4,3.24,4.56,4.27.73,1.45.59,3.4.74,5,.17,1.8.24,3.61.29,5.42.13,4.53.18,9.06.26,13.58l.51,27.66.24,12.84c.11,5.9,1.09,11.47-7,12.63-8.56,1.23-18,.52-26.67.46-8.86-.06-18.24.11-27-1.43a10.12,10.12,0,0,1-5.87-2.63c-2.12-2.17-2.21-5.08-2.58-8-.61-4.8-1.07-9.62-1.43-14.45q-1-13-.81-26.11.08-6.29.42-12.57c.27-5-.63-12.9,4.32-15.84,1.86-1.11,6.86-.77,9.07-.91s4.46-.22,6.7-.26c4.79-.09,9.59,0,14.38.24,5,.26,9.85.87,14.81.57s10-.67,15-.5C435.2,90.79,435.2,88.29,433.59,88.24Z"/><path class="cls-2" d="M397.36,81l1.34,8.39c.25,1.58,2.66.91,2.41-.66l-1.34-8.39c-.25-1.58-2.66-.91-2.41.66Z"/><path class="cls-2" d="M408.9,81.41l.39,8.08c.08,1.6,2.58,1.61,2.5,0l-.39-8.08c-.08-1.6-2.58-1.61-2.5,0Z"/><path class="cls-2" d="M400,86.11l9.85.5c1.61.08,1.6-2.42,0-2.5l-9.85-.5c-1.61-.08-1.6,2.42,0,2.5Z"/><path class="cls-2" d="M314.05,53.5c.71-1.58,2.13-4.38,3.72-5.12,2.57-1.21,3.4,1.61,4.36,3.56l1.08-1.88c-2.44-.22-4.67,3.72-4.62,5.76.11,4.5,5.74,6.25,9.37,5.39,8.47-2,6.83-15.71-.86-12.18l1.84.75c-.73-1.86-2.47-4-.46-5.19,3.13-1.87,8.29,1.29,10.15,3.68a9.87,9.87,0,0,1,1.8,9.17c-1,3.13-3.25,4.66-6,6.31-3.21,1.92-7.07,3.64-10.9,3.37-6.69-.47-11.1-7.69-9.34-13.92a1.25,1.25,0,0,0-2.41-.66,13.74,13.74,0,0,0,7.84,16.23c6,2.39,12.69-.55,17.73-3.91,5.68-3.78,7.9-9.82,4.55-16.2s-10.74-8.24-17.05-5.34a1.25,1.25,0,0,0-.57,1.41l2.25,5.71a1.28,1.28,0,0,0,1.84.75q3.44.56,3.12,3.49-1,4.17-4.76,3.85-4.74,1.73-4.4-5.22,1.43-.45.9-.76c1,.09,1.46-1.11,1.08-1.88-1.1-2.23-2.4-6.26-5.47-5.9-2.92.34-5.85,5.07-6.93,7.46C311.24,53.7,313.39,55,314.05,53.5Z"/><path class="cls-2" d="M327.59,68.23c6.26,17.39,18.34,39.8,38.72,42.58,1.57.21,2.25-2.19.66-2.41-19.48-2.66-31-24.18-37-40.84-.54-1.5-3-.85-2.41.66Z"/><path class="cls-2" d="M336.7,63.56A125.12,125.12,0,0,0,351.22,87c4.34,5.42,9.46,10,16.59,10.73,1.6.17,1.59-2.33,0-2.5-8.07-.88-13.33-7.76-17.73-13.9a132,132,0,0,1-11.22-19c-.71-1.45-2.86-.18-2.16,1.26Z"/><path class="cls-2" d="M332.29,75a14.67,14.67,0,0,0,9-3.65c1.22-1.06-.56-2.82-1.77-1.77a11.86,11.86,0,0,1-7.22,2.92c-1.6.09-1.61,2.59,0,2.5Z"/><path class="cls-2" d="M337.15,82.71a15.52,15.52,0,0,0,8.1-4.34,1.25,1.25,0,0,0-1.77-1.77,13.19,13.19,0,0,1-7,3.69c-1.58.3-.91,2.71.66,2.41Z"/><path class="cls-2" d="M341.63,92.48a16,16,0,0,0,8.49-8c.67-1.45-1.48-2.72-2.16-1.26a13.47,13.47,0,0,1-7,6.86c-1.46.61-.82,3,.66,2.41Z"/><path class="cls-2" d="M348.64,100.45a15.84,15.84,0,0,0,7.51-10.07c.37-1.56-2-2.23-2.41-.66a13.34,13.34,0,0,1-6.37,8.57,1.25,1.25,0,0,0,1.26,2.16Z"/><path class="cls-2" d="M358.66,106.42c2.29-3.68,4.88-7.46,3.56-12a1.25,1.25,0,0,0-2.41.66c1.1,3.78-1.42,7-3.31,10.06-.85,1.37,1.31,2.63,2.16,1.26Z"/><path class="cls-2" d="M472.39,27.73c-1.9-1.91-6.48-5.55-9.42-4.6s-2.6,5.17-2.84,7.62A1.26,1.26,0,0,0,462,31.83c-.1.06,1.2.62,1.25.64,2.75,1.56,1.34,4.6-1,5.84-2,1.05-5.78.76-7.14-1.25-.83-1.22-1.43-4.85,1.66-4.59A1.26,1.26,0,0,0,458,31.22l.1-6.14a1.28,1.28,0,0,0-1.25-1.25c-6.64-.48-12.71,3.76-13.81,10.51-1.39,8.55,4.37,13.18,12.06,14.51,5.34.93,11.57.84,15.81-3A13.72,13.72,0,0,0,472.59,28c-.94-1.28-3.11,0-2.16,1.26a11.38,11.38,0,0,1-.92,14.46c-2.75,2.75-6.87,3.28-10.58,3.09-5.61-.29-12.16-2.07-13.37-8.35-1.34-7,4.39-12.61,11.26-12.12l-1.25-1.25-.1,6.14L456.73,30c-3.65-.3-5.27,2.68-4.72,6,.68,4.16,4.61,6.28,8.63,5.67,3.69-.57,8.07-4.18,6.62-8.32-.71-2-4.25-4.91-6.51-3.66l1.88,1.08c.21-2.08-.15-5,2.36-4.81,1.86.16,4.41,2.33,5.64,3.56A1.25,1.25,0,0,0,472.39,27.73Z"/><path class="cls-2" d="M460.73,48.24c.22,17.57-2.86,42-20.15,51.27-1.42.76-.16,2.92,1.26,2.16,18.14-9.76,21.63-34.92,21.39-53.43a1.25,1.25,0,0,0-2.5,0Z"/><path class="cls-2" d="M450.57,46.74A130.17,130.17,0,0,1,446,70.81c-1.94,6.67-4.62,13.51-11.18,16.8-1.44.72-.17,2.88,1.26,2.16,6.16-3.08,9.33-9.08,11.44-15.39a124.64,124.64,0,0,0,5.51-27.63c.15-1.6-2.35-1.59-2.5,0Z"/><path class="cls-2" d="M460.41,53.72a12.21,12.21,0,0,1-8.07-.23c-1.51-.56-2.16,1.86-.66,2.41a14.49,14.49,0,0,0,9.4.23c1.53-.48.88-2.89-.66-2.41Z"/><path class="cls-2" d="M458.91,62.6a13,13,0,0,1-7.52-1c-1.45-.66-2.73,1.5-1.26,2.16A16,16,0,0,0,459.58,65c1.58-.26.91-2.67-.66-2.41Z"/><path class="cls-2" d="M458.49,73.27a13.47,13.47,0,0,1-9-3.87c-1.16-1.12-2.92.64-1.77,1.77a16.16,16.16,0,0,0,10.75,4.6c1.61.07,1.61-2.43,0-2.5Z"/><path class="cls-2" d="M455.38,83.26a13.42,13.42,0,0,1-9-5.71c-.9-1.32-3.06-.07-2.16,1.26a15.84,15.84,0,0,0,10.52,6.86c1.57.27,2.25-2.14.66-2.41Z"/><path class="cls-2" d="M449,92.75c-2.7-2.08-6.23-4.26-6.47-8-.1-1.6-2.6-1.61-2.5,0,.31,4.84,4.19,7.49,7.71,10.19,1.27,1,2.52-1.19,1.26-2.16Z"/><path class="cls-2" d="M427.14,102.26c-5.23-.58-11,.33-16.26.49-9,.29-17.92-1.45-26.89-1a1.29,1.29,0,0,0-1.25,1.25c-.25,2.91,0,6.28,3.17,7.35,2.4.82,5.54.36,8,.41l11.91.24,10.91.22c2.83.06,7.12.93,9.79.13,3.51-1,2.28-5.4,1.77-8.22-.29-1.58-2.7-.91-2.41.66a6.08,6.08,0,0,1-.22,5.11l-2,0c-1.67.32-4.25-.09-6-.12l-11.91-.24L394,108.29c-4-.08-9.21.48-8.72-5.26L384,104.28c9-.48,17.89,1.26,26.89,1,5.26-.17,11-1.08,16.26-.49C428.74,104.94,428.72,102.43,427.14,102.26Z"/><path class="cls-2" d="M427,114.71c-5.23-.58-11,.33-16.26.49-9,.29-17.92-1.45-26.89-1a1.29,1.29,0,0,0-1.25,1.25c-.25,2.91,0,6.28,3.17,7.35,2.4.82,5.54.36,8,.41l11.91.24,10.91.22c2.83.06,7.12.93,9.79.13,3.51-1,2.28-5.4,1.77-8.22-.29-1.58-2.7-.91-2.41.66a6.08,6.08,0,0,1-.22,5.11l-2,0c-1.67.32-4.25-.09-6-.12L405.74,121l-11.91-.24c-4-.08-9.21.48-8.72-5.26l-1.25,1.25c9-.48,17.89,1.26,26.89,1,5.26-.17,11-1.08,16.26-.49C428.61,117.39,428.59,114.89,427,114.71Z"/><path class="cls-2" d="M426.88,127.16c-5.23-.59-11,.33-16.26.49-9,.29-17.92-1.45-26.89-1a1.29,1.29,0,0,0-1.25,1.25c-.25,2.91,0,6.28,3.17,7.35,2.4.82,5.54.36,8,.41l11.91.24,10.91.22c2.83.06,7.12.93,9.79.13,3.51-1,2.28-5.4,1.77-8.22-.29-1.58-2.7-.91-2.41.66a6.08,6.08,0,0,1-.22,5.11l-2,0c-1.67.32-4.25-.09-6-.12l-11.91-.24-11.91-.24c-4-.08-9.21.48-8.72-5.26l-1.25,1.25c9-.48,17.89,1.26,26.89,1,5.26-.17,11-1.08,16.26-.49C428.48,129.84,428.46,127.34,426.88,127.16Z"/><path class="cls-2" d="M398.38,154.26c.47-6.79-9.15-9.49-13.1-4.41-2.63,3.39-.84,8.34,2.64,10.37,4.27,2.5,9.64-1.15,10.41-5.63.27-1.57-2.14-2.25-2.41-.66-.66,3.79-5.23,6.26-8.12,3-1.78-2-1.8-5.21.69-6.56,3.13-1.7,7.66,0,7.39,3.9C395.76,155.86,398.26,155.85,398.38,154.26Z"/><path class="cls-2" d="M427.62,154.56c.47-6.79-9.15-9.49-13.1-4.41-2.63,3.39-.84,8.34,2.64,10.37,4.27,2.5,9.64-1.15,10.41-5.63.27-1.57-2.14-2.25-2.41-.66-.66,3.79-5.23,6.26-8.12,3-1.78-2-1.8-5.21.69-6.56,3.13-1.7,7.66,0,7.39,3.9C425,156.17,427.51,156.16,427.62,154.56Z"/><path class="cls-2" d="M389.55,245.35c.48,1.47,2.44,6.19,1.42,7.33-1.25,1.39-6.52,1.08-8.28,1.14a74.68,74.68,0,0,1-7.55-.1c-2.32-.15-6.12.08-8.1-1-6.82-3.66,2.48-11.16,6.72-12.48,6.27-2,12.94-1.86,15.8,5.1.6,1.47,3,.83,2.41-.66-3.26-7.93-10.3-9.17-18.07-7.06s-12.8,7.91-11.18,16.1a1.22,1.22,0,0,0,.87.87,80.77,80.77,0,0,0,28.82.73,1.27,1.27,0,0,0,.92-1.21,22.8,22.8,0,0,0-1.37-9.43C391.47,243.17,389.05,243.82,389.55,245.35Z"/><path class="cls-2" d="M377.24,237.44c-6-9.36-5.92-21.46-5.14-32.2A78.72,78.72,0,0,1,381,173.43c.76-1.42-1.39-2.68-2.16-1.26a82,82,0,0,0-9.27,33.08c-.82,11.17-.72,23.72,5.48,33.46.86,1.35,3,.1,2.16-1.26Z"/><path class="cls-2" d="M388.13,173.07a78,78,0,0,0-3.63,66.05c.59,1.47,3,.83,2.41-.66a75.61,75.61,0,0,1,3.38-64.13c.76-1.42-1.4-2.68-2.16-1.26Z"/><path class="cls-2" d="M372.78,231.88a8.6,8.6,0,0,0,8.92-.14c1.36-.85.11-3-1.26-2.16a6.07,6.07,0,0,1-6.4.14,1.25,1.25,0,0,0-1.26,2.16Z"/><path class="cls-2" d="M371.63,223.92a8.06,8.06,0,0,0,9,1c1.43-.74.16-2.9-1.26-2.16a5.45,5.45,0,0,1-6-.58c-1.23-1-3,.75-1.77,1.77Z"/><path class="cls-2" d="M371,213.37a8.13,8.13,0,0,0,8.91,2.22c1.49-.57.84-3-.66-2.41a5.7,5.7,0,0,1-6.47-1.58c-1.07-1.21-2.83.57-1.77,1.77Z"/><path class="cls-2" d="M370.9,202c2.67,1.93,5.81,3.6,9,1.86,1.42-.77.15-2.93-1.26-2.16-2.3,1.24-4.68-.55-6.5-1.86-1.31-.94-2.56,1.22-1.26,2.16Z"/><path class="cls-2" d="M372.51,191.13a7.87,7.87,0,0,0,9.38,1.65c1.44-.72.17-2.88-1.26-2.16a5.32,5.32,0,0,1-6.35-1.26c-1.09-1.19-2.85.58-1.77,1.77Z"/><path class="cls-2" d="M376.75,180.08a13.11,13.11,0,0,0,8.12,3.46c1.61.11,1.6-2.39,0-2.5a10.34,10.34,0,0,1-6.35-2.72c-1.19-1.08-3,.68-1.77,1.77Z"/><path class="cls-2" d="M422.45,245a22.84,22.84,0,0,0-1.56,9.4,1.28,1.28,0,0,0,.92,1.21,80.79,80.79,0,0,0,28.83-.14,1.22,1.22,0,0,0,.87-.87c3.49-15.86-22.46-24.79-28.94-9.9-.64,1.46,1.52,2.73,2.16,1.26,2.77-6.37,8.29-7.15,14.44-5.5,2.89.78,5.86,1.93,7.89,4.24,1.81,2.05,4,6.58,1.05,8.69-1.56,1.13-7,.87-9.05,1a74.68,74.68,0,0,1-7.55-.06c-1.72-.1-7.47.22-8.23-1.34s1-5.71,1.58-7.3S423,243.52,422.45,245Z"/><path class="cls-2" d="M439.48,239.36c6.21-9.25,6.64-21.24,6.23-32a82.38,82.38,0,0,0-8.64-34.57c-.73-1.43-2.89-.17-2.16,1.26a79.43,79.43,0,0,1,8.3,33.31c.4,10.37.07,21.88-5.89,30.77-.9,1.34,1.27,2.59,2.16,1.26Z"/><path class="cls-2" d="M425.63,174.73a75.46,75.46,0,0,1,2.14,63.89c-.62,1.46,1.53,2.74,2.16,1.26a78.17,78.17,0,0,0-2.14-66.41c-.73-1.43-2.89-.17-2.16,1.26Z"/><path class="cls-2" d="M440.67,230.44a6.07,6.07,0,0,1-6.4-.3c-1.35-.89-2.6,1.28-1.26,2.16a8.6,8.6,0,0,0,8.92.3c1.41-.77.15-2.93-1.26-2.16Z"/><path class="cls-2" d="M441.48,222.89a5.47,5.47,0,0,1-6,.43c-1.41-.77-2.68,1.39-1.26,2.16a8.07,8.07,0,0,0,9-.82c1.27-1-.51-2.75-1.77-1.77Z"/><path class="cls-2" d="M442.29,212.35a5.71,5.71,0,0,1-6.51,1.41c-1.49-.6-2.14,1.81-.66,2.41a8.12,8.12,0,0,0,8.95-2.06c1.09-1.18-.67-3-1.77-1.77Z"/><path class="cls-2" d="M443.18,200.64c-1.86,1.29-4.25,3-6.54,1.7a1.25,1.25,0,0,0-1.26,2.16c3.17,1.8,6.36.16,9.06-1.7,1.32-.91.07-3.08-1.26-2.16Z"/><path class="cls-2" d="M441.28,190.09a5.31,5.31,0,0,1-6.38,1.09c-1.42-.75-2.69,1.41-1.26,2.16a7.87,7.87,0,0,0,9.41-1.48c1.11-1.16-.65-2.93-1.77-1.77Z"/><path class="cls-2" d="M437.28,179a10.34,10.34,0,0,1-6.42,2.57c-1.6.07-1.61,2.57,0,2.5a13.11,13.11,0,0,0,8.18-3.3c1.21-1.06-.56-2.82-1.77-1.77Z"/><path class="cls-3" d="M284.78,132.6a3.49,3.49,0,0,0-1-1c-1.89-1.26-4.23-2-5.53-3.88a24.5,24.5,0,0,1-1.44-2.88,16.73,16.73,0,0,0-7-6.74,14.81,14.81,0,0,0-7.14-1.39l-.2-.13a11.38,11.38,0,0,0-2.51-1.09c.26-2.54.62-6.56.87-9-.38-.47-1.2,1.79-1.44,2.35l-2.74,6.11h-.2c-.87-2.25-.72-5-1.25-7.5-.26-1.22-1-2.6-2-2.43-.71.12-1.24,1-1.54,1.67a99.14,99.14,0,0,0-4.08,12.25h0l.09-.33-.21.49c-1.84,2.61-2.5,6-3.85,9-8.7,19.31-45.84,20.91-52.12,21.07-4.09.1-9-.41-18.77-1.44-4.23-.45-11.22-1.26-18.78-2.26-.5-1.11-4.26-1.6-11.43-2.49-6.61-.82-12.17-1.5-17-1.92-1.39-.19-3.07-.37-5-.47a70.32,70.32,0,0,0-9.71.24,22.88,22.88,0,0,0-3.84.77,37.39,37.39,0,0,0-6.44,2c-7.22,3-12.27,7.37-17.9,13.5-.63.58-1,.93-1,.93-26.5,26.31-24.37,36.88-40.49,43.54a72.73,72.73,0,0,1-24.93,5.36c-1.92,0-3.71-.1-5.35-.23-1.41-.37-2.88-.7-4.39-1s-4-.61-5.36.14a.94.94,0,0,0-.76.49.79.79,0,0,0,0,.18,2.85,2.85,0,0,0-.18,2.18c.79,2.85,5,4.17,8.34,5a35.53,35.53,0,0,0,6.85,2.75c3.32.93,10.42,2.31,22.76-1.76a48.31,48.31,0,0,0,6.77-2.58l1.94-.86c24.09-11,23.26-22.27,35.81-23.1a17.09,17.09,0,0,1,6,.61c-.87,2.17-3.17,3.38-5.29,4.38l-10.71,5.08A8.54,8.54,0,0,0,69,200.75c-1,1.45-1,3.35-.95,5.11l.55,23.3a32.39,32.39,0,0,1-.42,7.6c-.58,2.7-1.86,5.3-1.75,8.05s2.46,5.74,5.14,5.07c1.89-.47,2.94-2.45,3.57-4.29,2.52-7.4,1.81-15.45,2-23.27a10.15,10.15,0,0,1,1.2-5.39c1.52-2.32,4.52-3.07,7.25-3.58q7.77-1.45,15.63-2.24l-8,2.15c-2.79.22-4.77,3.23-4.62,6s1.91,5.27,4,7.14,4.55,3.27,6.71,5.05c3.81,3.14,6.65,7.37,10.72,10.17s10.24,3.66,13.53,0a3.52,3.52,0,0,0,.9-1.64,3.19,3.19,0,0,0-2.27-3.31,8.62,8.62,0,0,0-4.32,0,4.55,4.55,0,0,1-2.56,0,4.4,4.4,0,0,1-1.38-1.12l-6.34-6.76c-2.13-2.27-4.43-5.15-3.59-8.15.59-2.12,2.57-3.5,4.42-4.69L123,206.44h0c1.31.16,9.57.44,26.08,1,11.67.41,12.85.39,14.4.29a76.91,76.91,0,0,0,9.1-1.1A89.44,89.44,0,0,0,185.36,204a5.12,5.12,0,0,1,2.75.78q-5.61,16.63-9.81,33.69c-.53,2.16-1,4.48-.29,6.57a9.82,9.82,0,0,0,2.38,3.44c1.46,1.5,3.34,2.94,5.43,2.74a2.82,2.82,0,0,0,1.17-.4c1.22.93,3.08.26,4.41-.62a6,6,0,0,0,2-1.86,2.44,2.44,0,0,0,0-2.59,3.71,3.71,0,0,0-2.12-1.16l-2.8-.8.31-2.18,34.41-40.25a41.83,41.83,0,0,0,6.66,7c4.3,3.69,9.35,6.56,13,10.87,4.3,5,6.48,11.79,11.43,16.2,3.84,3.42,9.75,4.95,14.26,2.76l.3.23a2.83,2.83,0,0,0-.06-.35,9.37,9.37,0,0,0,1.07-.64c.53-.37,1.07-.91,1-1.55a1.61,1.61,0,0,0-.56-.9c-2.62-2.45-7.32-1.18-10-3.62a9,9,0,0,1-1.67-2.41L245,203.6a9.55,9.55,0,0,1-1.41-7.4l1.85-16.43c2.49-2.65,5.43-5.89,9.5-10.41,8.18-9.08,10.56-14.58,11.41-16.75h.05a20,20,0,0,0,5.79.1,16,16,0,0,0,4.88-1.87C283.79,146.84,287.7,136.37,284.78,132.6ZM191,226.09h0Z"/><path class="cls-2" d="M194.58,252.79a31.74,31.74,0,0,1,4.1-17.27c3.14-5.37,8-9.42,11.69-14.35,3.24-4.29,4.8-9.31,9.61-12.22,4.28-2.6,9.33-3.59,13.9-5.57,9.23-4,14.88-11.22,20.31-19.37s10.58-15.54,18.06-21.9c1.32-1.13-1.52-1.44-2.39-.71-7,6-11.91,12.67-17,20.25-3.76,5.61-7.28,11.52-12.67,15.74-4.66,3.65-9.93,5.35-15.39,7.36-3.79,1.39-7.63,3-10.48,6-3.62,3.74-5.47,8.93-8.93,12.9-7.8,9-14.15,16.88-13.75,29.44,0,1.4,3,.87,2.92-.28Z"/><path class="cls-2" d="M203.34,186.86a422.26,422.26,0,0,0-19,57.27c-.87,3.43-2.17,7.16-.53,10.53,1.2,2.48,3.92,5.14,6.65,5.82,3.61.91,8-2.33,5.77-6.07-.7-1.18-3.45,0-2.65,1.3L189.53,257a11.1,11.1,0,0,1-2.32-2.49,10.22,10.22,0,0,1-1-6.2,64.05,64.05,0,0,1,2-8.11q2.5-9.54,5.47-19c3.63-11.53,7.78-22.87,12.38-34,.65-1.57-2.27-1.64-2.78-.39Z"/><path class="cls-2" d="M192.56,252.47l3.43,1c.84.24,2.43.42,3,1.24,1.22,1.89-2.56,4.79-4.14,3.55-.9-.71-3.5.59-2.26,1.57,2.69,2.12,7.61-.39,9.08-3,2.5-4.48-4.64-5.36-7.35-6.13a2.12,2.12,0,0,0-2,.55c-.39.49-.33,1.07.34,1.26Z"/><path class="cls-2" d="M251.15,185.94c-.71,6.34-1.58,12.68-2.14,19-.46,5.21,2.2,8.85,4.61,13.31l8.68,16.06c2.42,4.48,3.6,6.79,8.74,7.79a8.89,8.89,0,0,1,2.68.56q-2.32,5.06-5.77,3.67a7.18,7.18,0,0,1-1.89-.79,17.35,17.35,0,0,1-6.47-5.6c-2.79-3.7-4.66-8-7.5-11.66-3.49-4.5-8.3-7.45-12.67-11A43.56,43.56,0,0,1,228.76,205c-.43-.75-3.17.31-2.9.78,6.76,11.82,19.8,17,26.76,28.62,4.88,8.13,12.17,17.21,22.83,12.81,2.69-1.11,5.3-3.07,1.85-5.14-2.66-1.59-6.26-.63-8.7-2.79-2.85-2.52-4.83-8.3-6.61-11.6l-5.94-11c-1.44-2.67-3.57-5.49-4.19-8.51s.33-6.59.67-9.66l1.5-13.32c0-.43-2.79-.14-2.9.78Z"/><path class="cls-2" d="M197.18,206.78c-10.34,1.2-20.71,2.12-31.1,2.72q-7.79.45-15.6.66c-4.56.13-14.36,1.95-18.2-1.29-.86-.72-3.57.43-2.68,1.19,3.07,2.59,6.55,2.14,10.41,2.09,6-.07,12-.21,17.93-.46,13-.55,26-1.62,38.9-3.11,1.49-.17,2.34-2,.34-1.8Z"/><path class="cls-2" d="M131.82,212.74l-13.65,8.85c-2.6,1.69-6,3.26-7.86,5.9-2.14,3.12-.43,6.32,1.7,8.93,1.5,1.84,3.25,3.51,4.87,5.24,1.12,1.2,2.42,3.22,4,3.86a7.6,7.6,0,0,0,2.09.25c2.09.24,1-.35,4.1.71,4.28,1.46,2.91,2.87-.76,4.08s-5.61.79-8.73-1.51a41.94,41.94,0,0,1-5.36-5.07c-3.15-3.31-6.57-5.77-10.12-8.59-2-1.61-4-3.55-4.79-6.07s-.34-6.46,2.88-7.18c1.71-.38,1.46-1.35-.26-1-3,.67-5.42,2.43-5.87,5.69-.79,5.6,4.92,9.19,8.73,12,7.48,5.48,13.58,17,24.52,13.7,2.25-.67,5.7-2.49,5.38-5.26-.58-5-7.23-1.89-9.9-3.29-2.43-1.28-5.16-5.3-7-7.39-3.44-3.94-5.34-7.67-.53-11.53,5.71-4.59,12.63-8.21,18.78-12.19,1.21-.79-1.67-.49-2.23-.13Z"/><path class="cls-2" d="M128.92,210.34c-3.58,9.52-17.09,7.94-25.53,9-5.24.67-12.47.8-17.11,3.77s-3.75,8.59-3.77,13.38,0,9.54-1,14.2c-.26,1.2-.61,3.51-1.38,4.57-3,4.07-4.84.55-5.3-1.9-.7-3.72,1.9-8.4,2.09-12.25.17-3.58-.08-7.21-.17-10.79l-.3-12.62c0-1.91-.4-4.52,0-6.38.67-3.2,3.9-4.47,6.56-5.73,4.25-2,12.62-4.13,14.08-9.43.77-2.79,0-6.42-.2-9.25L96,173.57c0-.74-3-.19-2.9.78l1,15.27c.15,2.3.81,5.41-.07,7.64-1.13,2.86-5.75,4.38-8.32,5.59-6.13,2.91-12.19,4.12-12.26,11.76-.05,5.17.24,10.37.37,15.54.12,5,.77,10.3-.23,15.19-.84,4.13-4.21,12.87,3,13.69,5.07.58,7-4.81,7.83-8.74a55.76,55.76,0,0,0,1-10.91c0-2.42,0-4.84,0-7.26.15-5.43-.09-7.51,6.8-9.71,8.57-2.74,18.13-1.74,26.9-3.41,5.46-1,10.63-3.63,12.68-9.08.29-.76-2.56-.43-2.88.43Z"/><path class="cls-2" d="M253.06,127.14c-3.33,7.89-5.49,16.72-13.81,20.63-7.72,3.62-16.41,4.91-24.78,6-7.47,1-15,2.36-22.52,2.89-9.11.64-18.19-.88-27.06-2.8-14.56-3.16-28.77-7.15-43.83-5.65-12.76,1.27-23.94,6.15-32.66,15.67C84,168.7,80.69,174.29,77,179.65c-4.12,6-8.54,11.77-13,17.54-8.35,10.9-18.13,22.7-33.34,21.59-6.72-.49-11.94-5-18.33-6-2.17-.34-5.59,0-6.67,2.31C2.23,222.53,24,225.32,27.47,225.62c13.93,1.18,27.26-4,37.8-13A87.91,87.91,0,0,0,80.84,194.8c4.91-7.25,9-15,15-21.46,1.18-1.26-1.64-1.32-2.35-.56-9.42,10.11-14.86,23.12-24.28,33.29C58.39,217.73,44,225.49,27.74,223.81c-5-.52-12.68-1.71-17-4.63-1.5-1-4.25-3.31-.6-4.81,1.29-.53,3.84,1.24,5,1.74,2.42,1.06,4.81,2.18,7.32,3a32,32,0,0,0,28-4.49c8.67-6,14.85-15.33,21.13-23.62,8.06-10.64,14.34-23.49,24.86-32,26.84-21.6,61.35-.13,91-.5,7.45-.09,14.83-1.56,22.2-2.49,7.16-.9,14.37-1.78,21.36-3.67,5.37-1.46,11.69-3.32,15.78-7.33,4.66-4.58,6.67-12.36,9.15-18.23.41-1-2.48-.67-2.91.33Z"/><path class="cls-2" d="M256,125.87a60.47,60.47,0,0,1,3.11-9.13,7.19,7.19,0,0,1,.89-1.92l-.17-.5a3.65,3.65,0,0,1,.75,1.51,19.66,19.66,0,0,1,.57,4c.21,1.94.41,4.68,2.12,6,1.46,1.11,3.24.12,4.87.22.69,0,3.33-1.19,1.85-1.28-1-.06-2.42.45-3.35.28-1.91-.34-2.29-3.57-2.49-5.08-.27-2,.06-6.19-2.4-7.08-1.51-.54-3.39.53-4.21,1.72-2.26,3.31-3.4,8-4.4,11.79-.19.72,2.66.32,2.87-.47Z"/><path class="cls-2" d="M264.48,124.3q1.38-3.07,2.76-6.14c.28-.62.8-2.51,1.24-2.84l-1.79.34.16.06-.59-.71c-.32,3.18-.76,6.4-.92,9.59-.12,2.4,1.32,4,3.76,3.19,1.71-.56,1.3-2.25-.45-1.67-.58.19,0-5.51,0-6,.17-1.79.34-3.58.52-5.38,0-.41-.25-.59-.59-.71-1.46-.53-2.53.63-3.1,1.79-1.35,2.71-2.47,5.58-3.72,8.35-.62,1.38,2.28,1.17,2.73.17Z"/><path class="cls-2" d="M260.85,157.7c5.5,3.55,13.12,5.93,19.64,4.17,7.66-2.07,9.82-8.19,11.57-15.19.71-2.84,2.23-5.35-.29-7.55-2.16-1.89-4.33-2.39-6-5-1.14-1.79-1.92-3.59-3.45-5.15a17,17,0,0,0-16.66-4.41c-1.81.45-1.24,2.57.57,2.12A14.09,14.09,0,0,1,281.12,132c1.41,1.87,2,4.29,3.7,5.93,2.26,2.15,4.82,2.5,5,6.32.09,2.17-1.33,5.69-2,7.66-1.13,3.19-2.86,5.86-6.08,7.26-5.91,2.57-13.49.15-18.62-3.16-1.15-.74-3.64.83-2.21,1.74Z"/><path class="cls-2" d="M134,213l1.22-1.82c.39-.59-.34-1-.84-1a2.13,2.13,0,0,0-1.9.84l-1.22,1.82c-.39.59.34,1,.84,1A2.13,2.13,0,0,0,134,213Z"/><path class="cls-2" d="M291.19,140.12a4.32,4.32,0,0,0-4.76,2.06c-.15.31.33.53.55.55a5.31,5.31,0,0,1,2.2.67,2.45,2.45,0,0,0,2.5-.67,1.39,1.39,0,0,0-.08-2,3.22,3.22,0,0,0-3.34.14c-.38.21-.88.77-.28,1.05a2.54,2.54,0,0,0,2-.29q-1.75,0-1.11.23a.11.11,0,0,1,.08.05c.06.15.11.11.16.28a.57.57,0,0,1-.16.57l2.5-.67a6.8,6.8,0,0,0-2.72-.82l.55.55a1.76,1.76,0,0,1,.19-.27c.16-.22.12,0,0,0a1.38,1.38,0,0,0-.33.08h-.09l.27.06a2.58,2.58,0,0,0,2-.55c.48-.41.31-.79-.25-.94Z"/><path class="cls-2" d="M276,136.93c.41-.54,1.86-.49,2.61-.54a27.26,27.26,0,0,0,3.23-.3c.53-.1,1.38-.66,1.2-1.3s-1.17-.62-1.69-.52c-2.4.44-6-.33-7.74,1.93-1.09,1.44,1.66,1.71,2.39.74Z"/><path class="cls-2" d="M79.9,257.46a9.75,9.75,0,0,0,.28-4.87c-.22-1.15-3.12-.43-2.9.78a8.73,8.73,0,0,1-.3,4.39c-.22.67.89.8,1.29.77a1.82,1.82,0,0,0,1.62-1.07Z"/><path class="cls-2" d="M129.86,212.06c.09,0,.54.09.3,0l.19.05c-.14,0-.1-.06,0,0s.16.12.08.05.07.08.08.09.24.31.35.47c.68,1,3.46-.09,2.67-1.22a3.18,3.18,0,0,0-1-1,4.11,4.11,0,0,0-1.64-.41,2,2,0,0,0-1.9.85c-.33.63.29,1,.85,1.08Z"/><path class="cls-2" d="M128.5,212.58a3.64,3.64,0,0,1,1.51,1c.7.78,3.47-.28,2.68-1.16a4.8,4.8,0,0,0-1.9-1.31,2.36,2.36,0,0,0-2.06.26c-.35.22-.92.94-.24,1.19Z"/><path class="cls-2" d="M78.81,207.35c.87,0,3.14-1.29,1.22-1.29-.87,0-3.14,1.29-1.22,1.29Z"/><path class="cls-2" d="M131.19,212.16a25.54,25.54,0,0,0-.39-20.44c-.44-1-3.28-.06-2.9.78a24.88,24.88,0,0,1,.4,20c-.36.88,2.52.55,2.89-.38Z"/><path class="cls-2" d="M200.35,200.93c3.25-4.29,6.89-8.44,9.37-13.25.7-1.37-2.22-1.23-2.74-.22-2.39,4.64-5.88,8.63-9,12.77-1.08,1.43,1.67,1.64,2.38.7Z"/><path class="cls-2" d="M277.22,246.42a3.62,3.62,0,0,0-1.69-2.71,4.81,4.81,0,0,0-3.52-.51c-.35.06-1.63.31-1.71.76s.93.26,1.14.22a3,3,0,0,1,1.85.88,3.24,3.24,0,0,1,1,2.14c0,.46,3-.05,2.9-.78Z"/><path class="cls-2" d="M217.09,210a27.1,27.1,0,0,0-.65-11.62c-.16-.59-3.06.19-2.9.78a27.1,27.1,0,0,1,.65,11.62c0,.25,2.76.07,2.9-.78Z"/><path class="cls-2" d="M283.72,140.87a111.86,111.86,0,0,0-31.51,6c-1.69.59-.34,3.14,1.11,2.64a109.61,109.61,0,0,1,30.84-5.94c1.89-.09,1.14-2.76-.43-2.69Z"/><path class="cls-2" d="M283.32,144a60.5,60.5,0,0,0-27,10.93c-.07,0,2.22.86,2.87.39a58.84,58.84,0,0,1,26.17-10.7c1.28-.19-1.57-.7-2.08-.62Z"/><path class="cls-2" d="M281.49,139.33c1.56-.91,2.45-3.11.43-4.21a2.57,2.57,0,0,0-3.63,3A2.29,2.29,0,0,0,281.49,139.33Z"/></g></g></svg>