<?xml version="1.0" encoding="UTF-8"?>
<svg width="69px" height="69px" viewBox="0 0 69 69" version="1.1" xmlns="http://www.w3.org/2000/svg" xmlns:xlink="http://www.w3.org/1999/xlink">
    <!-- Generator: Sketch 49.3 (51167) - http://www.bohemiancoding.com/sketch -->
    <title>Group 2</title>
    <desc>Created with Sketch.</desc>
    <defs></defs>
    <g id="Page-1" stroke="none" stroke-width="1" fill="none" fill-rule="evenodd">
        <g id="Desktop-Copy-4" transform="translate(-212.000000, -251.000000)">
            <g id="Group-2" transform="translate(212.000000, 251.000000)">
                <g id="Page-1">
                    <path d="M69,34.5 C69,53.554 53.554,69 34.5,69 C15.446,69 0,53.554 0,34.5 C0,15.446 15.446,0 34.5,0 C53.554,0 69,15.446 69,34.5" id="Fill-1" fill="#D94F77"></path>
                    <path d="M21.8809,17.5 C21.7709,17.5 21.6719,17.518 21.5859,17.553 C21.0709,17.763 20.9539,18.686 20.9159,18.989 C20.6349,21.203 20.9109,25.174 21.0159,26.668 L21.0449,27.098 C21.2079,29.73 20.5939,31.342 19.9989,32.901 C19.3649,34.563 18.7669,36.133 19.2119,38.926 C19.3149,39.572 19.5289,40.918 20.2329,42.427 C22.1749,46.597 27.6299,51.219 35.0169,51.512 L35.3279,51.513 C42.1979,51.22 47.2119,46.604 49.0009,42.44 C49.6489,40.932 49.8479,39.581 49.9429,38.932 C50.3549,36.128 49.8019,34.555 49.2159,32.889 C48.6689,31.333 48.1049,29.724 48.2539,27.101 L48.2789,26.688 C48.3759,25.19 48.6339,21.21 48.3719,18.984 C48.2769,18.167 48.0729,17.683 47.7669,17.547 C47.6349,17.488 47.4629,17.484 47.2539,17.537 C45.8609,18.471 44.6639,19.624 43.6929,20.964 C42.9159,22.035 42.2979,23.21 41.8569,24.457 L41.6889,24.93 L41.2159,24.761 C39.3039,24.075 37.3069,23.728 35.2779,23.728 C35.2419,23.728 35.2069,23.729 35.1709,23.728 C32.9559,23.728 30.7799,24.077 28.6989,24.765 L28.2469,24.914 L28.0749,24.47 C27.5959,23.225 26.9249,22.05 26.0829,20.979 C25.0259,19.635 23.7209,18.479 22.2029,17.542 C22.0869,17.514 21.9789,17.5 21.8809,17.5 Z M35.1109,52.513 L34.9719,52.511 C27.1719,52.201 21.3929,47.285 19.3259,42.849 C18.5649,41.214 18.3339,39.775 18.2239,39.084 C17.7369,36.026 18.4119,34.256 19.0649,32.545 C19.6469,31.018 20.1959,29.576 20.0469,27.16 L20.0189,26.738 C19.9119,25.216 19.6299,21.174 19.9239,18.863 C19.9809,18.417 20.1529,17.058 21.2069,16.627 C21.5949,16.469 22.0429,16.458 22.5339,16.595 L22.6619,16.65 C24.3079,17.656 25.7229,18.905 26.8679,20.361 C27.6739,21.385 28.3329,22.497 28.8319,23.673 C30.8969,23.041 33.0109,22.739 35.2269,22.728 L35.2799,22.728 C37.2579,22.728 39.2089,23.041 41.0869,23.659 C41.5439,22.494 42.1479,21.392 42.8829,20.377 C43.9399,18.919 45.2459,17.668 46.7669,16.66 L46.8999,16.598 C47.3739,16.457 47.8019,16.468 48.1729,16.633 C49.0549,17.024 49.2769,18.096 49.3659,18.868 C49.6369,21.184 49.3759,25.229 49.2769,26.752 L49.2519,27.158 C49.1139,29.582 49.6459,31.094 50.1589,32.557 C50.7599,34.264 51.3799,36.03 50.9329,39.077 C50.8299,39.769 50.6179,41.206 49.9189,42.835 C48.0119,47.277 42.6719,52.2 35.4569,52.512 L35.1109,52.513 Z" id="Fill-3" fill="#F5DDE6"></path>
                    <path d="M27.4082,37.0049 L26.2242,37.0059 C25.5692,37.0069 25.0392,36.5029 25.0392,35.8789 C25.0382,35.2549 25.5672,34.7499 26.2212,34.7489 L27.4052,34.7479 C28.0602,34.7469 28.5902,35.2519 28.5912,35.8749 C28.5922,36.4989 28.0622,37.0049 27.4082,37.0049" id="Fill-5" fill="#F5DDE6"></path>
                    <path d="M43.3154,36.9863 L42.1314,36.9873 C41.4774,36.9883 40.9474,36.4843 40.9464,35.8603 C40.9464,35.2363 41.4744,34.7313 42.1284,34.7313 L43.3134,34.7293 C43.9674,34.7293 44.4984,35.2333 44.4984,35.8573 C44.4994,36.4803 43.9704,36.9863 43.3154,36.9863" id="Fill-7" fill="#F5DDE6"></path>
                    <path d="M46.46,39.7207 C46.293,39.7207 46.13,39.6367 46.035,39.4847 C45.89,39.2497 45.962,38.9417 46.196,38.7957 C47.504,37.9847 48.923,37.4327 50.414,37.1567 C53.028,36.6697 55.271,37.1497 56.687,37.6387 C56.947,37.7287 57.086,38.0137 56.996,38.2747 C56.907,38.5347 56.623,38.6747 56.36,38.5837 C55.06,38.1337 53.001,37.6927 50.597,38.1397 C49.228,38.3937 47.925,38.9007 46.724,39.6457 C46.642,39.6967 46.551,39.7207 46.46,39.7207" id="Fill-9" fill="#F5DDE6"></path>
                    <path d="M54.6846,43.6553 C54.5966,43.6553 54.5086,43.6333 54.4276,43.5843 C52.8966,42.6693 51.2426,42.0853 49.5096,41.8463 C48.4816,41.7053 47.4376,41.6903 46.4036,41.8013 C46.1516,41.8323 45.8826,41.6333 45.8536,41.3563 C45.8246,41.0823 46.0236,40.8363 46.2976,40.8063 C47.4106,40.6893 48.5386,40.7043 49.6466,40.8563 C51.5116,41.1123 53.2926,41.7413 54.9416,42.7263 C55.1776,42.8683 55.2556,43.1753 55.1136,43.4123 C55.0206,43.5683 54.8546,43.6553 54.6846,43.6553" id="Fill-11" fill="#F5DDE6"></path>
                    <path d="M32.3691,44.1641 C31.8801,44.1641 31.3751,44.0781 30.9201,43.8551 C30.0741,43.4441 29.7501,42.7251 29.7291,42.1881 C29.7201,41.9121 29.9341,41.6801 30.2101,41.6691 L30.2291,41.6691 C30.4971,41.6691 30.7191,41.8801 30.7291,42.1491 C30.7321,42.2351 30.7781,42.6751 31.3571,42.9571 C32.0501,43.2931 33.0081,43.1801 33.6531,42.9191 C34.6181,42.5281 34.6811,41.8161 34.6821,41.7871 C34.7011,41.5341 34.9041,41.3321 35.1571,41.3201 C35.4371,41.3121 35.6321,41.4831 35.6751,41.7321 C35.6971,41.8631 35.8561,42.5361 36.7951,42.8911 C37.4131,43.1241 38.2861,43.2661 38.8811,42.9641 C39.4111,42.6961 39.3871,42.2531 39.3771,42.1671 C39.3451,41.8931 39.5401,41.6431 39.8131,41.6101 C40.0981,41.5841 40.3361,41.7711 40.3691,42.0431 C40.3851,42.1681 40.4871,43.2721 39.3321,43.8561 C38.2481,44.4021 36.9501,44.0191 36.4421,43.8261 C35.8671,43.6091 35.4781,43.2971 35.2161,42.9841 C34.9721,43.2991 34.5981,43.6151 34.0281,43.8461 C33.5881,44.0241 32.9911,44.1641 32.3691,44.1641" id="Fill-13" fill="#F5DDE6"></path>
                    <path d="M35.0703,39.959 C35.0693,39.959 33.8373,39.313 33.8373,38.726 C33.8373,38.386 34.1113,38.112 34.4513,38.111 L34.4533,38.111 C34.7863,38.111 35.0573,38.377 35.0703,38.708 C35.0783,38.374 35.3513,38.107 35.6873,38.107 C35.9413,38.107 36.2953,38.402 36.3043,38.726 C36.3223,39.344 35.0703,39.959 35.0703,39.959" id="Fill-15" fill="#F5DDE6"></path>
                    <path d="M23.0781,40.6465 C22.9871,40.6465 22.8961,40.6225 22.8141,40.5715 C21.6131,39.8265 20.3101,39.3195 18.9421,39.0655 C16.5351,38.6195 14.4791,39.0605 13.1781,39.5095 C12.9171,39.5995 12.6321,39.4605 12.5421,39.2005 C12.4521,38.9395 12.5911,38.6545 12.8511,38.5645 C14.2651,38.0755 16.5041,37.5945 19.1251,38.0835 C20.6151,38.3595 22.0341,38.9105 23.3421,39.7215 C23.5761,39.8675 23.6481,40.1755 23.5031,40.4105 C23.4081,40.5625 23.2451,40.6465 23.0781,40.6465" id="Fill-17" fill="#F5DDE6"></path>
                    <path d="M14.8535,44.5811 C14.6835,44.5811 14.5175,44.4941 14.4245,44.3381 C14.2825,44.1011 14.3605,43.7941 14.5965,43.6521 C16.2435,42.6681 18.0255,42.0391 19.8915,41.7831 C20.9955,41.6311 22.1215,41.6141 23.2405,41.7321 C23.5145,41.7621 23.7135,42.0081 23.6845,42.2821 C23.6555,42.5571 23.4135,42.7511 23.1345,42.7271 C22.0975,42.6181 21.0515,42.6331 20.0285,42.7731 C18.2945,43.0121 16.6405,43.5961 15.1105,44.5101 C15.0295,44.5591 14.9415,44.5811 14.8535,44.5811" id="Fill-19" fill="#F5DDE6"></path>
                    <path d="M65.5,34.5 C65.5,51.621 51.621,65.5 34.5,65.5 C17.379,65.5 3.5,51.621 3.5,34.5 C3.5,17.379 17.379,3.5 34.5,3.5 C51.621,3.5 65.5,17.379 65.5,34.5 Z" id="Stroke-21" stroke="#F5DDE6"></path>
                </g>
            </g>
        </g>
    </g>
</svg>