<svg id="Layer_1" data-name="Layer 1" xmlns="http://www.w3.org/2000/svg" viewBox="0 0 189 100"><defs><style>.cls-1{fill:#e9738c;}.cls-2{fill:#323371;}.cls-3{fill:none;}.cls-4{fill:#c8d1e6;}.cls-5{fill:#563998;}.cls-6{fill:#edd6ce;}</style></defs><title>tokens</title><circle class="cls-1" cx="41.5" cy="47.5" r="34.5"/><circle class="cls-2" cx="148.5" cy="48.5" r="34.5"/><rect class="cls-3" x="131.45" y="40.73" width="34.59" height="19.27" rx="8.75" ry="8.75"/><path class="cls-4" d="M157.3,60.5H140.2A9.26,9.26,0,0,1,131,51.25V49.48a9.26,9.26,0,0,1,9.25-9.25H157.3a9.26,9.26,0,0,1,9.25,9.25v1.77A9.26,9.26,0,0,1,157.3,60.5ZM140.2,41.23A8.26,8.26,0,0,0,132,49.48v1.77a8.26,8.26,0,0,0,8.25,8.25H157.3a8.26,8.26,0,0,0,8.25-8.25V49.48a8.26,8.26,0,0,0-8.25-8.25Z"/><circle class="cls-3" cx="142.33" cy="49.62" r="2.97"/><path class="cls-4" d="M142.33,53.09a3.47,3.47,0,1,1,3.47-3.46A3.47,3.47,0,0,1,142.33,53.09Zm0-5.93a2.47,2.47,0,1,0,2.47,2.47A2.47,2.47,0,0,0,142.33,47.16Z"/><circle class="cls-3" cx="155.17" cy="49.62" r="2.97"/><path class="cls-4" d="M155.17,53.09a3.47,3.47,0,1,1,3.46-3.46A3.47,3.47,0,0,1,155.17,53.09Zm0-5.93a2.47,2.47,0,1,0,2.46,2.47A2.47,2.47,0,0,0,155.17,47.16Z"/><path class="cls-5" d="M147.27,54.56a2.31,2.31,0,0,0,1.89,1,2.53,2.53,0,0,0,1.57-1"/><path class="cls-4" d="M149,56.06a2.83,2.83,0,0,1-2.11-1.18.5.5,0,0,1,.77-.64,1.89,1.89,0,0,0,1.45.81,2,2,0,0,0,1.24-.81.5.5,0,1,1,.77.64,2.93,2.93,0,0,1-1.9,1.17Z"/><circle class="cls-5" cx="155.17" cy="49.62" r="0.49"/><path class="cls-4" d="M155.17,50.62a1,1,0,1,1,1-1A1,1,0,0,1,155.17,50.62Zm0-1h0Z"/><path class="cls-4" d="M142.33,50.62a1,1,0,1,1,1-1A1,1,0,0,1,142.33,50.62Zm0-1h0Z"/><circle class="cls-3" cx="149.24" cy="33.81" r="1.98"/><path class="cls-4" d="M149.24,36.28a2.48,2.48,0,1,1,2.48-2.48A2.48,2.48,0,0,1,149.24,36.28Zm0-4a1.48,1.48,0,1,0,1.48,1.48A1.48,1.48,0,0,0,149.24,32.33Z"/><path class="cls-4" d="M149.24,41.23a.5.5,0,0,1-.5-.5V35.78a.5.5,0,0,1,1,0v4.94A.5.5,0,0,1,149.24,41.23Z"/><path class="cls-3" d="M165.2,45.68a8.55,8.55,0,0,1,.84,3.69v2A8.57,8.57,0,0,1,165,55.54h.11a4.94,4.94,0,0,0,.14-9.87Z"/><path class="cls-4" d="M165.06,56.05h-1l.44-.74a8.11,8.11,0,0,0,1-3.95v-2a8,8,0,0,0-.79-3.48l-.35-.74.82,0a5.44,5.44,0,0,1-.16,10.87Zm.94-9.77a9,9,0,0,1,.55,3.1v2a9.11,9.11,0,0,1-.77,3.65,4.44,4.44,0,0,0,.22-8.72Z"/><path class="cls-3" d="M132.53,55.44a8.55,8.55,0,0,1-1-3.65l-.1-2a8.57,8.57,0,0,1,.89-4.24h-.11a4.94,4.94,0,0,0,.33,9.86Z"/><path class="cls-4" d="M132.44,55.94a5.44,5.44,0,0,1-.26-10.87h.13l.83,0-.38.75a8.13,8.13,0,0,0-.84,4l.1,2a8,8,0,0,0,1,3.44l.39.72-.82,0Zm-.93-9.77a4.44,4.44,0,0,0,.21,8.72,9,9,0,0,1-.7-3.07l-.1-2A9.11,9.11,0,0,1,131.5,46.16Z"/><path class="cls-6" d="M42.11,65.51H42c-7.8-.31-13.58-5.23-15.65-9.66a13.71,13.71,0,0,1-1.1-3.76,11.18,11.18,0,0,1,.84-6.54,11.41,11.41,0,0,0,1-5.38l0-.42a50.25,50.25,0,0,1-.09-7.88c.06-.45.23-1.8,1.28-2.24a2,2,0,0,1,1.33,0l.13.06a15.82,15.82,0,0,1,4.21,3.71,14.52,14.52,0,0,1,2,3.31,22,22,0,0,1,6.39-.94h.05a18.53,18.53,0,0,1,5.81.93,14.82,14.82,0,0,1,1.8-3.28,15,15,0,0,1,3.88-3.72l.13-.06a1.81,1.81,0,0,1,1.27,0,2.6,2.6,0,0,1,1.19,2.24,54.58,54.58,0,0,1-.09,7.88l0,.41a12.45,12.45,0,0,0,.91,5.4,12,12,0,0,1,.77,6.52,14.65,14.65,0,0,1-1,3.76,16.89,16.89,0,0,1-14.46,9.68Zm-13.23-35a.77.77,0,0,0-.29.05c-.51.21-.63,1.13-.67,1.44a49.61,49.61,0,0,0,.1,7.68l0,.43a12.39,12.39,0,0,1-1,5.8,10.2,10.2,0,0,0-.79,6,12.73,12.73,0,0,0,1,3.5c1.94,4.17,7.4,8.79,14.78,9.08h.31A15.89,15.89,0,0,0,56,55.44a13.63,13.63,0,0,0,.94-3.51,11,11,0,0,0-.73-6,13.29,13.29,0,0,1-1-5.79l0-.41a53.7,53.7,0,0,0,.09-7.7c-.09-.82-.3-1.3-.61-1.44a.79.79,0,0,0-.51,0A14,14,0,0,0,50.69,34a13.77,13.77,0,0,0-1.84,3.49l-.17.47-.47-.17a17.54,17.54,0,0,0-5.94-1h-.11a20.57,20.57,0,0,0-6.47,1l-.45.15-.17-.44a13.5,13.5,0,0,0-2-3.49,14.8,14.8,0,0,0-3.88-3.44A1.37,1.37,0,0,0,28.88,30.5Z"/><path class="cls-6" d="M34.41,50H33.22a1.13,1.13,0,1,1,0-2.26h1.18a1.13,1.13,0,1,1,0,2.26Z"/><path class="cls-6" d="M50.32,50H49.13a1.13,1.13,0,1,1,0-2.26h1.18a1.13,1.13,0,1,1,0,2.26Z"/><path class="cls-6" d="M53.46,52.72a.5.5,0,0,1-.26-.92,12.2,12.2,0,0,1,4.22-1.64,12.37,12.37,0,0,1,6.27.48.5.5,0,0,1-.33.95,11.36,11.36,0,0,0-5.76-.44,11.19,11.19,0,0,0-3.87,1.51A.5.5,0,0,1,53.46,52.72Z"/><path class="cls-6" d="M61.68,56.66a.49.49,0,0,1-.26-.07,13,13,0,0,0-4.92-1.74,12.81,12.81,0,0,0-3.11,0,.51.51,0,0,1-.55-.44.5.5,0,0,1,.44-.55,13.88,13.88,0,0,1,8.64,1.92.5.5,0,0,1-.26.93Z"/><path class="cls-6" d="M39.37,57.16a3.3,3.3,0,0,1-1.45-.31,2,2,0,0,1-1.19-1.67.5.5,0,0,1,.48-.52h0a.5.5,0,0,1,.5.48,1,1,0,0,0,.63.81,3.05,3.05,0,0,0,2.3,0,1.46,1.46,0,0,0,1-1.13.5.5,0,0,1,.47-.47.48.48,0,0,1,.52.41,1.61,1.61,0,0,0,1.12,1.16,2.82,2.82,0,0,0,2.09.07.8.8,0,0,0,.5-.8.5.5,0,0,1,1-.12,1.8,1.8,0,0,1-1,1.81,3.8,3.8,0,0,1-2.89,0A2.9,2.9,0,0,1,42.22,56a2.78,2.78,0,0,1-1.19.86A4.56,4.56,0,0,1,39.37,57.16Z"/><path class="cls-6" d="M42.07,53s-1.23-.65-1.23-1.23a.62.62,0,0,1,.61-.61h0a.62.62,0,0,1,.62.6.62.62,0,0,1,.62-.6.71.71,0,0,1,.62.62C43.32,52.34,42.07,53,42.07,53Z"/><path class="cls-6" d="M30.08,53.65a.5.5,0,0,1-.26-.08,11.2,11.2,0,0,0-3.87-1.51,11.38,11.38,0,0,0-5.76.44.5.5,0,0,1-.33-.95,12.35,12.35,0,0,1,6.27-.48,12.18,12.18,0,0,1,4.22,1.64.5.5,0,0,1-.26.92Z"/><path class="cls-6" d="M21.85,57.58a.5.5,0,0,1-.26-.93,13.9,13.9,0,0,1,8.64-1.92.5.5,0,0,1-.11,1,12.9,12.9,0,0,0-8,1.78A.49.49,0,0,1,21.85,57.58Z"/><path class="cls-4" d="M148.5,80A31.5,31.5,0,1,1,180,48.5,31.54,31.54,0,0,1,148.5,80Zm0-62A30.5,30.5,0,1,0,179,48.5,30.53,30.53,0,0,0,148.5,18Z"/><path class="cls-6" d="M44.92,78.82a31.5,31.5,0,1,1,27.9-27.9A31.54,31.54,0,0,1,44.92,78.82Zm-.11-61.64a30.5,30.5,0,1,0,27,27A30.54,30.54,0,0,0,44.81,17.18Z"/></svg>