<svg xmlns="http://www.w3.org/2000/svg" viewBox="0 0 627.22 127.86"><defs><style>.cls-1{fill:#9bb09e;}.cls-2{fill:#ffd771;}.cls-3{fill:#eb8480;}.cls-4{fill:#f4ede5;}.cls-5{fill:#231f20;}.cls-6{font-size:30px;}.cls-6,.cls-7,.cls-8{font-family:VT323-Regular, VT323;}.cls-7,.cls-8{font-size:90px;}.cls-8{fill:#fff;}</style></defs><title>Asset 2</title><g id="Layer_2" data-name="Layer 2"><g id="OBJECTS"><path class="cls-1" d="M620,37.09c1.19-6.74-10.2-1.94-4.84,2A3.24,3.24,0,0,0,620,37.09Z"/><path class="cls-2" d="M609.81,109.7c1.19-6.74-10.2-1.94-4.84,2A3.24,3.24,0,0,0,609.81,109.7Z"/><path class="cls-3" d="M556.22,95.95c1.19-6.74-10.2-1.94-4.84,2A3.24,3.24,0,0,0,556.22,95.95Z"/><path class="cls-4" d="M627.09,72.58c1.7-9.63-14.57-2.78-6.92,2.79A4.63,4.63,0,0,0,627.09,72.58Z"/><path class="cls-4" d="M529.89,24.73c1.7-9.63-14.57-2.78-6.92,2.79A4.63,4.63,0,0,0,529.89,24.73Z"/><path class="cls-2" d="M584.93,54.18c-6.34-11.44-20.35.06-14.87,8.88,2.39,3.85,8.21,4.8,12,2.26C585.51,63,587,57.87,584.93,54.18Z"/><path class="cls-5" d="M616.23,30.42c.27-1.65.09-3.53-1.51-4.46a4.7,4.7,0,0,0-4.07-.07,4.92,4.92,0,0,0-3,3,4,4,0,0,0,1.93,4.23,4.51,4.51,0,0,0,6.68-2.7c.35-1.57-2.06-2.24-2.41-.66a2,2,0,0,1-3.6.62.81.81,0,0,1-.23-.5c0,.27,0-.1,0-.17s0,.1,0-.15-.09.15,0-.11a2.53,2.53,0,0,1,.17-.29,3.53,3.53,0,0,1,.45-.45c-.08.06.39-.26.53-.33a1.77,1.77,0,0,1,.58-.25l.37-.1c.29-.07.1,0,.28-.05s.71,0,.49,0a2.49,2.49,0,0,1,.38.09s-.06-.06.15.07c0,0,.25.24.18.15a2.07,2.07,0,0,1,.18,1.49C613.56,31.33,616,32,616.23,30.42Z"/><path class="cls-5" d="M606,103c.27-1.65.09-3.53-1.51-4.46a4.7,4.7,0,0,0-4.07-.07,4.92,4.92,0,0,0-3,3,4,4,0,0,0,1.93,4.23A4.51,4.51,0,0,0,606,103c.35-1.57-2.06-2.24-2.41-.66a2,2,0,0,1-3.6.62.81.81,0,0,1-.23-.5c0,.27,0-.1,0-.17s0,.1,0-.15-.09.15,0-.11a2.53,2.53,0,0,1,.17-.29,3.53,3.53,0,0,1,.45-.45c-.08.06.39-.26.53-.33a1.77,1.77,0,0,1,.58-.25l.37-.1c.29-.07.1,0,.28-.05s.71,0,.49,0a2.49,2.49,0,0,1,.38.09s-.06-.06.15.07c0,0,.25.24.18.15a2.07,2.07,0,0,1,.18,1.49C603.35,103.94,605.76,104.62,606,103Z"/><path class="cls-5" d="M552.43,89.28c.27-1.65.09-3.53-1.51-4.46a4.7,4.7,0,0,0-4.07-.07,4.92,4.92,0,0,0-3,3A4,4,0,0,0,545.75,92a4.51,4.51,0,0,0,6.68-2.7c.35-1.57-2.06-2.24-2.41-.66a2,2,0,0,1-3.6.62.81.81,0,0,1-.23-.5c0,.27,0-.1,0-.17s0,.1,0-.15-.09.15,0-.11a2.53,2.53,0,0,1,.17-.29,3.53,3.53,0,0,1,.45-.45c-.08.06.39-.26.53-.33A1.77,1.77,0,0,1,548,87l.37-.1c.29-.07.1,0,.28-.05s.71,0,.49,0a2.49,2.49,0,0,1,.38.09s-.06-.06.15.07c0,0,.25.24.18.15a2.07,2.07,0,0,1,.18,1.49C549.76,90.19,552.17,90.87,552.43,89.28Z"/><path class="cls-5" d="M623.3,65.91c.34-2.13.14-4.56-1.91-5.76a6.21,6.21,0,0,0-5.4,0,6.48,6.48,0,0,0-4,3.9c-.62,2.2.75,4.23,2.52,5.44a5.9,5.9,0,0,0,8.75-3.54c.35-1.57-2.06-2.24-2.41-.66a3.39,3.39,0,0,1-6.12,1c-.78-1.12-.27-2.21.75-3A5.29,5.29,0,0,1,619.24,62c1.64.22,1.89,1.74,1.65,3.22S623,67.5,623.3,65.91Z"/><path class="cls-5" d="M526.09,18.06c.34-2.13.14-4.56-1.91-5.76a6.21,6.21,0,0,0-5.4,0,6.48,6.48,0,0,0-4,3.9c-.62,2.2.75,4.23,2.52,5.44a5.9,5.9,0,0,0,8.75-3.54c.35-1.57-2.06-2.24-2.41-.66a3.39,3.39,0,0,1-6.12,1c-.78-1.12-.27-2.21.75-3A5.29,5.29,0,0,1,522,14.17c1.64.22,1.89,1.74,1.65,3.22S525.84,19.64,526.09,18.06Z"/><path class="cls-5" d="M581,46.55c-2.59-4.37-7.21-6.81-12.1-4.47-4.16,2-7,6.73-6.19,11.37,1,5.72,7.24,8.76,12.61,7.05,5.78-1.84,8.23-8.68,5.68-14-.7-1.45-2.86-.18-2.16,1.26a7.5,7.5,0,0,1-6.07,10.66c-4.16.31-8-2.81-7.71-7.12a8.71,8.71,0,0,1,5.1-7.11c3.68-1.62,6.78.37,8.68,3.57A1.25,1.25,0,0,0,581,46.55Z"/><path class="cls-1" d="M126.26,92.5c1.19-6.74-10.2-1.94-4.84,2A3.24,3.24,0,0,0,126.26,92.5Z"/><path class="cls-3" d="M37,28c1.19-6.74-10.2-1.94-4.84,2A3.24,3.24,0,0,0,37,28Z"/><path class="cls-1" d="M12.52,80.57c1.19-6.74-10.2-1.94-4.84,2A3.24,3.24,0,0,0,12.52,80.57Z"/><path class="cls-4" d="M161.39,19.7c1.19-6.74-10.2-1.94-4.84,2A3.24,3.24,0,0,0,161.39,19.7Z"/><path class="cls-4" d="M85.89,34.16C87.59,24.54,71.33,31.39,79,37A4.63,4.63,0,0,0,85.89,34.16Z"/><path class="cls-4" d="M55.58,124.35c1.7-9.63-14.57-2.78-6.92,2.79A4.63,4.63,0,0,0,55.58,124.35Z"/><path class="cls-3" d="M137.79,55.48c5.88-12.27-17.24-9.52-10,.92C130.09,59.72,136,59.12,137.79,55.48Z"/><path class="cls-2" d="M82.18,71.93C75.84,60.49,61.82,72,67.3,80.82c2.39,3.85,8.21,4.8,12,2.26C82.76,80.72,84.22,75.62,82.18,71.93Z"/><path class="cls-5" d="M122.47,85.83c.27-1.65.09-3.53-1.51-4.46a4.7,4.7,0,0,0-4.07-.07,4.92,4.92,0,0,0-3,3,4,4,0,0,0,1.93,4.23,4.51,4.51,0,0,0,6.68-2.7c.35-1.57-2.06-2.24-2.41-.66a2,2,0,0,1-3.6.62.81.81,0,0,1-.23-.5c0,.27,0-.1,0-.17s0,.1,0-.15-.09.15,0-.11a2.53,2.53,0,0,1,.17-.29,3.53,3.53,0,0,1,.45-.45c-.08.06.39-.26.53-.33a1.77,1.77,0,0,1,.58-.25l.37-.1c.29-.07.1,0,.28-.05s.71,0,.49,0a2.49,2.49,0,0,1,.38.09s-.06-.06.15.07c0,0,.25.24.18.15a2.07,2.07,0,0,1,.18,1.49C119.8,86.74,122.21,87.42,122.47,85.83Z"/><path class="cls-5" d="M33.22,21.32c.27-1.65.09-3.53-1.51-4.46a4.7,4.7,0,0,0-4.07-.07,4.92,4.92,0,0,0-3,3A4,4,0,0,0,26.54,24a4.51,4.51,0,0,0,6.68-2.7c.35-1.57-2.06-2.24-2.41-.66a2,2,0,0,1-3.6.62.81.81,0,0,1-.23-.5c0,.27,0-.1,0-.17s0,.1,0-.15-.09.15,0-.11a2.53,2.53,0,0,1,.17-.29,3.53,3.53,0,0,1,.45-.45c-.08.06.39-.26.53-.33a1.77,1.77,0,0,1,.58-.25l.37-.1c.29-.07.1,0,.28-.05s.71,0,.49,0a2.49,2.49,0,0,1,.38.09s-.06-.06.15.07c0,0,.25.24.18.15a2.07,2.07,0,0,1,.18,1.49C30.55,22.23,33,22.91,33.22,21.32Z"/><path class="cls-5" d="M8.73,73.91c.27-1.65.09-3.53-1.51-4.46a4.7,4.7,0,0,0-4.07-.07,4.92,4.92,0,0,0-3,3A4,4,0,0,0,2.05,76.6a4.51,4.51,0,0,0,6.68-2.7c.35-1.57-2.06-2.24-2.41-.66a2,2,0,0,1-3.6.62.81.81,0,0,1-.23-.5c0,.27,0-.1,0-.17s0,.1,0-.15-.09.15,0-.11a2.53,2.53,0,0,1,.17-.29,3.53,3.53,0,0,1,.45-.45c-.08.06.39-.26.53-.33a1.77,1.77,0,0,1,.58-.25l.37-.1c.29-.07.1,0,.28-.05s.71,0,.49,0a2.49,2.49,0,0,1,.38.09s-.06-.06.15.07c0,0,.25.24.18.15a2.07,2.07,0,0,1,.18,1.49C6.06,74.81,8.47,75.49,8.73,73.91Z"/><path class="cls-5" d="M157.59,13c.27-1.65.09-3.53-1.51-4.46A4.7,4.7,0,0,0,152,8.51a4.92,4.92,0,0,0-3,3,4,4,0,0,0,1.93,4.23,4.51,4.51,0,0,0,6.68-2.7c.35-1.57-2.06-2.24-2.41-.66a2,2,0,0,1-3.6.62.81.81,0,0,1-.23-.5c0,.27,0-.1,0-.17s0,.1,0-.15-.09.15,0-.11a2.53,2.53,0,0,1,.17-.29,3.53,3.53,0,0,1,.45-.45c-.08.06.39-.26.53-.33a1.77,1.77,0,0,1,.58-.25l.37-.1c.29-.07.1,0,.28-.05s.71,0,.49,0a2.49,2.49,0,0,1,.38.09s-.06-.06.15.07c0,0,.25.24.18.15a2.07,2.07,0,0,1,.18,1.49C154.93,13.94,157.34,14.62,157.59,13Z"/><path class="cls-5" d="M82.1,27.49c.34-2.13.14-4.56-1.91-5.76a6.21,6.21,0,0,0-5.4,0,6.48,6.48,0,0,0-4,3.9c-.62,2.2.75,4.23,2.52,5.44a5.9,5.9,0,0,0,8.75-3.54c.35-1.57-2.06-2.24-2.41-.66a3.39,3.39,0,0,1-6.12,1c-.78-1.12-.27-2.21.75-3A5.29,5.29,0,0,1,78,23.6c1.64.22,1.89,1.74,1.65,3.22S81.84,29.08,82.1,27.49Z"/><path class="cls-5" d="M51.79,117.68c.34-2.13.14-4.56-1.91-5.76a6.21,6.21,0,0,0-5.4,0,6.48,6.48,0,0,0-4,3.9c-.62,2.2.75,4.23,2.52,5.44a5.9,5.9,0,0,0,8.75-3.54c.35-1.57-2.06-2.24-2.41-.66a3.39,3.39,0,0,1-6.12,1c-.78-1.12-.27-2.21.75-3a5.29,5.29,0,0,1,3.72-1.21c1.64.22,1.89,1.74,1.65,3.22S51.53,119.27,51.79,117.68Z"/><path class="cls-5" d="M133.87,49.11c1.15-2.49,1.85-5.64-.19-7.9-1.66-1.84-4.34-2.3-6.69-2a8.17,8.17,0,0,0-6.1,3.52c-1.51,2.54-.57,5.8,1.28,7.91,3.16,3.59,9.49,2.56,11.69-1.53.76-1.42-1.39-2.68-2.16-1.26-2.09,3.87-7.57,2.93-8.86-1-.67-2.05.43-3.71,2.3-4.56a7,7,0,0,1,5.63-.15c2.34,1.14,1.85,3.74.93,5.73C131,49.3,133.2,50.57,133.87,49.11Z"/><path class="cls-5" d="M78.26,64.3c-2.59-4.37-7.21-6.81-12.1-4.47-4.16,2-7,6.73-6.19,11.37,1,5.72,7.24,8.76,12.61,7.05,5.78-1.84,8.24-8.68,5.68-14-.7-1.45-2.86-.18-2.16,1.26A7.5,7.5,0,0,1,70,76.22c-4.16.31-8-2.81-7.71-7.12A8.71,8.71,0,0,1,67.42,62c3.68-1.62,6.78.37,8.68,3.57A1.25,1.25,0,0,0,78.26,64.3Z"/><text class="cls-6" transform="translate(233.28 107.12)">cats vs. robots</text><text class="cls-7" transform="translate(204.69 74.29)">REVERSI</text><text class="cls-8" transform="translate(200.7 70.2)">REVERSI</text></g></g></svg>