<?xml version="1.0" encoding="utf-8"?>
<!-- Generator: Adobe Illustrator 21.0.0, SVG Export Plug-In . SVG Version: 6.00 Build 0)  -->
<svg version="1.1" id="Layer_1" xmlns="http://www.w3.org/2000/svg" xmlns:xlink="http://www.w3.org/1999/xlink" x="0px" y="0px"
	 viewBox="0 0 627.2 127.9" style="enable-background:new 0 0 627.2 127.9;" xml:space="preserve">
<style type="text/css">
	.st0{fill:#9BB09E;}
	.st1{fill:#FFD771;}
	.st2{fill:#EB8480;}
	.st3{fill:#F4EDE5;}
	.st4{fill:#231F20;}
	.st5{enable-background:new    ;}
	.st6{fill:#FFFFFF;}
</style>
<title>Asset 2</title>
<g id="Layer_2">
	<g id="OBJECTS">
		<path class="st0" d="M620,37.1c1.2-6.7-10.2-1.9-4.8,2c1.5,0.9,3.5,0.5,4.5-1.1C619.8,37.7,619.9,37.4,620,37.1z"/>
		<path class="st1" d="M609.8,109.7c1.2-6.7-10.2-1.9-4.8,2c1.5,0.9,3.5,0.5,4.5-1.1C609.6,110.3,609.7,110,609.8,109.7z"/>
		<path class="st2" d="M556.2,95.9c1.2-6.7-10.2-1.9-4.8,2c1.5,0.9,3.5,0.5,4.5-1.1C556,96.6,556.1,96.3,556.2,95.9z"/>
		<path class="st3" d="M627.1,72.6c1.7-9.6-14.6-2.8-6.9,2.8c2.2,1.3,5,0.7,6.4-1.5C626.8,73.5,627,73,627.1,72.6z"/>
		<path class="st3" d="M529.9,24.7c1.7-9.6-14.6-2.8-6.9,2.8c2.2,1.3,5,0.7,6.4-1.5C529.6,25.6,529.8,25.2,529.9,24.7z"/>
		<path class="st1" d="M584.9,54.2c-6.3-11.4-20.3,0.1-14.9,8.9c2.4,3.9,8.2,4.8,12,2.3C585.5,63,587,57.9,584.9,54.2z"/>
		<path class="st4" d="M616.2,30.4c0.3-1.6,0.1-3.5-1.5-4.5c-1.3-0.6-2.8-0.7-4.1-0.1c-1.4,0.5-2.5,1.6-3,3
			c-0.3,1.7,0.4,3.4,1.9,4.2c2.1,1.3,4.9,0.6,6.2-1.5C616,31.2,616.2,30.8,616.2,30.4c0.4-1.6-2-2.2-2.4-0.7
			c-0.3,1.1-1.4,1.7-2.4,1.4c-0.5-0.1-0.9-0.4-1.2-0.8c-0.1-0.1-0.2-0.3-0.2-0.5c0,0.3,0-0.1,0-0.2s0,0.1,0-0.1s-0.1,0.1,0-0.1
			c0.1-0.1,0.1-0.2,0.2-0.3c0.1-0.2,0.3-0.3,0.5-0.5c-0.1,0.1,0.4-0.3,0.5-0.3c0.2-0.1,0.4-0.2,0.6-0.2l0.4-0.1c0.3-0.1,0.1,0,0.3,0
			s0.7,0,0.5,0c0.1,0,0.3,0.1,0.4,0.1c0,0-0.1-0.1,0.2,0.1c0,0,0.2,0.2,0.2,0.1c0.2,0.5,0.3,1,0.2,1.5C613.6,31.3,616,32,616.2,30.4
			z"/>
		<path class="st4" d="M606,103c0.3-1.7,0.1-3.5-1.5-4.5c-1.3-0.6-2.8-0.7-4.1-0.1c-1.4,0.5-2.5,1.6-3,3c-0.3,1.7,0.4,3.4,1.9,4.2
			c2.1,1.3,4.9,0.6,6.2-1.6C605.7,103.8,605.9,103.4,606,103c0.3-1.6-2.1-2.2-2.4-0.7c-0.3,1.1-1.4,1.7-2.4,1.4
			c-0.5-0.1-0.9-0.4-1.2-0.8c-0.1-0.1-0.2-0.3-0.2-0.5c0,0.3,0-0.1,0-0.2s0,0.1,0-0.2s-0.1,0.2,0-0.1c0.1-0.1,0.1-0.2,0.2-0.3
			c0.1-0.2,0.3-0.3,0.5-0.4c-0.1,0.1,0.4-0.3,0.5-0.3c0.2-0.1,0.4-0.2,0.6-0.2l0.4-0.1c0.3-0.1,0.1,0,0.3-0.1s0.7,0,0.5,0
			c0.1,0,0.3,0.1,0.4,0.1c0,0-0.1-0.1,0.2,0.1c0,0,0.2,0.2,0.2,0.2c0.2,0.5,0.3,1,0.2,1.5C603.3,103.9,605.8,104.6,606,103z"/>
		<path class="st4" d="M552.4,89.3c0.3-1.7,0.1-3.5-1.5-4.5c-1.3-0.6-2.8-0.7-4.1-0.1c-1.4,0.5-2.5,1.6-3,3
			c-0.3,1.7,0.4,3.4,1.9,4.2c2.1,1.3,4.9,0.6,6.2-1.5C552.2,90.1,552.3,89.7,552.4,89.3c0.3-1.5-2.1-2.2-2.4-0.6
			c-0.3,1.1-1.4,1.7-2.4,1.4c-0.5-0.1-0.9-0.4-1.2-0.8c-0.1-0.1-0.2-0.3-0.2-0.5c0,0.3,0-0.1,0-0.2s0,0.1,0-0.2s-0.1,0.2,0-0.1
			c0.1-0.1,0.1-0.2,0.2-0.3c0.1-0.2,0.3-0.3,0.5-0.4c-0.1,0.1,0.4-0.3,0.5-0.3c0.2-0.1,0.4-0.2,0.7-0.3l0.4-0.1
			c0.3-0.1,0.1,0,0.3-0.1s0.7,0,0.5,0c0.1,0,0.3,0.1,0.4,0.1c0,0-0.1-0.1,0.2,0.1c0,0,0.2,0.2,0.2,0.2c0.2,0.5,0.3,1,0.2,1.5
			C549.8,90.2,552.2,90.9,552.4,89.3z"/>
		<path class="st4" d="M623.3,65.9c0.3-2.1,0.1-4.6-1.9-5.8c-1.7-0.8-3.7-0.8-5.4,0c-1.9,0.6-3.3,2.1-4,3.9
			c-0.6,2.2,0.8,4.2,2.5,5.4c2.8,1.7,6.4,0.8,8.1-2C622.9,67,623.1,66.5,623.3,65.9c0.3-1.5-2.1-2.2-2.4-0.6
			c-0.5,1.8-2.3,2.9-4.1,2.4c-0.8-0.2-1.5-0.7-2-1.4c-0.8-1.1-0.3-2.2,0.8-3c1-0.9,2.4-1.4,3.8-1.3c1.6,0.2,1.9,1.7,1.7,3.2
			C620.7,66.7,623,67.5,623.3,65.9z"/>
		<path class="st4" d="M526.1,18.1c0.3-2.1,0.1-4.6-1.9-5.8c-1.7-0.8-3.7-0.8-5.4,0c-1.9,0.6-3.3,2.1-4,3.9
			c-0.6,2.2,0.8,4.2,2.5,5.4c2.8,1.7,6.4,0.8,8.1-2C525.7,19.2,525.9,18.6,526.1,18.1c0.3-1.5-2.1-2.2-2.4-0.6
			c-0.5,1.8-2.3,2.9-4.1,2.4c-0.8-0.2-1.5-0.7-2-1.4c-0.8-1.1-0.3-2.2,0.8-3c1-0.9,2.4-1.3,3.7-1.3c1.6,0.2,1.9,1.7,1.7,3.2
			S525.8,19.6,526.1,18.1z"/>
		<path class="st4" d="M581,46.5c-2.6-4.4-7.2-6.8-12.1-4.5c-4.2,2-7,6.7-6.2,11.4c1,5.7,7.2,8.8,12.6,7
			C581.1,58.7,583.5,51.8,581,46.5c-0.7-1.5-2.9-0.2-2.2,1.2c1.8,3.7,0.2,8.2-3.6,10c-0.8,0.4-1.6,0.6-2.5,0.7
			c-4.2,0.3-8-2.8-7.7-7.1c0.3-3.1,2.2-5.8,5.1-7.1c3.7-1.6,6.8,0.4,8.7,3.6c0.4,0.5,1.2,0.7,1.8,0.2C581,47.7,581.2,47.1,581,46.5z
			"/>
		<path class="st0" d="M126.3,92.5c1.2-6.7-10.2-1.9-4.8,2c1.5,0.9,3.5,0.5,4.5-1.1C126.1,93.1,126.2,92.8,126.3,92.5z"/>
		<path class="st2" d="M37,28c1.2-6.7-10.2-1.9-4.8,2c1.5,0.9,3.5,0.5,4.5-1.1C36.8,28.6,36.9,28.3,37,28z"/>
		<path class="st0" d="M12.5,80.6c1.2-6.7-10.2-1.9-4.8,2c1.5,0.9,3.5,0.5,4.5-1.1C12.3,81.2,12.4,80.9,12.5,80.6z"/>
		<path class="st3" d="M161.4,19.7c1.2-6.7-10.2-1.9-4.8,2c1.5,0.9,3.5,0.5,4.5-1.1C161.2,20.3,161.3,20,161.4,19.7z"/>
		<path class="st3" d="M85.9,34.2c1.7-9.6-14.6-2.8-6.9,2.8c2.2,1.3,5,0.6,6.4-1.6C85.6,35,85.8,34.6,85.9,34.2z"/>
		<path class="st3" d="M55.6,124.3c1.7-9.6-14.6-2.8-6.9,2.8c2.2,1.3,5,0.7,6.4-1.5C55.3,125.2,55.5,124.8,55.6,124.3z"/>
		<path class="st2" d="M137.8,55.5c5.9-12.3-17.2-9.5-10,0.9C130.1,59.7,136,59.1,137.8,55.5z"/>
		<path class="st1" d="M82.2,71.9c-6.3-11.4-20.4,0.1-14.9,8.9c2.4,3.8,8.2,4.8,12,2.3C82.8,80.7,84.2,75.6,82.2,71.9z"/>
		<path class="st4" d="M122.5,85.8c0.3-1.7,0.1-3.5-1.5-4.5c-1.3-0.6-2.8-0.7-4.1-0.1c-1.4,0.5-2.5,1.6-3,3
			c-0.3,1.7,0.4,3.4,1.9,4.2c2.1,1.3,4.9,0.6,6.2-1.5C122.2,86.6,122.4,86.2,122.5,85.8c0.4-1.6-2-2.2-2.4-0.7
			c-0.3,1.1-1.4,1.7-2.4,1.4c-0.5-0.1-0.9-0.4-1.2-0.8c-0.1-0.1-0.2-0.3-0.2-0.5c0,0.3,0-0.1,0-0.2s0,0.1,0-0.2s-0.1,0.2,0-0.1
			c0.1-0.1,0.1-0.2,0.2-0.3c0.1-0.2,0.3-0.3,0.4-0.4c-0.1,0.1,0.4-0.3,0.5-0.3c0.2-0.1,0.4-0.2,0.6-0.2l0.4-0.1
			c0.3-0.1,0.1,0,0.3-0.1s0.7,0,0.5,0c0.1,0,0.3,0.1,0.4,0.1c0,0-0.1-0.1,0.2,0.1c0,0,0.2,0.2,0.2,0.2c0.2,0.5,0.3,1,0.2,1.5
			C119.8,86.7,122.2,87.4,122.5,85.8z"/>
		<path class="st4" d="M33.2,21.3c0.3-1.6,0.1-3.5-1.5-4.5c-1.3-0.6-2.8-0.7-4.1-0.1c-1.4,0.5-2.5,1.6-3,3c-0.3,1.7,0.4,3.4,1.9,4.2
			c2.1,1.3,4.9,0.6,6.2-1.5C32.9,22.1,33.1,21.7,33.2,21.3c0.3-1.6-2.1-2.3-2.4-0.7c-0.3,1.1-1.4,1.7-2.4,1.4
			c-0.5-0.1-0.9-0.4-1.2-0.8c-0.1-0.1-0.2-0.3-0.2-0.5c0,0.3,0-0.1,0-0.2s0,0.1,0-0.1s-0.1,0.1,0-0.1c0.1-0.1,0.1-0.2,0.2-0.3
			c0.1-0.2,0.3-0.3,0.5-0.5c-0.1,0.1,0.4-0.3,0.5-0.3c0.2-0.1,0.4-0.2,0.6-0.2l0.4-0.1c0.3-0.1,0.1,0,0.3,0s0.7,0,0.5,0
			c0.1,0,0.3,0.1,0.4,0.1c0,0-0.1-0.1,0.1,0.1c0,0,0.2,0.2,0.2,0.1c0.2,0.5,0.3,1,0.2,1.5C30.5,22.2,33,22.9,33.2,21.3z"/>
		<path class="st4" d="M8.7,73.9c0.3-1.7,0.1-3.5-1.5-4.5c-1.3-0.6-2.8-0.7-4.1-0.1c-1.4,0.5-2.5,1.6-3,3C-0.2,74,0.6,75.7,2,76.6
			c2.1,1.3,4.9,0.6,6.2-1.5C8.5,74.7,8.6,74.3,8.7,73.9c0.4-1.6-2.1-2.2-2.4-0.7C6,74.3,5,75,3.9,74.7c-0.5-0.1-0.9-0.4-1.2-0.8
			c-0.1-0.1-0.2-0.3-0.2-0.5c0,0.3,0-0.1,0-0.2s0,0.1,0-0.2s-0.1,0.2,0-0.1c0.1-0.1,0.1-0.2,0.2-0.3c0.1-0.2,0.3-0.3,0.5-0.4
			c-0.1,0.1,0.4-0.3,0.5-0.3c0.2-0.1,0.4-0.2,0.6-0.2l0.4-0.1c0.3-0.1,0.1,0,0.3-0.1s0.7,0,0.5,0c0.1,0,0.3,0.1,0.4,0.1
			c0,0-0.1-0.1,0.2,0.1c0,0,0.2,0.2,0.2,0.2c0.2,0.5,0.3,1,0.2,1.5C6.1,74.8,8.5,75.5,8.7,73.9z"/>
		<path class="st4" d="M157.6,13c0.3-1.6,0.1-3.5-1.5-4.5c-1.3-0.6-2.8-0.6-4.1,0c-1.4,0.5-2.5,1.6-3,3c-0.3,1.7,0.4,3.4,1.9,4.2
			c2.1,1.3,4.9,0.6,6.2-1.5C157.3,13.8,157.5,13.4,157.6,13c0.4-1.5-2-2.2-2.4-0.6c-0.3,1.1-1.4,1.7-2.4,1.4
			c-0.5-0.1-0.9-0.4-1.2-0.8c-0.1-0.1-0.2-0.3-0.2-0.5c0,0.3,0-0.1,0-0.2s0,0.1,0-0.1s-0.1,0.1,0-0.1c0.1-0.1,0.1-0.2,0.2-0.3
			c0.1-0.2,0.3-0.3,0.4-0.4c-0.1,0.1,0.4-0.3,0.5-0.3c0.2-0.1,0.4-0.2,0.6-0.2l0.4-0.1c0.3-0.1,0.1,0,0.3-0.1s0.7,0,0.5,0
			c0.1,0,0.3,0.1,0.4,0.1c0,0-0.1-0.1,0.1,0.1c0,0,0.2,0.2,0.2,0.1c0.2,0.5,0.3,1,0.2,1.5C154.9,13.9,157.3,14.6,157.6,13z"/>
		<path class="st4" d="M82.1,27.5c0.3-2.1,0.1-4.6-1.9-5.8c-1.7-0.8-3.7-0.8-5.4,0c-1.9,0.6-3.3,2.1-4,3.9c-0.6,2.2,0.8,4.2,2.5,5.4
			c2.8,1.7,6.4,0.8,8.1-2C81.7,28.6,81.9,28.1,82.1,27.5c0.3-1.5-2.1-2.2-2.5-0.6c-0.5,1.8-2.3,2.9-4.1,2.4c-0.8-0.2-1.5-0.7-2-1.4
			c-0.8-1.1-0.3-2.2,0.8-3c1-0.9,2.4-1.3,3.7-1.3c1.6,0.2,1.9,1.7,1.7,3.2S81.8,29.1,82.1,27.5z"/>
		<path class="st4" d="M51.8,117.7c0.3-2.1,0.1-4.6-1.9-5.8c-1.7-0.8-3.7-0.8-5.4,0c-1.9,0.6-3.3,2.1-4,3.9
			c-0.6,2.2,0.8,4.2,2.5,5.4c2.8,1.7,6.4,0.8,8.1-2C51.4,118.8,51.6,118.3,51.8,117.7c0.3-1.5-2.1-2.2-2.5-0.6
			c-0.5,1.8-2.3,2.9-4.1,2.4c-0.8-0.2-1.5-0.7-2-1.4c-0.8-1.1-0.3-2.2,0.8-3c1-0.9,2.4-1.3,3.7-1.2c1.6,0.2,1.9,1.7,1.7,3.2
			S51.5,119.3,51.8,117.7z"/>
		<path class="st4" d="M133.9,49.1c1.1-2.5,1.9-5.6-0.2-7.9c-1.7-1.8-4.3-2.3-6.7-2c-2.5,0.2-4.7,1.5-6.1,3.5
			c-1.5,2.5-0.6,5.8,1.3,7.9C125.3,54.2,131.7,53.2,133.9,49.1c0.7-1.4-1.4-2.7-2.2-1.3c-2.1,3.9-7.6,2.9-8.9-1
			c-0.7-2,0.4-3.7,2.3-4.6c1.8-0.8,3.8-0.9,5.6-0.2c2.3,1.1,1.9,3.7,0.9,5.7C131,49.3,133.2,50.6,133.9,49.1z"/>
		<path class="st4" d="M78.3,64.3c-2.6-4.4-7.2-6.8-12.1-4.5c-4.2,2-7,6.7-6.2,11.4c1,5.7,7.2,8.8,12.6,7.1
			C78.4,76.4,80.8,69.6,78.3,64.3c-0.7-1.5-2.9-0.2-2.2,1.2c1.8,3.7,0.2,8.2-3.5,10c-0.8,0.4-1.7,0.6-2.6,0.7
			c-4.2,0.3-8-2.8-7.7-7.1c0.3-3.1,2.3-5.8,5.1-7.1c3.7-1.6,6.8,0.4,8.7,3.6c0.4,0.6,1.1,0.8,1.7,0.4C78.4,65.7,78.6,64.9,78.3,64.3
			z"/>
		<g class="st5">
			<path d="M244.1,102.3c0.1,0.3,0.1,0.7,0.1,1.2c0,0.5,0,0.9-0.1,1.2h-1.2c0.1,0.3,0.1,0.7,0.1,1.2c0,0.5,0,0.9-0.1,1.2h-6
				c-0.1-0.3-0.1-0.7-0.1-1.2c0-0.5,0-0.9,0.1-1.2h-1.2c-0.1-0.3-0.1-0.7-0.1-1.2c0-0.5,0-0.9,0.1-1.2h-1.2
				c-0.1-0.3-0.1-0.7-0.1-1.2c0-0.5,0-0.9,0.1-1.2h1.2c-0.1-0.3-0.1-0.7-0.1-1.2c0-0.5,0-0.9,0.1-1.2h1.2c-0.1-0.3-0.1-0.7-0.1-1.2
				c0-0.5,0-0.9,0.1-1.2h6c0.1,0.3,0.1,0.7,0.1,1.2c0,0.5,0,0.9-0.1,1.2h1.2c0.1,0.3,0.1,0.7,0.1,1.2c0,0.5,0,0.9-0.1,1.2h-2.4
				c-0.1-0.3-0.1-0.7-0.1-1.2c0-0.5,0-0.9,0.1-1.2h-3.6c0.1,0.3,0.1,0.7,0.1,1.2c0,0.5,0,0.9-0.1,1.2h-1.2c0.1,0.3,0.1,0.7,0.1,1.2
				c0,0.5,0,0.9-0.1,1.2h1.2c0.1,0.3,0.1,0.7,0.1,1.2c0,0.5,0,0.9-0.1,1.2h3.6c-0.1-0.3-0.1-0.7-0.1-1.2c0-0.5,0-0.9,0.1-1.2H244.1z
				"/>
			<path d="M256.2,105.9c0,0.5,0,0.9-0.1,1.2h-2.4c-0.1-0.3-0.1-0.7-0.1-1.2c0-0.5,0-0.9,0.1-1.2h-1.2c-0.1-0.3-0.1-0.7-0.1-1.2
				c0-0.5,0-0.9,0.1-1.2h-3.6c0.1,0.3,0.1,0.7,0.1,1.2c0,0.5,0,0.9-0.1,1.2h3.6c0.1,0.3,0.1,0.7,0.1,1.2c0,0.5,0,0.9-0.1,1.2h-4.8
				c-0.1-0.3-0.1-0.7-0.1-1.2c0-0.5,0-0.9,0.1-1.2h-1.2c-0.1-0.3-0.1-0.7-0.1-1.2c0-0.5,0-0.9,0.1-1.2h1.2c-0.1-0.3-0.1-0.7-0.1-1.2
				c0-0.5,0-0.9,0.1-1.2h4.8c-0.1-0.3-0.1-0.7-0.1-1.2c0-0.5,0-0.9,0.1-1.2h-4.2c-0.1-0.3-0.1-0.7-0.1-1.2c0-0.5,0-0.9,0.1-1.2h5.4
				c0.1,0.3,0.1,0.7,0.1,1.2c0,0.5,0,0.9-0.1,1.2h1.2c0.1,0.3,0.1,0.7,0.1,1.2c0,0.5,0,0.9-0.1,1.2c0.1,0.3,0.1,0.7,0.1,1.2
				c0,0.5,0,0.9-0.1,1.2c0.1,0.3,0.1,0.7,0.1,1.2c0,0.5,0,0.9-0.1,1.2h1.2C256.2,105,256.2,105.4,256.2,105.9z"/>
			<path d="M266.9,104.7c0.1,0.3,0.1,0.7,0.1,1.2c0,0.5,0,0.9-0.1,1.2h-4.8c-0.1-0.3-0.1-0.7-0.1-1.2c0-0.5,0-0.9,0.1-1.2h-1.2
				c-0.1-0.3-0.1-0.7-0.1-1.2c0-0.5,0-0.9,0.1-1.2c-0.1-0.3-0.1-0.7-0.1-1.2c0-0.5,0-0.9,0.1-1.2c-0.1-0.3-0.1-0.7-0.1-1.2
				c0-0.5,0-0.9,0.1-1.2h-2.4c-0.1-0.3-0.1-0.7-0.1-1.2c0-0.5,0-0.9,0.1-1.2h2.4c-0.1-0.3-0.1-0.7-0.1-1.2c0-0.5,0-0.9,0.1-1.2
				c-0.1-0.3-0.1-0.7-0.1-1.2c0-0.5,0-0.9,0.1-1.2h2.4c0.1,0.3,0.1,0.7,0.1,1.2c0,0.5,0,0.9-0.1,1.2c0.1,0.3,0.1,0.7,0.1,1.2
				c0,0.5,0,0.9-0.1,1.2h3.6c0.1,0.3,0.1,0.7,0.1,1.2c0,0.5,0,0.9-0.1,1.2h-3.6c0.1,0.3,0.1,0.7,0.1,1.2c0,0.5,0,0.9-0.1,1.2
				c0.1,0.3,0.1,0.7,0.1,1.2c0,0.5,0,0.9-0.1,1.2c0.1,0.3,0.1,0.7,0.1,1.2c0,0.5,0,0.9-0.1,1.2H266.9z"/>
			<path d="M279.5,104.7h-1.2c0.1,0.3,0.1,0.7,0.1,1.2c0,0.5,0,0.9-0.1,1.2h-6.6c-0.1-0.3-0.1-0.7-0.1-1.2c0-0.5,0-0.9,0.1-1.2h5.4
				c-0.1-0.3-0.1-0.7-0.1-1.2c0-0.5,0-0.9,0.1-1.2h-4.8c-0.1-0.3-0.1-0.7-0.1-1.2c0-0.5,0-0.9,0.1-1.2h-1.2
				c-0.1-0.3-0.1-0.7-0.1-1.2c0-0.5,0-0.9,0.1-1.2h1.2c-0.1-0.3-0.1-0.7-0.1-1.2c0-0.5,0-0.9,0.1-1.2h6.6c0.1,0.3,0.1,0.7,0.1,1.2
				c0,0.5,0,0.9-0.1,1.2h-5.4c0.1,0.3,0.1,0.7,0.1,1.2c0,0.5,0,0.9-0.1,1.2h4.8c0.1,0.3,0.1,0.7,0.1,1.2c0,0.5,0,0.9-0.1,1.2h1.2
				c0.1,0.3,0.1,0.7,0.1,1.2C279.6,104,279.6,104.4,279.5,104.7z"/>
			<path d="M304.1,97.5h-0.9c0.1,0.3,0.1,0.7,0.1,1.2c0,0.5,0,0.9-0.1,1.2h-0.9c0.1,0.3,0.1,0.7,0.1,1.2c0,0.5,0,0.9-0.1,1.2h-0.6
				c0.1,0.3,0.1,0.7,0.1,1.2c0,0.5,0,0.9-0.1,1.2h-1.2c0.1,0.3,0.1,0.7,0.1,1.2c0,0.5,0,0.9-0.1,1.2h-2.4c-0.1-0.3-0.1-0.7-0.1-1.2
				c0-0.5,0-0.9,0.1-1.2h-1.2c-0.1-0.3-0.1-0.7-0.1-1.2c0-0.5,0-0.9,0.1-1.2h-0.6c-0.1-0.3-0.1-0.7-0.1-1.2c0-0.5,0-0.9,0.1-1.2
				h-0.9c-0.1-0.3-0.1-0.7-0.1-1.2c0-0.5,0-0.9,0.1-1.2h-0.9c-0.1-0.3-0.1-0.7-0.1-1.2c0-0.5,0-0.9,0.1-1.2h2.4
				c0.1,0.3,0.1,0.7,0.1,1.2c0,0.5,0,0.9-0.1,1.2h0.9c0.1,0.3,0.1,0.7,0.1,1.2c0,0.5,0,0.9-0.1,1.2h0.9c0.1,0.3,0.1,0.7,0.1,1.2
				c0,0.5,0,0.9-0.1,1.2h1.2c-0.1-0.3-0.1-0.7-0.1-1.2c0-0.5,0-0.9,0.1-1.2h0.9c-0.1-0.3-0.1-0.7-0.1-1.2c0-0.5,0-0.9,0.1-1.2h0.9
				c-0.1-0.3-0.1-0.7-0.1-1.2c0-0.5,0-0.9,0.1-1.2h2.4c0.1,0.3,0.1,0.7,0.1,1.2C304.2,96.8,304.2,97.2,304.1,97.5z"/>
			<path d="M315.5,104.7h-1.2c0.1,0.3,0.1,0.7,0.1,1.2c0,0.5,0,0.9-0.1,1.2h-6.6c-0.1-0.3-0.1-0.7-0.1-1.2c0-0.5,0-0.9,0.1-1.2h5.4
				c-0.1-0.3-0.1-0.7-0.1-1.2c0-0.5,0-0.9,0.1-1.2h-4.8c-0.1-0.3-0.1-0.7-0.1-1.2c0-0.5,0-0.9,0.1-1.2h-1.2
				c-0.1-0.3-0.1-0.7-0.1-1.2c0-0.5,0-0.9,0.1-1.2h1.2c-0.1-0.3-0.1-0.7-0.1-1.2c0-0.5,0-0.9,0.1-1.2h6.6c0.1,0.3,0.1,0.7,0.1,1.2
				c0,0.5,0,0.9-0.1,1.2h-5.4c0.1,0.3,0.1,0.7,0.1,1.2c0,0.5,0,0.9-0.1,1.2h4.8c0.1,0.3,0.1,0.7,0.1,1.2c0,0.5,0,0.9-0.1,1.2h1.2
				c0.1,0.3,0.1,0.7,0.1,1.2C315.6,104,315.6,104.4,315.5,104.7z"/>
			<path d="M324.8,104.7c0.1,0.3,0.1,0.7,0.1,1.2c0,0.5,0,0.9-0.1,1.2h-3c-0.1-0.3-0.1-0.7-0.1-1.2c0-0.5,0-0.9,0.1-1.2
				c-0.1-0.3-0.1-0.7-0.1-1.2c0-0.5,0-0.9,0.1-1.2h3c0.1,0.3,0.1,0.7,0.1,1.2C324.9,104,324.9,104.4,324.8,104.7z"/>
			<path d="M352.2,98.7c0,0.5,0,0.9-0.1,1.2h-2.4c-0.1-0.3-0.1-0.7-0.1-1.2c0-0.5,0-0.9,0.1-1.2h-2.1c0.1,0.3,0.1,0.7,0.1,1.2
				c0,0.5,0,0.9-0.1,1.2h-0.9c0.1,0.3,0.1,0.7,0.1,1.2c0,0.5,0,0.9-0.1,1.2c0.1,0.3,0.1,0.7,0.1,1.2c0,0.5,0,0.9-0.1,1.2h1.8
				c0.1,0.3,0.1,0.7,0.1,1.2c0,0.5,0,0.9-0.1,1.2h-6c-0.1-0.3-0.1-0.7-0.1-1.2c0-0.5,0-0.9,0.1-1.2h1.8c-0.1-0.3-0.1-0.7-0.1-1.2
				c0-0.5,0-0.9,0.1-1.2c-0.1-0.3-0.1-0.7-0.1-1.2c0-0.5,0-0.9,0.1-1.2c-0.1-0.3-0.1-0.7-0.1-1.2c0-0.5,0-0.9,0.1-1.2h-1.8
				c-0.1-0.3-0.1-0.7-0.1-1.2c0-0.5,0-0.9,0.1-1.2h3c0.1,0.3,0.1,0.7,0.1,1.2c0,0.5,0,0.9-0.1,1.2h1.2c-0.1-0.3-0.1-0.7-0.1-1.2
				c0-0.5,0-0.9,0.1-1.2h4.5c0.1,0.3,0.1,0.7,0.1,1.2c0,0.5,0,0.9-0.1,1.2h0.9C352.2,97.8,352.2,98.2,352.2,98.7z"/>
			<path d="M364.1,102.3h-0.9c0.1,0.3,0.1,0.7,0.1,1.2c0,0.5,0,0.9-0.1,1.2h-1.5c0.1,0.3,0.1,0.7,0.1,1.2c0,0.5,0,0.9-0.1,1.2h-4.8
				c-0.1-0.3-0.1-0.7-0.1-1.2c0-0.5,0-0.9,0.1-1.2h-1.5c-0.1-0.3-0.1-0.7-0.1-1.2c0-0.5,0-0.9,0.1-1.2h-0.9
				c-0.1-0.3-0.1-0.7-0.1-1.2c0-0.5,0-0.9,0.1-1.2h0.9c-0.1-0.3-0.1-0.7-0.1-1.2c0-0.5,0-0.9,0.1-1.2h1.5c-0.1-0.3-0.1-0.7-0.1-1.2
				c0-0.5,0-0.9,0.1-1.2h4.8c0.1,0.3,0.1,0.7,0.1,1.2c0,0.5,0,0.9-0.1,1.2h1.5c0.1,0.3,0.1,0.7,0.1,1.2c0,0.5,0,0.9-0.1,1.2h0.9
				c0.1,0.3,0.1,0.7,0.1,1.2C364.2,101.6,364.2,102,364.1,102.3z M361.7,102.3c-0.1-0.3-0.1-0.7-0.1-1.2c0-0.5,0-0.9,0.1-1.2h-0.9
				c-0.1-0.3-0.1-0.7-0.1-1.2c0-0.5,0-0.9,0.1-1.2h-3c0.1,0.3,0.1,0.7,0.1,1.2c0,0.5,0,0.9-0.1,1.2h-0.9c0.1,0.3,0.1,0.7,0.1,1.2
				c0,0.5,0,0.9-0.1,1.2h0.9c0.1,0.3,0.1,0.7,0.1,1.2c0,0.5,0,0.9-0.1,1.2h3c-0.1-0.3-0.1-0.7-0.1-1.2c0-0.5,0-0.9,0.1-1.2H361.7z"
				/>
			<path d="M369,103.5c0,0.5,0,0.9-0.1,1.2h-1.2c0.1,0.3,0.1,0.7,0.1,1.2c0,0.5,0,0.9-0.1,1.2h-1.2c-0.1-0.3-0.1-0.7-0.1-1.2
				c0-0.5,0-0.9,0.1-1.2c-0.1-0.3-0.1-0.7-0.1-1.2c0-0.5,0-0.9,0.1-1.2c-0.1-0.3-0.1-0.7-0.1-1.2c0-0.5,0-0.9,0.1-1.2
				c-0.1-0.3-0.1-0.7-0.1-1.2c0-0.5,0-0.9,0.1-1.2c-0.1-0.3-0.1-0.7-0.1-1.2c0-0.5,0-0.9,0.1-1.2c-0.1-0.3-0.1-0.7-0.1-1.2
				c0-0.5,0-0.9,0.1-1.2c-0.1-0.3-0.1-0.7-0.1-1.2c0-0.5,0-0.9,0.1-1.2h2.4c0.1,0.3,0.1,0.7,0.1,1.2c0,0.5,0,0.9-0.1,1.2
				c0.1,0.3,0.1,0.7,0.1,1.2c0,0.5,0,0.9-0.1,1.2c0.1,0.3,0.1,0.7,0.1,1.2c0,0.5,0,0.9-0.1,1.2h1.2c0.1,0.3,0.1,0.7,0.1,1.2
				c0,0.5,0,0.9-0.1,1.2h-1.2c0.1,0.3,0.1,0.7,0.1,1.2c0,0.5,0,0.9-0.1,1.2C369,102.6,369,103,369,103.5z M368.9,104.7h3.6
				c0.1,0.3,0.1,0.7,0.1,1.2c0,0.5,0,0.9-0.1,1.2h-3.6c-0.1-0.3-0.1-0.7-0.1-1.2C368.8,105.4,368.8,105,368.9,104.7z M376.1,102.3
				h-1.2c0.1,0.3,0.1,0.7,0.1,1.2c0,0.5,0,0.9-0.1,1.2h-2.4c-0.1-0.3-0.1-0.7-0.1-1.2c0-0.5,0-0.9,0.1-1.2h1.2
				c-0.1-0.3-0.1-0.7-0.1-1.2c0-0.5,0-0.9,0.1-1.2h-1.2c-0.1-0.3-0.1-0.7-0.1-1.2c0-0.5,0-0.9,0.1-1.2h-2.4
				c-0.1-0.3-0.1-0.7-0.1-1.2c0-0.5,0-0.9,0.1-1.2h3.6c0.1,0.3,0.1,0.7,0.1,1.2c0,0.5,0,0.9-0.1,1.2h1.2c0.1,0.3,0.1,0.7,0.1,1.2
				c0,0.5,0,0.9-0.1,1.2h1.2c0.1,0.3,0.1,0.7,0.1,1.2C376.2,101.6,376.2,102,376.1,102.3z"/>
			<path d="M388.1,102.3h-0.9c0.1,0.3,0.1,0.7,0.1,1.2c0,0.5,0,0.9-0.1,1.2h-1.5c0.1,0.3,0.1,0.7,0.1,1.2c0,0.5,0,0.9-0.1,1.2h-4.8
				c-0.1-0.3-0.1-0.7-0.1-1.2c0-0.5,0-0.9,0.1-1.2h-1.5c-0.1-0.3-0.1-0.7-0.1-1.2c0-0.5,0-0.9,0.1-1.2h-0.9
				c-0.1-0.3-0.1-0.7-0.1-1.2c0-0.5,0-0.9,0.1-1.2h0.9c-0.1-0.3-0.1-0.7-0.1-1.2c0-0.5,0-0.9,0.1-1.2h1.5c-0.1-0.3-0.1-0.7-0.1-1.2
				c0-0.5,0-0.9,0.1-1.2h4.8c0.1,0.3,0.1,0.7,0.1,1.2c0,0.5,0,0.9-0.1,1.2h1.5c0.1,0.3,0.1,0.7,0.1,1.2c0,0.5,0,0.9-0.1,1.2h0.9
				c0.1,0.3,0.1,0.7,0.1,1.2C388.2,101.6,388.2,102,388.1,102.3z M385.7,102.3c-0.1-0.3-0.1-0.7-0.1-1.2c0-0.5,0-0.9,0.1-1.2h-0.9
				c-0.1-0.3-0.1-0.7-0.1-1.2c0-0.5,0-0.9,0.1-1.2h-3c0.1,0.3,0.1,0.7,0.1,1.2c0,0.5,0,0.9-0.1,1.2h-0.9c0.1,0.3,0.1,0.7,0.1,1.2
				c0,0.5,0,0.9-0.1,1.2h0.9c0.1,0.3,0.1,0.7,0.1,1.2c0,0.5,0,0.9-0.1,1.2h3c-0.1-0.3-0.1-0.7-0.1-1.2c0-0.5,0-0.9,0.1-1.2H385.7z"
				/>
			<path d="M398.9,104.7c0.1,0.3,0.1,0.7,0.1,1.2c0,0.5,0,0.9-0.1,1.2h-4.8c-0.1-0.3-0.1-0.7-0.1-1.2c0-0.5,0-0.9,0.1-1.2h-1.2
				c-0.1-0.3-0.1-0.7-0.1-1.2c0-0.5,0-0.9,0.1-1.2c-0.1-0.3-0.1-0.7-0.1-1.2c0-0.5,0-0.9,0.1-1.2c-0.1-0.3-0.1-0.7-0.1-1.2
				c0-0.5,0-0.9,0.1-1.2h-2.4c-0.1-0.3-0.1-0.7-0.1-1.2c0-0.5,0-0.9,0.1-1.2h2.4c-0.1-0.3-0.1-0.7-0.1-1.2c0-0.5,0-0.9,0.1-1.2
				c-0.1-0.3-0.1-0.7-0.1-1.2c0-0.5,0-0.9,0.1-1.2h2.4c0.1,0.3,0.1,0.7,0.1,1.2c0,0.5,0,0.9-0.1,1.2c0.1,0.3,0.1,0.7,0.1,1.2
				c0,0.5,0,0.9-0.1,1.2h3.6c0.1,0.3,0.1,0.7,0.1,1.2c0,0.5,0,0.9-0.1,1.2h-3.6c0.1,0.3,0.1,0.7,0.1,1.2c0,0.5,0,0.9-0.1,1.2
				c0.1,0.3,0.1,0.7,0.1,1.2c0,0.5,0,0.9-0.1,1.2c0.1,0.3,0.1,0.7,0.1,1.2c0,0.5,0,0.9-0.1,1.2H398.9z"/>
			<path d="M411.5,104.7h-1.2c0.1,0.3,0.1,0.7,0.1,1.2c0,0.5,0,0.9-0.1,1.2h-6.6c-0.1-0.3-0.1-0.7-0.1-1.2c0-0.5,0-0.9,0.1-1.2h5.4
				c-0.1-0.3-0.1-0.7-0.1-1.2c0-0.5,0-0.9,0.1-1.2h-4.8c-0.1-0.3-0.1-0.7-0.1-1.2c0-0.5,0-0.9,0.1-1.2h-1.2
				c-0.1-0.3-0.1-0.7-0.1-1.2c0-0.5,0-0.9,0.1-1.2h1.2c-0.1-0.3-0.1-0.7-0.1-1.2c0-0.5,0-0.9,0.1-1.2h6.6c0.1,0.3,0.1,0.7,0.1,1.2
				c0,0.5,0,0.9-0.1,1.2h-5.4c0.1,0.3,0.1,0.7,0.1,1.2c0,0.5,0,0.9-0.1,1.2h4.8c0.1,0.3,0.1,0.7,0.1,1.2c0,0.5,0,0.9-0.1,1.2h1.2
				c0.1,0.3,0.1,0.7,0.1,1.2C411.6,104,411.6,104.4,411.5,104.7z"/>
		</g>
		<g class="st5">
			<path d="M237.1,67.1c0.2,1,0.4,2.2,0.4,3.6c0,1.4-0.1,2.6-0.4,3.6h-7.2c-0.2-1-0.4-2.2-0.4-3.6c0-1.4,0.1-2.6,0.4-3.6h-2.7
				c-0.2-1-0.4-2.2-0.4-3.6c0-1.4,0.1-2.6,0.4-3.6h-2.7c-0.2-1-0.4-2.2-0.4-3.6c0-1.4,0.1-2.6,0.4-3.6h-9c0.2,1,0.4,2.2,0.4,3.6
				c0,1.4-0.1,2.6-0.4,3.6c0.2,1,0.4,2.2,0.4,3.6c0,1.4-0.1,2.6-0.4,3.6c0.2,1,0.4,2.2,0.4,3.6c0,1.4-0.1,2.6-0.4,3.6h-7.2
				c-0.2-1-0.4-2.2-0.4-3.6c0-1.4,0.1-2.6,0.4-3.6c-0.2-1-0.4-2.2-0.4-3.6c0-1.4,0.1-2.6,0.4-3.6c-0.2-1-0.4-2.2-0.4-3.6
				c0-1.4,0.1-2.6,0.4-3.6c-0.2-1-0.4-2.2-0.4-3.6c0-1.4,0.1-2.6,0.4-3.6c-0.2-1-0.4-2.2-0.4-3.6c0-1.4,0.1-2.6,0.4-3.6
				c-0.2-1-0.4-2.2-0.4-3.6c0-1.4,0.1-2.6,0.4-3.6c-0.2-1-0.4-2.2-0.4-3.6c0-1.4,0.1-2.6,0.4-3.6h25.2c0.2,1,0.4,2.2,0.4,3.6
				c0,1.4-0.1,2.6-0.4,3.6h3.6c0.2,1,0.4,2.2,0.4,3.6c0,1.4-0.1,2.6-0.4,3.6h-1.8c0.2,1,0.4,2.2,0.4,3.6c0,1.4-0.1,2.6-0.4,3.6h-5.4
				c0.2,1,0.4,2.2,0.4,3.6c0,1.4-0.1,2.6-0.4,3.6h1.8c0.2,1,0.4,2.2,0.4,3.6c0,1.4-0.1,2.6-0.4,3.6h2.7c0.2,1,0.4,2.2,0.4,3.6
				c0,1.4-0.1,2.6-0.4,3.6H237.1z M227.7,41.9c0-1.4,0.1-2.6,0.4-3.6c-0.2-1-0.4-2.2-0.4-3.6c0-1.4,0.1-2.6,0.4-3.6h-12.6
				c0.2,1,0.4,2.2,0.4,3.6c0,1.4-0.1,2.6-0.4,3.6c0.2,1,0.4,2.2,0.4,3.6c0,1.4-0.1,2.6-0.4,3.6h12.6
				C227.8,44.5,227.7,43.3,227.7,41.9z"/>
			<path d="M255.1,52.7c0.2,1,0.4,2.2,0.4,3.6c0,1.4-0.1,2.6-0.4,3.6c0.2,1,0.4,2.2,0.4,3.6c0,1.4-0.1,2.6-0.4,3.6h14.4
				c0.2,1,0.4,2.2,0.4,3.6c0,1.4-0.1,2.6-0.4,3.6h-21.6c-0.2-1-0.4-2.2-0.4-3.6c0-1.4,0.1-2.6,0.4-3.6c-0.2-1-0.4-2.2-0.4-3.6
				c0-1.4,0.1-2.6,0.4-3.6c-0.2-1-0.4-2.2-0.4-3.6c0-1.4,0.1-2.6,0.4-3.6c-0.2-1-0.4-2.2-0.4-3.6c0-1.4,0.1-2.6,0.4-3.6
				c-0.2-1-0.4-2.2-0.4-3.6c0-1.4,0.1-2.6,0.4-3.6c-0.2-1-0.4-2.2-0.4-3.6c0-1.4,0.1-2.6,0.4-3.6c-0.2-1-0.4-2.2-0.4-3.6
				c0-1.4,0.1-2.6,0.4-3.6h21.6c0.2,1,0.4,2.2,0.4,3.6c0,1.4-0.1,2.6-0.4,3.6h-14.4c0.2,1,0.4,2.2,0.4,3.6c0,1.4-0.1,2.6-0.4,3.6
				c0.2,1,0.4,2.2,0.4,3.6c0,1.4-0.1,2.6-0.4,3.6h14.4c0.2,1,0.4,2.2,0.4,3.6c0,1.4-0.1,2.6-0.4,3.6H255.1z"/>
			<path d="M309.4,34.7c0,1.4-0.1,2.6-0.4,3.6c0.2,1,0.4,2.2,0.4,3.6c0,1.4-0.1,2.6-0.4,3.6h-2.7c0.2,1,0.4,2.2,0.4,3.6
				c0,1.4-0.1,2.6-0.4,3.6h-2.7c0.2,1,0.4,2.2,0.4,3.6c0,1.4-0.1,2.6-0.4,3.6h-1.8c0.2,1,0.4,2.2,0.4,3.6c0,1.4-0.1,2.6-0.4,3.6
				h-3.6c0.2,1,0.4,2.2,0.4,3.6c0,1.4-0.1,2.6-0.4,3.6h-7.2c-0.2-1-0.4-2.2-0.4-3.6c0-1.4,0.1-2.6,0.4-3.6h-3.6
				c-0.2-1-0.4-2.2-0.4-3.6c0-1.4,0.1-2.6,0.4-3.6h-1.8c-0.2-1-0.4-2.2-0.4-3.6c0-1.4,0.1-2.6,0.4-3.6H283c-0.2-1-0.4-2.2-0.4-3.6
				c0-1.4,0.1-2.6,0.4-3.6h-2.7c-0.2-1-0.4-2.2-0.4-3.6c0-1.4,0.1-2.6,0.4-3.6c-0.2-1-0.4-2.2-0.4-3.6c0-1.4,0.1-2.6,0.4-3.6
				c-0.2-1-0.4-2.2-0.4-3.6c0-1.4,0.1-2.6,0.4-3.6h7.2c0.2,1,0.4,2.2,0.4,3.6c0,1.4-0.1,2.6-0.4,3.6c0.2,1,0.4,2.2,0.4,3.6
				c0,1.4-0.1,2.6-0.4,3.6c0.2,1,0.4,2.2,0.4,3.6c0,1.4-0.1,2.6-0.4,3.6h2.7c0.2,1,0.4,2.2,0.4,3.6c0,1.4-0.1,2.6-0.4,3.6h2.7
				c0.2,1,0.4,2.2,0.4,3.6c0,1.4-0.1,2.6-0.4,3.6h3.6c-0.2-1-0.4-2.2-0.4-3.6c0-1.4,0.1-2.6,0.4-3.6h2.7c-0.2-1-0.4-2.2-0.4-3.6
				c0-1.4,0.1-2.6,0.4-3.6h2.7c-0.2-1-0.4-2.2-0.4-3.6c0-1.4,0.1-2.6,0.4-3.6c-0.2-1-0.4-2.2-0.4-3.6c0-1.4,0.1-2.6,0.4-3.6
				c-0.2-1-0.4-2.2-0.4-3.6c0-1.4,0.1-2.6,0.4-3.6h7.2c0.2,1,0.4,2.2,0.4,3.6c0,1.4-0.1,2.6-0.4,3.6
				C309.3,32.1,309.4,33.2,309.4,34.7z"/>
			<path d="M327.1,52.7c0.2,1,0.4,2.2,0.4,3.6c0,1.4-0.1,2.6-0.4,3.6c0.2,1,0.4,2.2,0.4,3.6c0,1.4-0.1,2.6-0.4,3.6h14.4
				c0.2,1,0.4,2.2,0.4,3.6c0,1.4-0.1,2.6-0.4,3.6h-21.6c-0.2-1-0.4-2.2-0.4-3.6c0-1.4,0.1-2.6,0.4-3.6c-0.2-1-0.4-2.2-0.4-3.6
				c0-1.4,0.1-2.6,0.4-3.6c-0.2-1-0.4-2.2-0.4-3.6c0-1.4,0.1-2.6,0.4-3.6c-0.2-1-0.4-2.2-0.4-3.6c0-1.4,0.1-2.6,0.4-3.6
				c-0.2-1-0.4-2.2-0.4-3.6c0-1.4,0.1-2.6,0.4-3.6c-0.2-1-0.4-2.2-0.4-3.6c0-1.4,0.1-2.6,0.4-3.6c-0.2-1-0.4-2.2-0.4-3.6
				c0-1.4,0.1-2.6,0.4-3.6h21.6c0.2,1,0.4,2.2,0.4,3.6c0,1.4-0.1,2.6-0.4,3.6h-14.4c0.2,1,0.4,2.2,0.4,3.6c0,1.4-0.1,2.6-0.4,3.6
				c0.2,1,0.4,2.2,0.4,3.6c0,1.4-0.1,2.6-0.4,3.6h14.4c0.2,1,0.4,2.2,0.4,3.6c0,1.4-0.1,2.6-0.4,3.6H327.1z"/>
			<path d="M381.1,67.1c0.2,1,0.4,2.2,0.4,3.6c0,1.4-0.1,2.6-0.4,3.6h-7.2c-0.2-1-0.4-2.2-0.4-3.6c0-1.4,0.1-2.6,0.4-3.6h-2.7
				c-0.2-1-0.4-2.2-0.4-3.6c0-1.4,0.1-2.6,0.4-3.6h-2.7c-0.2-1-0.4-2.2-0.4-3.6c0-1.4,0.1-2.6,0.4-3.6h-9c0.2,1,0.4,2.2,0.4,3.6
				c0,1.4-0.1,2.6-0.4,3.6c0.2,1,0.4,2.2,0.4,3.6c0,1.4-0.1,2.6-0.4,3.6c0.2,1,0.4,2.2,0.4,3.6c0,1.4-0.1,2.6-0.4,3.6h-7.2
				c-0.2-1-0.4-2.2-0.4-3.6c0-1.4,0.1-2.6,0.4-3.6c-0.2-1-0.4-2.2-0.4-3.6c0-1.4,0.1-2.6,0.4-3.6c-0.2-1-0.4-2.2-0.4-3.6
				c0-1.4,0.1-2.6,0.4-3.6c-0.2-1-0.4-2.2-0.4-3.6c0-1.4,0.1-2.6,0.4-3.6c-0.2-1-0.4-2.2-0.4-3.6c0-1.4,0.1-2.6,0.4-3.6
				c-0.2-1-0.4-2.2-0.4-3.6c0-1.4,0.1-2.6,0.4-3.6c-0.2-1-0.4-2.2-0.4-3.6c0-1.4,0.1-2.6,0.4-3.6h25.2c0.2,1,0.4,2.2,0.4,3.6
				c0,1.4-0.1,2.6-0.4,3.6h3.6c0.2,1,0.4,2.2,0.4,3.6c0,1.4-0.1,2.6-0.4,3.6h-1.8c0.2,1,0.4,2.2,0.4,3.6c0,1.4-0.1,2.6-0.4,3.6h-5.4
				c0.2,1,0.4,2.2,0.4,3.6c0,1.4-0.1,2.6-0.4,3.6h1.8c0.2,1,0.4,2.2,0.4,3.6c0,1.4-0.1,2.6-0.4,3.6h2.7c0.2,1,0.4,2.2,0.4,3.6
				c0,1.4-0.1,2.6-0.4,3.6H381.1z M371.7,41.9c0-1.4,0.1-2.6,0.4-3.6c-0.2-1-0.4-2.2-0.4-3.6c0-1.4,0.1-2.6,0.4-3.6h-12.6
				c0.2,1,0.4,2.2,0.4,3.6c0,1.4-0.1,2.6-0.4,3.6c0.2,1,0.4,2.2,0.4,3.6c0,1.4-0.1,2.6-0.4,3.6h12.6
				C371.8,44.5,371.7,43.3,371.7,41.9z"/>
			<path d="M417.4,56.3c0,1.4-0.1,2.6-0.4,3.6c0.2,1,0.4,2.2,0.4,3.6c0,1.4-0.1,2.6-0.4,3.6h-3.6c0.2,1,0.4,2.2,0.4,3.6
				c0,1.4-0.1,2.6-0.4,3.6h-21.6c-0.2-1-0.4-2.2-0.4-3.6c0-1.4,0.1-2.6,0.4-3.6h-3.6c-0.2-1-0.4-2.2-0.4-3.6c0-1.4,0.1-2.6,0.4-3.6
				h7.2c0.2,1,0.4,2.2,0.4,3.6c0,1.4-0.1,2.6-0.4,3.6h14.4c-0.2-1-0.4-2.2-0.4-3.6c0-1.4,0.1-2.6,0.4-3.6c-0.2-1-0.4-2.2-0.4-3.6
				c0-1.4,0.1-2.6,0.4-3.6h-18c-0.2-1-0.4-2.2-0.4-3.6c0-1.4,0.1-2.6,0.4-3.6h-3.6c-0.2-1-0.4-2.2-0.4-3.6c0-1.4,0.1-2.6,0.4-3.6
				c-0.2-1-0.4-2.2-0.4-3.6c0-1.4,0.1-2.6,0.4-3.6h3.6c-0.2-1-0.4-2.2-0.4-3.6c0-1.4,0.1-2.6,0.4-3.6h21.6c0.2,1,0.4,2.2,0.4,3.6
				c0,1.4-0.1,2.6-0.4,3.6h3.6c0.2,1,0.4,2.2,0.4,3.6c0,1.4-0.1,2.6-0.4,3.6h-7.2c-0.2-1-0.4-2.2-0.4-3.6c0-1.4,0.1-2.6,0.4-3.6
				h-14.4c0.2,1,0.4,2.2,0.4,3.6c0,1.4-0.1,2.6-0.4,3.6c0.2,1,0.4,2.2,0.4,3.6c0,1.4-0.1,2.6-0.4,3.6h18c0.2,1,0.4,2.2,0.4,3.6
				c0,1.4-0.1,2.6-0.4,3.6h3.6C417.3,53.7,417.4,54.8,417.4,56.3z"/>
			<path d="M447.7,67.1c0.2,1,0.4,2.2,0.4,3.6c0,1.4-0.1,2.6-0.4,3.6h-18c-0.2-1-0.4-2.2-0.4-3.6c0-1.4,0.1-2.6,0.4-3.6h5.4
				c-0.2-1-0.4-2.2-0.4-3.6c0-1.4,0.1-2.6,0.4-3.6c-0.2-1-0.4-2.2-0.4-3.6c0-1.4,0.1-2.6,0.4-3.6c-0.2-1-0.4-2.2-0.4-3.6
				c0-1.4,0.1-2.6,0.4-3.6c-0.2-1-0.4-2.2-0.4-3.6c0-1.4,0.1-2.6,0.4-3.6c-0.2-1-0.4-2.2-0.4-3.6c0-1.4,0.1-2.6,0.4-3.6h-5.4
				c-0.2-1-0.4-2.2-0.4-3.6c0-1.4,0.1-2.6,0.4-3.6h18c0.2,1,0.4,2.2,0.4,3.6c0,1.4-0.1,2.6-0.4,3.6h-5.4c0.2,1,0.4,2.2,0.4,3.6
				c0,1.4-0.1,2.6-0.4,3.6c0.2,1,0.4,2.2,0.4,3.6c0,1.4-0.1,2.6-0.4,3.6c0.2,1,0.4,2.2,0.4,3.6c0,1.4-0.1,2.6-0.4,3.6
				c0.2,1,0.4,2.2,0.4,3.6c0,1.4-0.1,2.6-0.4,3.6c0.2,1,0.4,2.2,0.4,3.6c0,1.4-0.1,2.6-0.4,3.6H447.7z"/>
		</g>
		<g class="st5">
			<path class="st6" d="M233.1,63c0.2,1,0.4,2.2,0.4,3.6c0,1.4-0.1,2.6-0.4,3.6h-7.2c-0.2-1-0.4-2.2-0.4-3.6c0-1.4,0.1-2.6,0.4-3.6
				h-2.7c-0.2-1-0.4-2.2-0.4-3.6c0-1.4,0.1-2.6,0.4-3.6h-2.7c-0.2-1-0.4-2.2-0.4-3.6c0-1.4,0.1-2.6,0.4-3.6h-9
				c0.2,1,0.4,2.2,0.4,3.6c0,1.4-0.1,2.6-0.4,3.6c0.2,1,0.4,2.2,0.4,3.6c0,1.4-0.1,2.6-0.4,3.6c0.2,1,0.4,2.2,0.4,3.6
				c0,1.4-0.1,2.6-0.4,3.6h-7.2c-0.2-1-0.4-2.2-0.4-3.6c0-1.4,0.1-2.6,0.4-3.6c-0.2-1-0.4-2.2-0.4-3.6c0-1.4,0.1-2.6,0.4-3.6
				c-0.2-1-0.4-2.2-0.4-3.6c0-1.4,0.1-2.6,0.4-3.6c-0.2-1-0.4-2.2-0.4-3.6c0-1.4,0.1-2.6,0.4-3.6c-0.2-1-0.4-2.2-0.4-3.6
				c0-1.4,0.1-2.6,0.4-3.6c-0.2-1-0.4-2.2-0.4-3.6c0-1.4,0.1-2.6,0.4-3.6c-0.2-1-0.4-2.2-0.4-3.6c0-1.4,0.1-2.6,0.4-3.6h25.2
				c0.2,1,0.4,2.2,0.4,3.6c0,1.4-0.1,2.6-0.4,3.6h3.6c0.2,1,0.4,2.2,0.4,3.6c0,1.4-0.1,2.6-0.4,3.6h-1.8c0.2,1,0.4,2.2,0.4,3.6
				c0,1.4-0.1,2.6-0.4,3.6h-5.4c0.2,1,0.4,2.2,0.4,3.6c0,1.4-0.1,2.6-0.4,3.6h1.8c0.2,1,0.4,2.2,0.4,3.6c0,1.4-0.1,2.6-0.4,3.6h2.7
				c0.2,1,0.4,2.2,0.4,3.6c0,1.4-0.1,2.6-0.4,3.6H233.1z M223.7,37.8c0-1.4,0.1-2.6,0.4-3.6c-0.2-1-0.4-2.2-0.4-3.6
				c0-1.4,0.1-2.6,0.4-3.6h-12.6c0.2,1,0.4,2.2,0.4,3.6c0,1.4-0.1,2.6-0.4,3.6c0.2,1,0.4,2.2,0.4,3.6c0,1.4-0.1,2.6-0.4,3.6h12.6
				C223.9,40.4,223.7,39.2,223.7,37.8z"/>
			<path class="st6" d="M251.1,48.6c0.2,1,0.4,2.2,0.4,3.6c0,1.4-0.1,2.6-0.4,3.6c0.2,1,0.4,2.2,0.4,3.6c0,1.4-0.1,2.6-0.4,3.6h14.4
				c0.2,1,0.4,2.2,0.4,3.6c0,1.4-0.1,2.6-0.4,3.6h-21.6c-0.2-1-0.4-2.2-0.4-3.6c0-1.4,0.1-2.6,0.4-3.6c-0.2-1-0.4-2.2-0.4-3.6
				c0-1.4,0.1-2.6,0.4-3.6c-0.2-1-0.4-2.2-0.4-3.6c0-1.4,0.1-2.6,0.4-3.6c-0.2-1-0.4-2.2-0.4-3.6c0-1.4,0.1-2.6,0.4-3.6
				c-0.2-1-0.4-2.2-0.4-3.6c0-1.4,0.1-2.6,0.4-3.6c-0.2-1-0.4-2.2-0.4-3.6c0-1.4,0.1-2.6,0.4-3.6c-0.2-1-0.4-2.2-0.4-3.6
				c0-1.4,0.1-2.6,0.4-3.6h21.6c0.2,1,0.4,2.2,0.4,3.6c0,1.4-0.1,2.6-0.4,3.6h-14.4c0.2,1,0.4,2.2,0.4,3.6c0,1.4-0.1,2.6-0.4,3.6
				c0.2,1,0.4,2.2,0.4,3.6c0,1.4-0.1,2.6-0.4,3.6h14.4c0.2,1,0.4,2.2,0.4,3.6c0,1.4-0.1,2.6-0.4,3.6H251.1z"/>
			<path class="st6" d="M305.5,30.6c0,1.4-0.1,2.6-0.4,3.6c0.2,1,0.4,2.2,0.4,3.6c0,1.4-0.1,2.6-0.4,3.6h-2.7c0.2,1,0.4,2.2,0.4,3.6
				c0,1.4-0.1,2.6-0.4,3.6h-2.7c0.2,1,0.4,2.2,0.4,3.6c0,1.4-0.1,2.6-0.4,3.6h-1.8c0.2,1,0.4,2.2,0.4,3.6c0,1.4-0.1,2.6-0.4,3.6
				h-3.6c0.2,1,0.4,2.2,0.4,3.6c0,1.4-0.1,2.6-0.4,3.6h-7.2c-0.2-1-0.4-2.2-0.4-3.6c0-1.4,0.1-2.6,0.4-3.6h-3.6
				c-0.2-1-0.4-2.2-0.4-3.6c0-1.4,0.1-2.6,0.4-3.6h-1.8c-0.2-1-0.4-2.2-0.4-3.6c0-1.4,0.1-2.6,0.4-3.6H279c-0.2-1-0.4-2.2-0.4-3.6
				c0-1.4,0.1-2.6,0.4-3.6h-2.7c-0.2-1-0.4-2.2-0.4-3.6c0-1.4,0.1-2.6,0.4-3.6c-0.2-1-0.4-2.2-0.4-3.6c0-1.4,0.1-2.6,0.4-3.6
				c-0.2-1-0.4-2.2-0.4-3.6c0-1.4,0.1-2.6,0.4-3.6h7.2c0.2,1,0.4,2.2,0.4,3.6c0,1.4-0.1,2.6-0.4,3.6c0.2,1,0.4,2.2,0.4,3.6
				c0,1.4-0.1,2.6-0.4,3.6c0.2,1,0.4,2.2,0.4,3.6c0,1.4-0.1,2.6-0.4,3.6h2.7c0.2,1,0.4,2.2,0.4,3.6c0,1.4-0.1,2.6-0.4,3.6h2.7
				c0.2,1,0.4,2.2,0.4,3.6c0,1.4-0.1,2.6-0.4,3.6h3.6c-0.2-1-0.4-2.2-0.4-3.6c0-1.4,0.1-2.6,0.4-3.6h2.7c-0.2-1-0.4-2.2-0.4-3.6
				c0-1.4,0.1-2.6,0.4-3.6h2.7c-0.2-1-0.4-2.2-0.4-3.6c0-1.4,0.1-2.6,0.4-3.6c-0.2-1-0.4-2.2-0.4-3.6c0-1.4,0.1-2.6,0.4-3.6
				c-0.2-1-0.4-2.2-0.4-3.6c0-1.4,0.1-2.6,0.4-3.6h7.2c0.2,1,0.4,2.2,0.4,3.6c0,1.4-0.1,2.6-0.4,3.6C305.3,28,305.5,29.2,305.5,30.6
				z"/>
			<path class="st6" d="M323.1,48.6c0.2,1,0.4,2.2,0.4,3.6c0,1.4-0.1,2.6-0.4,3.6c0.2,1,0.4,2.2,0.4,3.6c0,1.4-0.1,2.6-0.4,3.6h14.4
				c0.2,1,0.4,2.2,0.4,3.6c0,1.4-0.1,2.6-0.4,3.6h-21.6c-0.2-1-0.4-2.2-0.4-3.6c0-1.4,0.1-2.6,0.4-3.6c-0.2-1-0.4-2.2-0.4-3.6
				c0-1.4,0.1-2.6,0.4-3.6c-0.2-1-0.4-2.2-0.4-3.6c0-1.4,0.1-2.6,0.4-3.6c-0.2-1-0.4-2.2-0.4-3.6c0-1.4,0.1-2.6,0.4-3.6
				c-0.2-1-0.4-2.2-0.4-3.6c0-1.4,0.1-2.6,0.4-3.6c-0.2-1-0.4-2.2-0.4-3.6c0-1.4,0.1-2.6,0.4-3.6c-0.2-1-0.4-2.2-0.4-3.6
				c0-1.4,0.1-2.6,0.4-3.6h21.6c0.2,1,0.4,2.2,0.4,3.6c0,1.4-0.1,2.6-0.4,3.6h-14.4c0.2,1,0.4,2.2,0.4,3.6c0,1.4-0.1,2.6-0.4,3.6
				c0.2,1,0.4,2.2,0.4,3.6c0,1.4-0.1,2.6-0.4,3.6h14.4c0.2,1,0.4,2.2,0.4,3.6c0,1.4-0.1,2.6-0.4,3.6H323.1z"/>
			<path class="st6" d="M377.1,63c0.2,1,0.4,2.2,0.4,3.6c0,1.4-0.1,2.6-0.4,3.6h-7.2c-0.2-1-0.4-2.2-0.4-3.6c0-1.4,0.1-2.6,0.4-3.6
				h-2.7c-0.2-1-0.4-2.2-0.4-3.6c0-1.4,0.1-2.6,0.4-3.6h-2.7c-0.2-1-0.4-2.2-0.4-3.6c0-1.4,0.1-2.6,0.4-3.6h-9
				c0.2,1,0.4,2.2,0.4,3.6c0,1.4-0.1,2.6-0.4,3.6c0.2,1,0.4,2.2,0.4,3.6c0,1.4-0.1,2.6-0.4,3.6c0.2,1,0.4,2.2,0.4,3.6
				c0,1.4-0.1,2.6-0.4,3.6h-7.2c-0.2-1-0.4-2.2-0.4-3.6c0-1.4,0.1-2.6,0.4-3.6c-0.2-1-0.4-2.2-0.4-3.6c0-1.4,0.1-2.6,0.4-3.6
				c-0.2-1-0.4-2.2-0.4-3.6c0-1.4,0.1-2.6,0.4-3.6c-0.2-1-0.4-2.2-0.4-3.6c0-1.4,0.1-2.6,0.4-3.6c-0.2-1-0.4-2.2-0.4-3.6
				c0-1.4,0.1-2.6,0.4-3.6c-0.2-1-0.4-2.2-0.4-3.6c0-1.4,0.1-2.6,0.4-3.6c-0.2-1-0.4-2.2-0.4-3.6c0-1.4,0.1-2.6,0.4-3.6h25.2
				c0.2,1,0.4,2.2,0.4,3.6c0,1.4-0.1,2.6-0.4,3.6h3.6c0.2,1,0.4,2.2,0.4,3.6c0,1.4-0.1,2.6-0.4,3.6h-1.8c0.2,1,0.4,2.2,0.4,3.6
				c0,1.4-0.1,2.6-0.4,3.6h-5.4c0.2,1,0.4,2.2,0.4,3.6c0,1.4-0.1,2.6-0.4,3.6h1.8c0.2,1,0.4,2.2,0.4,3.6c0,1.4-0.1,2.6-0.4,3.6h2.7
				c0.2,1,0.4,2.2,0.4,3.6c0,1.4-0.1,2.6-0.4,3.6H377.1z M367.7,37.8c0-1.4,0.1-2.6,0.4-3.6c-0.2-1-0.4-2.2-0.4-3.6
				c0-1.4,0.1-2.6,0.4-3.6h-12.6c0.2,1,0.4,2.2,0.4,3.6c0,1.4-0.1,2.6-0.4,3.6c0.2,1,0.4,2.2,0.4,3.6c0,1.4-0.1,2.6-0.4,3.6h12.6
				C367.9,40.4,367.7,39.2,367.7,37.8z"/>
			<path class="st6" d="M413.5,52.2c0,1.4-0.1,2.6-0.4,3.6c0.2,1,0.4,2.2,0.4,3.6c0,1.4-0.1,2.6-0.4,3.6h-3.6c0.2,1,0.4,2.2,0.4,3.6
				c0,1.4-0.1,2.6-0.4,3.6h-21.6c-0.2-1-0.4-2.2-0.4-3.6c0-1.4,0.1-2.6,0.4-3.6h-3.6c-0.2-1-0.4-2.2-0.4-3.6c0-1.4,0.1-2.6,0.4-3.6
				h7.2c0.2,1,0.4,2.2,0.4,3.6c0,1.4-0.1,2.6-0.4,3.6h14.4c-0.2-1-0.4-2.2-0.4-3.6c0-1.4,0.1-2.6,0.4-3.6c-0.2-1-0.4-2.2-0.4-3.6
				c0-1.4,0.1-2.6,0.4-3.6h-18c-0.2-1-0.4-2.2-0.4-3.6c0-1.4,0.1-2.6,0.4-3.6h-3.6c-0.2-1-0.4-2.2-0.4-3.6c0-1.4,0.1-2.6,0.4-3.6
				c-0.2-1-0.4-2.2-0.4-3.6c0-1.4,0.1-2.6,0.4-3.6h3.6c-0.2-1-0.4-2.2-0.4-3.6c0-1.4,0.1-2.6,0.4-3.6h21.6c0.2,1,0.4,2.2,0.4,3.6
				c0,1.4-0.1,2.6-0.4,3.6h3.6c0.2,1,0.4,2.2,0.4,3.6c0,1.4-0.1,2.6-0.4,3.6h-7.2c-0.2-1-0.4-2.2-0.4-3.6c0-1.4,0.1-2.6,0.4-3.6
				h-14.4c0.2,1,0.4,2.2,0.4,3.6c0,1.4-0.1,2.6-0.4,3.6c0.2,1,0.4,2.2,0.4,3.6c0,1.4-0.1,2.6-0.4,3.6h18c0.2,1,0.4,2.2,0.4,3.6
				c0,1.4-0.1,2.6-0.4,3.6h3.6C413.3,49.6,413.5,50.8,413.5,52.2z"/>
			<path class="st6" d="M443.7,63c0.2,1,0.4,2.2,0.4,3.6c0,1.4-0.1,2.6-0.4,3.6h-18c-0.2-1-0.4-2.2-0.4-3.6c0-1.4,0.1-2.6,0.4-3.6
				h5.4c-0.2-1-0.4-2.2-0.4-3.6c0-1.4,0.1-2.6,0.4-3.6c-0.2-1-0.4-2.2-0.4-3.6c0-1.4,0.1-2.6,0.4-3.6c-0.2-1-0.4-2.2-0.4-3.6
				c0-1.4,0.1-2.6,0.4-3.6c-0.2-1-0.4-2.2-0.4-3.6c0-1.4,0.1-2.6,0.4-3.6c-0.2-1-0.4-2.2-0.4-3.6c0-1.4,0.1-2.6,0.4-3.6h-5.4
				c-0.2-1-0.4-2.2-0.4-3.6c0-1.4,0.1-2.6,0.4-3.6h18c0.2,1,0.4,2.2,0.4,3.6c0,1.4-0.1,2.6-0.4,3.6h-5.4c0.2,1,0.4,2.2,0.4,3.6
				c0,1.4-0.1,2.6-0.4,3.6c0.2,1,0.4,2.2,0.4,3.6c0,1.4-0.1,2.6-0.4,3.6c0.2,1,0.4,2.2,0.4,3.6c0,1.4-0.1,2.6-0.4,3.6
				c0.2,1,0.4,2.2,0.4,3.6c0,1.4-0.1,2.6-0.4,3.6c0.2,1,0.4,2.2,0.4,3.6c0,1.4-0.1,2.6-0.4,3.6H443.7z"/>
		</g>
	</g>
</g>
</svg>
