<?xml version="1.0" encoding="UTF-8"?>
<svg width="69px" height="69px" viewBox="0 0 69 69" version="1.1" xmlns="http://www.w3.org/2000/svg" xmlns:xlink="http://www.w3.org/1999/xlink">
    <!-- Generator: Sketch 49.3 (51167) - http://www.bohemiancoding.com/sketch -->
    <title>Group 4</title>
    <desc>Created with Sketch.</desc>
    <defs></defs>
    <g id="Page-1" stroke="none" stroke-width="1" fill="none" fill-rule="evenodd">
        <g id="Desktop-Copy-4" transform="translate(-325.000000, -160.000000)">
            <g id="Group-4" transform="translate(325.000000, 160.000000)">
                <g id="Group-3">
                    <g id="Page-1">
                        <path d="M69,34.5 C69,53.554 53.554,69 34.5,69 C15.446,69 0,53.554 0,34.5 C0,15.446 15.446,0 34.5,0 C53.554,0 69,15.446 69,34.5" id="Fill-1" fill="#4838A6"></path>
                        <path d="M26.2029,46 C21.3909,46 17.4529,42.062 17.4529,37.25 L17.4529,35.477 C17.4529,30.664 21.3909,26.727 26.2029,26.727 L43.2969,26.727 C48.1089,26.727 52.0469,30.664 52.0469,35.477 L52.0469,37.25 C52.0469,42.062 48.1089,46 43.2969,46 L26.2029,46 Z" id="Fill-3" fill="#4838A6"></path>
                        <path d="M43.2969,46 L26.2029,46 C21.3909,46 17.4529,42.062 17.4529,37.25 L17.4529,35.477 C17.4529,30.664 21.3909,26.727 26.2029,26.727 L43.2969,26.727 C48.1089,26.727 52.0469,30.664 52.0469,35.477 L52.0469,37.25 C52.0469,42.062 48.1089,46 43.2969,46 Z" id="Stroke-5" stroke="#C0CDDF"></path>
                        <path d="M31.291,35.6221 C31.291,37.2601 29.963,38.5871 28.325,38.5871 C26.687,38.5871 25.36,37.2601 25.36,35.6221 C25.36,33.9841 26.687,32.6571 28.325,32.6571 C29.963,32.6571 31.291,33.9841 31.291,35.6221" id="Fill-7" fill="#4838A6"></path>
                        <path d="M31.291,35.6221 C31.291,37.2601 29.963,38.5871 28.325,38.5871 C26.687,38.5871 25.36,37.2601 25.36,35.6221 C25.36,33.9841 26.687,32.6571 28.325,32.6571 C29.963,32.6571 31.291,33.9841 31.291,35.6221 Z" id="Stroke-9" stroke="#C0CDDF"></path>
                        <path d="M44.1396,35.6221 C44.1396,37.2601 42.8116,38.5871 41.1746,38.5871 C39.5366,38.5871 38.2086,37.2601 38.2086,35.6221 C38.2086,33.9841 39.5366,32.6571 41.1746,32.6571 C42.8116,32.6571 44.1396,33.9841 44.1396,35.6221" id="Fill-11" fill="#4838A6"></path>
                        <path d="M44.1396,35.6221 C44.1396,37.2601 42.8116,38.5871 41.1746,38.5871 C39.5366,38.5871 38.2086,37.2601 38.2086,35.6221 C38.2086,33.9841 39.5366,32.6571 41.1746,32.6571 C42.8116,32.6571 44.1396,33.9841 44.1396,35.6221 Z" id="Stroke-13" stroke="#C0CDDF"></path>
                        <g id="Group-18" transform="translate(33.000000, 40.000000)">
                            <path d="M0.2676,0.5635 C0.6616,1.0325 1.3236,1.6365 2.1546,1.5525 C2.8266,1.4845 3.3676,0.9915 3.7266,0.5635" id="Fill-15" fill="#605795"></path>
                            <path d="M0.2676,0.5635 C0.6616,1.0325 1.3236,1.6365 2.1546,1.5525 C2.8266,1.4845 3.3676,0.9915 3.7266,0.5635" id="Stroke-17" stroke="#C0CDDF" stroke-linecap="round" stroke-linejoin="round"></path>
                        </g>
                        <path d="M41.6689,35.6221 C41.6689,35.8951 41.4469,36.1161 41.1749,36.1161 C40.9009,36.1161 40.6809,35.8951 40.6809,35.6221 C40.6809,35.3491 40.9009,35.1281 41.1749,35.1281 C41.4469,35.1281 41.6689,35.3491 41.6689,35.6221" id="Fill-19" fill="#605795"></path>
                        <path d="M41.6689,35.6221 C41.6689,35.8951 41.4469,36.1161 41.1749,36.1161 C40.9009,36.1161 40.6809,35.8951 40.6809,35.6221 C40.6809,35.3491 40.9009,35.1281 41.1749,35.1281 C41.4469,35.1281 41.6689,35.3491 41.6689,35.6221 Z" id="Stroke-21" stroke="#C0CDDF" stroke-linecap="round" stroke-linejoin="round"></path>
                        <path d="M28.8193,35.6221 C28.8193,35.8951 28.5983,36.1161 28.3253,36.1161 C28.0523,36.1161 27.8313,35.8951 27.8313,35.6221 C27.8313,35.3491 28.0523,35.1281 28.3253,35.1281 C28.5983,35.1281 28.8193,35.3491 28.8193,35.6221 Z" id="Stroke-23" stroke="#C0CDDF" stroke-linecap="round" stroke-linejoin="round"></path>
                        <path d="M37.2207,19.8081 C37.2207,20.9001 36.3357,21.7851 35.2437,21.7851 C34.1527,21.7851 33.2677,20.9001 33.2677,19.8081 C33.2677,18.7161 34.1527,17.8311 35.2437,17.8311 C36.3357,17.8311 37.2207,18.7161 37.2207,19.8081" id="Fill-25" fill="#4838A6"></path>
                        <path d="M37.2207,19.8081 C37.2207,20.9001 36.3357,21.7851 35.2437,21.7851 C34.1527,21.7851 33.2677,20.9001 33.2677,19.8081 C33.2677,18.7161 34.1527,17.8311 35.2437,17.8311 C36.3357,17.8311 37.2207,18.7161 37.2207,19.8081 Z" id="Stroke-27" stroke="#C0CDDF" stroke-linecap="round" stroke-linejoin="round"></path>
                        <g id="Group-32" transform="translate(35.000000, 21.000000)">
                            <path d="M0.2441,5.7266 L0.2441,0.7846" id="Fill-29" fill="#605795"></path>
                            <path d="M0.2441,5.7266 L0.2441,0.7846" id="Stroke-31" stroke="#C0CDDF" stroke-linecap="round" stroke-linejoin="round"></path>
                        </g>
                        <path d="M51.2031,31.6831 C51.7381,32.8061 52.0471,34.0551 52.0471,35.3751 L52.0471,37.3511 C52.0471,38.8701 51.6461,40.2981 50.9521,41.5421 C50.9881,41.5421 51.0211,41.5531 51.0581,41.5531 C53.7871,41.5531 56.0001,39.3401 56.0001,36.6101 C56.0001,33.9311 53.8631,31.7611 51.2031,31.6831" id="Fill-33" fill="#4838A6"></path>
                        <path d="M51.2031,31.6831 C51.7381,32.8061 52.0471,34.0551 52.0471,35.3751 L52.0471,37.3511 C52.0471,38.8701 51.6461,40.2981 50.9521,41.5421 C50.9881,41.5421 51.0211,41.5531 51.0581,41.5531 C53.7871,41.5531 56.0001,39.3401 56.0001,36.6101 C56.0001,33.9311 53.8631,31.7611 51.2031,31.6831 Z" id="Stroke-35" stroke="#C0CDDF"></path>
                        <path d="M18.5342,41.4365 C17.9452,40.3405 17.5762,39.1085 17.5122,37.7895 L17.4162,35.8155 C17.3432,34.2985 17.6732,32.8535 18.3052,31.5775 C18.2692,31.5785 18.2362,31.5695 18.2002,31.5715 C15.4732,31.7045 13.3712,34.0215 13.5032,36.7475 C13.6332,39.4235 15.8722,41.4875 18.5342,41.4365" id="Fill-37" fill="#4838A6"></path>
                        <path d="M18.5342,41.4365 C17.9452,40.3405 17.5762,39.1085 17.5122,37.7895 L17.4162,35.8155 C17.3432,34.2985 17.6732,32.8535 18.3052,31.5775 C18.2692,31.5785 18.2362,31.5695 18.2002,31.5715 C15.4732,31.7045 13.3712,34.0215 13.5032,36.7475 C13.6332,39.4235 15.8722,41.4875 18.5342,41.4365 Z" id="Stroke-39" stroke="#C0CDDF"></path>
                        <path d="M65.5,34.5 C65.5,51.621 51.621,65.5 34.5,65.5 C17.379,65.5 3.5,51.621 3.5,34.5 C3.5,17.379 17.379,3.5 34.5,3.5 C51.621,3.5 65.5,17.379 65.5,34.5 Z" id="Stroke-41" stroke="#CCDEE7"></path>
                    </g>
                </g>
            </g>
        </g>
    </g>
</svg>